<?xml version="1.0" encoding="UTF-8" standalone="no"?>
<!-- Created with Inkscape (http://www.inkscape.org/) -->

<svg
   xmlns:dc="http://purl.org/dc/elements/1.1/"
   xmlns:cc="http://creativecommons.org/ns#"
   xmlns:rdf="http://www.w3.org/1999/02/22-rdf-syntax-ns#"
   xmlns:svg="http://www.w3.org/2000/svg"
   xmlns="http://www.w3.org/2000/svg"
   xmlns:sodipodi="http://sodipodi.sourceforge.net/DTD/sodipodi-0.dtd"
   xmlns:inkscape="http://www.inkscape.org/namespaces/inkscape"
   id="svg3065"
   version="1.1"
   inkscape:version="0.48.4 r9939"
   width="488"
   height="488"
   sodipodi:docname="die5.png">
  <metadata
     id="metadata3071">
    <rdf:RDF>
      <cc:Work
         rdf:about="">
        <dc:format>image/svg+xml</dc:format>
        <dc:type
           rdf:resource="http://purl.org/dc/dcmitype/StillImage" />
        <dc:title></dc:title>
      </cc:Work>
    </rdf:RDF>
  </metadata>
  <defs
     id="defs3069" />
  <sodipodi:namedview
     pagecolor="#ffffff"
     bordercolor="#666666"
     borderopacity="1"
     objecttolerance="10"
     gridtolerance="10"
     guidetolerance="10"
     inkscape:pageopacity="0"
     inkscape:pageshadow="2"
     inkscape:window-width="640"
     inkscape:window-height="480"
     id="namedview3067"
     showgrid="false"
     inkscape:zoom="0.48360656"
     inkscape:cx="244"
     inkscape:cy="244"
     inkscape:window-x="53"
     inkscape:window-y="24"
     inkscape:window-maximized="0"
     inkscape:current-layer="svg3065" />
  <g
     id="g3263">
    <path
       style="fill:#fefefe"
       d="M 0,244 0,0 l 244,0 244,0 0,244 0,244 -244,0 -244,0 0,-244 z"
       id="path3279"
       inkscape:connector-curvature="0" />
    <path
       style="fill:#d0d0d0"
       d="M 148.35195,486.97545 C 128.35037,484.86843 110.10083,479.41969 91.047773,469.86622 59.38553,453.99032 33.677285,428.17678 17.980821,396.5 7.800664,375.95559 3.2399412,360.49798 1.0581142,339.14405 c -1.42714939,-13.96777 -1.42714939,-176.32033 0,-190.2881 C 3.2399412,127.50202 7.800664,112.04441 17.980821,91.5 33.82906,59.516929 59.633747,33.725175 91.5,18.017671 112.29223,7.768769 127.42328,3.3081255 149.16515,1.0179448 162.12983,-0.34768994 326.26055,-0.30855709 338.78941,1.0631558 359.48917,3.329453 375.51994,7.827009 393.5,16.412638 c 52.53726,25.086978 87.00803,74.078877 93.43684,132.797952 1.43715,13.12652 1.44046,176.40953 0.004,189.57882 -4.38316,40.17998 -21.18748,74.84185 -49.58076,102.26906 -27.51224,26.57614 -60.4061,41.90832 -98.52508,45.92359 -10.862,1.14414 -179.61451,1.13829 -190.4829,-0.007 z m 207.34236,-12.7308 C 369.17918,471.07992 379.12718,467.55503 391.5,461.55759 434.49115,440.71861 464.52673,401.66948 474.61509,353.5 476.38943,345.02793 476.5,338.60474 476.5,244 476.5,149.39526 476.38943,142.97207 474.61509,134.5 467.51902,100.61799 449.49544,69.430976 424.82104,48.339104 404.25819,30.761816 380.2208,18.981176 353.5,13.384912 345.02793,11.610568 338.60474,11.5 244,11.5 149.61901,11.5 142.95203,11.614105 134.5,13.374085 72.463541,26.292039 26.292039,72.463541 13.374085,134.5 11.614105,142.95203 11.5,149.61901 11.5,244 c 0,94.38099 0.114105,101.04797 1.874085,109.5 9.914915,47.61484 39.477281,86.37962 82.208637,107.79922 14.137208,7.08645 29.075658,11.63465 49.417278,15.04573 1.375,0.23058 47.275,0.33784 102,0.23836 98.09442,-0.17831 99.62988,-0.21134 108.69431,-2.33866 z M 117.10463,400.41748 C 93.454124,394.0575 78.342981,369.07964 84.394927,346.35019 c 3.294512,-12.37328 12.506381,-23.73351 23.706893,-29.23572 17.68905,-8.68969 36.06348,-5.80396 50.34113,7.90614 18.83568,18.08695 19.1017,44.58662 0.63299,63.05533 -11.93276,11.93277 -27.00766,16.36549 -41.97131,12.34154 z m 229,0 c -22.02546,-5.92298 -37.06783,-28.48995 -33.37207,-50.06566 3.27839,-19.1391 18.48016,-34.34087 37.61926,-37.61926 28.47877,-4.87821 55.96195,22.73198 50.75524,50.9898 -1.82767,9.9191 -5.54628,16.86874 -13.03112,24.35358 -11.93276,11.93277 -27.00766,16.36549 -41.97131,12.34154 z M 229.48694,285.25718 C 209.92202,278.27345 197.908,262.04497 197.83361,242.5 c -0.12477,-32.77951 34.33107,-54.59575 63.47666,-40.19122 9.4165,4.65389 16.7329,12.01781 21.4997,21.63936 3.58464,7.23541 3.69003,7.76527 3.69003,18.55186 0,10.79466 -0.10329,11.31273 -3.71102,18.61246 -4.70246,9.51479 -13.00985,17.68916 -22.50138,22.14111 -5.87423,2.75528 -8.06596,3.22469 -16.2876,3.48836 -7.19786,0.23083 -10.71482,-0.12897 -14.51306,-1.48475 z M 117,171.18572 C 101.68116,167.18162 89.745862,155.61696 84.964126,140.14466 77.669797,116.54236 92.545817,91.037171 117.5,84.361353 c 24.05885,-6.436297 49.85264,10.988258 54.60672,36.888647 2.46874,13.44973 -2.17262,26.89422 -13.05841,37.82594 -7.02985,7.05952 -13.94644,10.9373 -22.84753,12.80947 -7.08156,1.48947 -11.432,1.33094 -19.20078,-0.69969 z m 229.60448,0.2211 c -20.75298,-5.02165 -36.21925,-26.21167 -34.28102,-46.96771 1.69811,-18.18475 14.64713,-33.952113 32.38194,-39.429837 24.93625,-7.702024 52.08568,9.771703 56.49126,36.358507 2.27202,13.71123 -2.31947,26.90691 -13.12072,37.70816 -11.94147,11.94147 -25.91284,16.09564 -41.47146,12.33088 z"
       id="path3277"
       inkscape:connector-curvature="0" />
    <path
       style="fill:#aaaaaa"
       d="M 150.15169,486.90442 C 112.35011,483.67795 76.857414,466.87299 48.99221,439.00779 20.643562,410.65914 4.4599494,376.05323 1.0539701,336.5 c -1.36819065,-15.88864 -1.36819065,-169.11136 0,-185 C 3.6232384,121.66339 13.45429,94.837836 31.016683,69.742068 39.297866,57.908678 57.813443,39.401434 70,30.776295 87.652294,18.282734 111.84051,7.7677921 132.5,3.6067042 147.54062,0.57732964 164.55931,0.03165588 244,0.03165588 c 79.44069,0 96.45938,0.54567376 111.5,3.57504832 20.50485,4.1299404 45.06974,14.8082068 62.48799,27.1632898 12.15673,8.622992 30.61902,27.085288 39.24202,39.242017 13.50111,19.033924 23.73622,43.630159 28.08343,67.487989 2.14867,11.79203 2.18656,13.63777 2.18656,106.5 0,92.86223 -0.0379,94.70797 -2.18656,106.5 -4.34572,23.84962 -14.57038,48.42512 -28.08343,67.5 -8.62852,12.17991 -27.06631,30.61474 -39.23001,39.22371 -18.8354,13.33091 -43.09124,23.54094 -66.48591,27.98598 -10.59828,2.0137 -14.41178,2.10186 -101.01409,2.33534 -49.5,0.13346 -94.65674,-0.15482 -100.34831,-0.64061 z m 198.37813,-11.19614 c 33.64499,-6.13113 61.02883,-20.2072 84.00005,-43.17841 18.91137,-18.91138 31.44543,-40.16045 38.93578,-66.00809 5.85828,-20.21571 5.8354,-19.80961 6.27722,-111.38741 0.51151,-106.02195 -0.0233,-115.01559 -8.32655,-140.01405 C 454.15136,69.162105 418.78984,33.830989 372.7548,18.541889 347.82338,10.261695 339.50338,9.765665 233.78189,10.256457 141.16444,10.686416 141.77623,10.652217 121.47822,16.53435 95.630581,24.024703 74.381505,36.558764 55.470135,55.470135 36.558764,74.381505 24.024703,95.630581 16.53435,121.47822 10.631253,141.84857 10.674872,141.06349 10.254886,234.5 9.7802877,340.08636 10.240158,347.75853 18.541889,372.7548 37.942181,431.16852 89.950279,471.93122 151.5,476.96417 c 5.5,0.44974 50.05,0.72138 99,0.60366 77.65582,-0.18676 90.15097,-0.42379 98.02982,-1.85955 z M 119,400.59725 c -8.78518,-1.9729 -15.02852,-5.521 -22.073004,-12.54415 -7.595359,-7.57236 -11.573783,-14.94361 -13.204929,-24.46617 -4.867451,-28.41598 22.801423,-55.88984 51.045453,-50.68567 18.83008,3.46958 34.26413,19.18636 37.28958,37.97267 3.60865,22.40765 -13.54264,45.66664 -36.94792,50.10536 -6.61099,1.25375 -9.08649,1.19504 -16.10918,-0.38204 z m 229,0.0323 c -8.20186,-1.79367 -17.3436,-7.15329 -23.44864,-13.74746 -17.32556,-18.71367 -16.2131,-44.85835 2.6548,-62.39258 17.60269,-16.35846 42.07249,-16.23591 59.93342,0.30016 6.90558,6.39335 12.3244,16.45341 13.98344,25.96029 3.85598,22.09616 -13.6037,45.78965 -37.01384,50.22929 -6.5792,1.24772 -9.04993,1.19409 -16.10918,-0.3497 z M 229.76195,285.05814 C 217.79397,281.23228 207.19705,271.85902 201.68498,260.22333 198.70551,253.93382 198.5,252.79023 198.5,242.5 c 0,-10.31161 0.2012,-11.42478 3.21506,-17.7876 4.50128,-9.50307 12.69312,-17.81643 22.17248,-22.50138 7.29334,-3.60457 7.82577,-3.71102 18.5606,-3.71102 10.29136,0 11.49914,0.21314 17.55186,3.09738 25.24046,12.02759 34.51528,41.78251 20.05031,64.32421 -10.91982,17.01707 -31.92007,25.00842 -50.28836,19.13655 z M 120.55302,171.97101 c -8.31744,-1.44857 -18.67007,-7.25001 -24.850847,-13.92598 -17.078819,-18.44716 -16.671576,-43.6918 0.989738,-61.353119 17.556279,-17.556276 43.014109,-17.968423 61.349369,-0.99321 10.6784,9.886319 16.03046,24.605669 13.91647,38.273359 -3.78116,24.44646 -27.69984,42.12741 -51.40473,37.99895 z m 229,0 c -8.31952,-1.44893 -18.66997,-7.24989 -24.85432,-13.92973 -17.19425,-18.57184 -16.48853,-44.44974 1.68622,-61.83172 17.94825,-17.165363 42.44466,-17.371676 60.65636,-0.510859 10.65269,9.862509 16.37423,25.478509 14.08881,38.453059 -4.34408,24.6617 -27.9095,41.94121 -51.57707,37.81925 z"
       id="path3275"
       inkscape:connector-curvature="0" />
    <path
       style="fill:#959595"
       d="m 152.93397,486.92562 c -12.55856,-0.85233 -31.22073,-4.64928 -42.39415,-8.6254 C 56.884157,459.20656 15.859957,412.42638 3.9634419,356.77042 0.44504614,340.31016 -0.19264923,318.6926 0.25958801,231.21161 0.71721409,142.68819 0.70708942,142.87856 6.0412664,122.5 16.624484,82.068125 45.182596,44.850324 82.458188,22.91114 100.18949,12.475083 122.82461,4.6779176 143.16379,1.9997616 148.88849,1.2459642 182.2008,1.0089605 249.5,1.243222 l 98,0.3411278 10.54819,2.6098559 C 387.33157,11.439566 410.10158,23.091345 431.5,41.780676 c 26.54281,23.182422 44.55587,54.05435 52.65563,90.244544 L 486.5,142.5 l 0,101.5 0,101.5 -2.34437,10.47478 c -8.09085,36.15037 -26.12825,67.11194 -52.50081,90.11869 -28.64596,24.99001 -60.80634,38.30267 -98.79685,40.89655 -16.74366,1.14321 -162.90138,1.0909 -179.924,-0.0644 z M 350,475.63913 c 34.47777,-6.84267 63.28131,-22.2333 85.30796,-45.5827 22.07391,-23.39951 35.63913,-51.43319 40.91786,-84.56025 1.83518,-11.5168 1.83518,-191.47556 0,-202.99236 C 470.70483,107.85646 456.3103,79.12192 432.59419,55.405809 409.57126,32.382876 382.82651,18.582941 349,12.272308 340.32862,10.654587 331.17015,10.5 244,10.5 139.44744,10.5 142.44443,10.352507 120.64315,16.570836 69.8832,31.048978 28.88189,73.092885 15.574157,124.31156 10.517004,143.77548 10.5,144.17657 10.5,244 c 0,99.82343 0.017,100.22452 5.074157,119.68844 15.031309,57.85236 64.013945,102.29391 123.161183,111.74315 14.7572,2.35758 11.57062,2.2972 110.26466,2.08933 82.23961,-0.17321 93.44285,-0.38195 101,-1.88179 z M 121.29325,401.00019 C 108.438,399.09613 95.040709,389.31504 88.66238,377.17705 c -9.407145,-17.90182 -6.384996,-36.64023 8.261679,-51.22536 7.514591,-7.48301 14.726891,-11.30994 24.533371,-13.01766 18.13908,-3.15879 37.80259,7.61728 46.61286,25.54494 3.30398,6.72313 3.42971,7.40133 3.42971,18.5 0,10.9229 -0.16537,11.85849 -3.18522,18.02103 -4.14772,8.46417 -9.32865,14.40625 -16.7342,19.19269 -9.09714,5.87976 -20.00235,8.33086 -30.28733,6.8075 z m 229,0 c -13.11631,-1.94273 -26.75257,-12.06265 -32.80024,-24.34214 -6.73433,-13.67373 -6.84576,-26.07332 -0.34996,-38.94142 8.6814,-17.19777 28.54725,-27.92249 46.02069,-24.84461 24.16943,4.25736 41.35864,27.19476 37.75311,50.37798 -3.71797,23.90613 -26.9794,41.25225 -50.6236,37.75019 z M 231.02424,285.46132 c -26.07481,-7.31367 -40.33086,-37.11331 -29.1674,-60.96909 3.441,-7.35326 11.5052,-16.44802 17.91495,-20.20438 37.21388,-21.80879 81.21025,17.6318 62.83379,56.32741 -7.27413,15.31726 -21.71737,25.23509 -37.8547,25.99395 -5.47176,0.25731 -10.09527,-0.12933 -13.72664,-1.14789 z M 121.58007,171.8164 C 98.154803,168.7025 79.70853,143.98725 83.886492,121.31263 85.720568,111.35874 89.43186,104.41626 96.924059,96.924059 107.60298,86.245142 121.31417,81.403628 134.12891,83.786779 c 28.84209,5.363749 45.98055,35.695161 34.60486,61.243201 -8.31931,18.68388 -27.24206,29.43326 -47.1537,26.78642 z m 229,0.011 c -23.40494,-3.15479 -41.84578,-27.97999 -37.65983,-50.69793 1.80054,-9.77189 5.55052,-16.75214 13.00382,-24.205441 7.4922,-7.492199 14.43468,-11.203491 24.38857,-13.037567 18.0485,-3.325566 38.5504,7.892239 46.81181,25.613508 14.70071,31.53397 -11.79301,67.01163 -46.54437,62.32743 z"
       id="path3273"
       inkscape:connector-curvature="0" />
    <path
       style="fill:#6f6f6f"
       d="M 136.62728,484.9431 C 77.378907,474.41438 28.236704,431.7772 8.9849949,374.19699 0.93325656,350.11494 1,351.2032 1,244 1,136.7968 0.93325656,137.88506 8.9849949,113.80301 27.761067,57.645391 73.583575,16.767508 132.35224,3.7481006 L 142.5,1.5 l 101.5,0 101.5,0 10.14776,2.2481006 C 420.90319,18.204564 469.79544,67.096809 484.2519,132.35224 L 486.5,142.5 l 0,101.5 0,101.5 -2.2481,10.14776 c -7.08849,31.99693 -22.81215,60.91798 -45.30673,83.33419 -22.52272,22.44425 -50.89008,37.93876 -82.7866,45.21879 -9.56777,2.18374 -10.59394,2.20667 -109.15857,2.43948 -94.50511,0.22321 -100.04581,0.13802 -110.37272,-1.69712 z m 202.12801,-7.95281 c 53.22989,-5.60783 99.25298,-37.03699 122.25849,-83.49029 9.27536,-18.72904 13.61683,-33.64604 15.92306,-54.71059 1.44038,-13.15601 1.44038,-176.42281 0,-189.57882 C 474.63061,128.14604 470.28914,113.22904 461.01378,94.5 438.00827,48.046705 391.98518,16.617545 338.75529,11.009714 c -12.17242,-1.2823794 -177.33816,-1.2823794 -189.51058,0 -37.17121,3.91603 -67.761049,18.410555 -93.792745,44.442251 -26.081764,26.081764 -40.518689,56.550045 -44.442251,93.792745 -1.2823794,12.17242 -1.2823794,177.33816 0,189.51058 3.923562,37.2427 18.360487,67.71098 44.442251,93.79275 25.648569,25.64856 57.010475,40.64672 92.899985,44.42741 10.8031,1.13802 179.61711,1.15118 190.40334,0.0148 z M 114.41302,399.17621 c -20.289542,-7.01382 -33.999334,-28.70665 -30.543107,-48.32797 4.289771,-24.35342 27.055327,-41.39086 50.447507,-37.75423 14.05717,2.18538 27.40099,12.29303 33.8014,25.60382 2.77875,5.7789 3.33398,8.17859 3.69088,15.95191 0.34693,7.55625 0.0324,10.31488 -1.80625,15.83988 -4.26054,12.80293 -16.20559,24.71365 -28.86828,28.78532 -7.09964,2.28288 -19.97019,2.23533 -26.72215,-0.0987 z m 229,0.0548 c -15.93421,-5.68003 -27.84281,-19.79091 -30.47012,-36.10498 -3.68712,-22.89495 14.45999,-46.79064 38.06848,-50.12768 18.42838,-2.60483 37.49142,7.9477 46.06837,25.50161 3.28959,6.73259 3.42025,7.43931 3.42025,18.5 0,11.01289 -0.1418,11.79005 -3.34772,18.34772 -4.41997,9.041 -12.82434,17.42818 -21.80456,21.75999 -6.10272,2.94377 -7.93568,3.3376 -16.84772,3.61991 -7.73407,0.245 -11.15268,-0.0941 -15.08698,-1.49657 z M 232,285.56703 c -10.82231,-3.01616 -21.2067,-10.53895 -26.99121,-19.55332 -21.40849,-33.36225 10.07365,-76.47597 48.53111,-66.46171 21.35408,5.56057 36.56245,28.66413 32.66487,49.62234 C 281.45984,274.689 255.50192,292.11696 232,285.56703 z M 114.14734,170.00229 C 98.22942,164.27601 86.790356,150.73138 83.869913,134.15176 79.92347,111.74745 98.030239,87.754179 121.75,83.956887 c 18.20055,-2.913724 37.79393,7.901632 46.27456,25.543113 2.88086,5.9928 3.42549,8.31652 3.78514,16.14974 0.34342,7.47986 0.0294,10.3087 -1.72077,15.5 -4.42888,13.13707 -15.52411,24.44968 -28.16756,28.71944 -8.25075,2.78632 -20.23893,2.84378 -27.77403,0.13311 z m 229,0.0551 c -15.94006,-5.89822 -27.29112,-19.3605 -30.13727,-35.74262 -3.95152,-22.74447 13.88031,-46.538171 37.73993,-50.357853 18.26316,-2.923746 37.56845,7.713304 46.32029,25.522083 3.30398,6.72313 3.42971,7.40133 3.42971,18.5 0,11.03674 -0.14072,11.80887 -3.34772,18.36875 -4.41997,9.041 -12.82434,17.42818 -21.80456,21.75999 -6.10535,2.94504 -7.93183,3.33713 -16.84772,3.6167 -8.05211,0.25248 -11.04264,-0.0722 -15.35266,-1.66705 z"
       id="path3271"
       inkscape:connector-curvature="0" />
    <path
       style="fill:#4e4e4e"
       d="M 140.92846,485.48856 C 108.96652,480.43655 80.04848,466.88951 56.236975,445.81369 29.621455,422.25601 11.758511,391.31945 3.8006328,355 L 1.5,344.5 1.5,244 1.5,143.5 3.8006328,133 C 18.341551,66.635807 66.552499,18.428349 133,3.8099862 L 143.5,1.5 244,1.5 344.5,1.5 355,3.8146347 C 384.62463,10.34513 410.77252,23.46572 431.87845,42.391012 458.66034,66.405817 476.23724,96.850812 484.19001,133 l 2.30999,10.5 0,100.5 0,100.5 -2.31463,10.5 c -3.42048,15.51649 -7.83757,28.03317 -14.65347,41.52341 -22.83757,45.20087 -62.96811,76.03401 -114.0319,87.61311 -9.98563,2.26432 -10.14081,2.2679 -108,2.48723 -78.40928,0.17574 -99.7135,-0.0512 -106.57154,-1.13519 z m 212.33702,-10.2993 c 31.70934,-6.67858 56.79351,-20.17549 79.2709,-42.65288 C 450.90565,414.16712 462.2179,395.899 470.0098,372.02069 477.72882,348.36576 477.5,352.27665 477.5,244 477.5,135.72335 477.72882,139.63424 470.0098,115.97931 462.2179,92.100996 450.90565,73.832882 432.53638,55.463618 409.86855,32.795787 384.46877,19.210071 352.72776,12.775945 341.50173,10.500351 341.48495,10.5 244,10.5 c -97.48495,0 -97.50173,3.51e-4 -108.72776,2.275945 C 103.53123,19.210071 78.13145,32.795787 55.463618,55.463618 32.795787,78.13145 19.210071,103.53123 12.775945,135.27224 10.500351,146.49827 10.5,146.51505 10.5,244 c 0,97.48495 3.51e-4,97.50173 2.275945,108.72776 4.796745,23.66344 14.31282,45.23034 28.138563,63.77224 9.510397,12.75453 26.923627,28.89208 40.683653,37.70319 17.859019,11.43587 46.136819,21.06618 67.901839,23.1247 2.2,0.20808 46.525,0.32218 98.5,0.25355 94.14671,-0.1243 94.54025,-0.13324 105.26548,-2.39218 z M 114.76195,399.11468 c -25.620755,-8.44277 -38.069258,-36.76521 -26.771113,-60.90879 3.934496,-8.40783 12.440363,-16.8298 21.488133,-21.27618 6.73102,-3.30786 7.3883,-3.42922 18.5,-3.41592 10.29218,0.0123 12.10767,0.28974 17.02103,2.60092 7.74096,3.64126 15.04688,9.74234 19.25124,16.07647 8.94547,13.47692 10.2366,28.932 3.58679,42.93461 -4.70924,9.91631 -11.80424,17.00695 -21.73772,21.72434 -6.63647,3.15164 -8.6033,3.61063 -16.56544,3.86583 -6.7851,0.21746 -10.4637,-0.18127 -14.77292,-1.60128 z m 228.50432,-0.20212 c -12.48222,-3.9549 -24.6043,-16.31743 -28.66707,-29.23571 -1.39931,-4.44936 -1.73562,-8.01213 -1.42555,-15.10174 0.35252,-8.05994 0.85105,-10.1846 3.79579,-16.17685 4.48572,-9.12799 12.46008,-17.06245 21.53056,-21.42282 5.99799,-2.88335 8.31362,-3.42535 16.17685,-3.78632 11.20937,-0.51459 18.05516,1.35585 26.82315,7.32874 18.04379,12.29171 24.51594,35.3004 15.35026,54.57059 -9.85964,20.72917 -32.1179,30.62547 -53.58399,23.82411 z M 232.10463,285.41748 c -23.24952,-6.25215 -38.20398,-29.92366 -33.04409,-52.3057 1.82417,-7.91271 6.10882,-15.42478 12.36764,-21.6836 13.94514,-13.94514 33.33881,-17.12738 50.76623,-8.33004 16.62159,8.39055 26.90622,28.00919 23.97054,45.72545 -3.01377,18.18753 -18.19301,33.83821 -36.05144,37.17113 -7.09068,1.32333 -11.46241,1.18321 -18.00888,-0.57724 z M 113.87836,169.74824 C 82.657649,158.83726 73.656871,120.18313 96.92,96.92 c 19.84719,-19.847185 52.08976,-16.691067 67.55815,6.61304 5.69613,8.58159 7.76656,16.13395 7.29973,26.62747 -0.33472,7.52406 -0.86617,9.63353 -4.04999,16.07555 -4.75822,9.62762 -11.87257,16.73774 -21.51712,21.50433 -6.64869,3.28597 -8.41229,3.71151 -16.57555,3.99959 -7.53613,0.26595 -10.29432,-0.0827 -15.75686,-1.99174 z m 229.38791,0.22082 c -12.54836,-4.08959 -24.62029,-16.42478 -28.66707,-29.29221 -1.39931,-4.44936 -1.73562,-8.01213 -1.42555,-15.10174 0.35252,-8.05994 0.85105,-10.1846 3.79579,-16.17685 15.09667,-30.720237 55.49711,-34.504573 75.67936,-7.08893 16.30437,22.14793 7.92502,53.44348 -17.54849,65.5408 -6.63894,3.15281 -8.60033,3.61025 -16.56544,3.8634 -6.95976,0.22119 -10.46662,-0.17948 -15.2686,-1.74447 z"
       id="path3269"
       inkscape:connector-curvature="0" />
    <path
       style="fill:#2e2e2e"
       d="M 145,485.93063 C 106.79599,480.89019 74.194145,464.49175 47.439106,436.85836 26.874215,415.61833 13.938723,393.13602 6.6226869,365.91807 1.1139913,345.424 1,342.9523 1,244 1,145.28271 1.1248388,142.54083 6.5365757,122.39801 13.870733,95.099827 26.965536,72.287349 47.439106,51.141642 74.866922,22.813386 107.89542,6.5089761 147.04586,1.971101 153.4929,1.2238326 186.39879,0.9964856 250.5,1.2563357 c 91.85655,0.3723633 94.22803,0.4303579 104,2.5433253 33.77607,7.303308 59.97588,21.519709 84.07826,45.622082 20.09942,20.099424 32.37487,40.032111 40.69396,66.078257 7.44175,23.29927 7.22778,19.48044 7.22778,129 l 0,98 -2.27678,11.23214 c -6.82299,33.66011 -21.2194,60.42056 -45.64496,84.84612 -24.10156,24.10155 -50.29246,38.31353 -84.07826,45.6234 -9.82132,2.12493 -11.72422,2.16737 -106.5,2.37507 -53.075,0.11631 -99.425,-0.17444 -103,-0.6461 z m 209.5,-10.79481 c 34.78303,-7.85255 61.78976,-23.51617 85.02367,-49.31284 17.33572,-19.24789 29.40436,-43.62465 35.72485,-72.15862 L 477.5,343.5 l 0,-99.5 0,-99.5 -2.25148,-10.16436 C 467.94147,101.34783 455.56627,78.497492 432.53439,55.465611 409.56981,32.501037 386.46652,19.952577 354,12.809986 L 343.5,10.5 l -99.5,0 -99.5,0 -10.5,2.309986 C 105.59078,19.059976 81.692176,30.957484 61.914579,48.696463 36.391173,71.588991 20.721568,98.680994 12.865498,133.5 c -2.238948,9.92327 -2.259056,10.72122 -2.620735,104 -0.3928769,101.32512 -0.23851,105.39227 4.749779,125.14371 15.277066,60.49048 66.938032,106.05823 129.505458,114.23077 3.90645,0.51026 49.64678,0.82697 103.5,0.71663 96.19737,-0.19708 96.53136,-0.20478 106.5,-2.45529 z m -240,-76.19476 C 95.987073,392.39517 84,375.88036 84,356.92066 c 0,-14.11166 6.250751,-26.46776 17.78274,-35.15182 17.43109,-13.12633 41.52331,-11.32541 56.99885,4.26072 17.86688,17.99456 17.47747,44.97284 -0.9022,62.50408 -8.54541,8.15094 -16.69388,11.65489 -28.23787,12.14267 -7.45142,0.31485 -10.25081,-0.006 -15.14152,-1.73525 z m 231,0.72078 C 325.53004,393.01016 313,376.56858 313,357.01624 313,332.80688 332.86117,313 357.13688,313 c 16.99843,0 32.04297,9.83411 39.77563,26 3.41615,7.14179 3.58749,8.00397 3.58749,18.05186 0,10.16175 -0.13747,10.83002 -3.71841,18.07555 -4.78722,9.68629 -11.89264,16.82977 -21.42723,21.54202 -6.48903,3.20705 -8.32389,3.64602 -16.57556,3.9655 -5.98307,0.23165 -10.69956,-0.11399 -13.2788,-0.97309 z M 233.25116,285.48354 c -22.38544,-4.86287 -38.20346,-27.64104 -34.43915,-49.59284 3.27514,-19.09915 18.1903,-33.84371 37.59819,-37.16814 22.37875,-3.83332 45.64891,13.68479 49.63036,37.36245 3.76118,22.36767 -13.24687,45.60574 -36.47422,49.83467 -7.2202,1.31456 -8.40151,1.28298 -16.31518,-0.43614 z M 117.74592,170.91433 c -4.60285,-1.08481 -13.0651,-5.30048 -17.67698,-8.80621 C 94.791311,158.09633 88.3996,148.7108 85.967087,141.4011 84.16021,135.97143 83.844788,133.17518 84.190305,125.64974 84.549953,117.81652 85.094582,115.4928 87.975445,109.5 92.404584,100.28646 100.29423,92.398986 109.5,87.981361 c 5.84072,-2.80282 8.42397,-3.429709 15.59828,-3.78531 18.8442,-0.93403 33.96163,8.029409 42.42555,25.154989 8.14741,16.48516 5.0773,34.82844 -8.15025,48.69615 -10.96298,11.49354 -26.7504,16.37344 -41.62766,12.86714 z m 229.00823,0.065 c -2.06022,-0.52048 -6.37566,-2.27385 -9.58986,-3.89638 -24.47029,-12.35256 -31.78818,-43.66482 -15.28347,-65.3959 14.45947,-19.038176 39.70039,-23.364583 59.52849,-10.203444 6.78861,4.506024 11.74573,10.509704 15.87404,19.225414 2.98992,6.31232 3.21665,7.53478 3.21665,17.34286 0,10.15799 -0.13852,10.83215 -3.71102,18.0606 -4.66958,9.44826 -13.02209,17.69783 -22.32752,22.05237 -5.46976,2.55961 -8.11409,3.15254 -15.28761,3.42788 -4.77062,0.18311 -10.35948,-0.0929 -12.4197,-0.6134 z"
       id="path3267"
       inkscape:connector-curvature="0" />
    <path
       style="fill:#000000"
       d="M 146.67499,485.96522 C 71.628743,477.00944 12.337045,418.71108 2.4930329,344.19878 0.29180749,327.53704 0.29180749,160.46296 2.4930329,143.80122 7.2938503,107.46238 23.057415,75.733078 49.395246,49.395246 73.960683,24.82981 102.13694,10.041851 137.26423,3.278294 145.72505,1.6492118 154.68096,1.5 244,1.5 c 89.31904,0 98.27495,0.1492118 106.73577,1.778294 25.31186,4.8736513 47.30439,14.148914 67.76423,28.579287 10.28411,7.25341 30.38901,27.358305 37.64242,37.642419 14.43037,20.459837 23.70563,42.45237 28.57929,67.76423 C 486.35079,145.72505 486.5,154.68096 486.5,244 c 0,89.31904 -0.14921,98.27495 -1.77829,106.73577 -6.70604,34.82854 -20.99779,62.27908 -45.22171,86.85853 -24.84244,25.20704 -52.5297,39.97831 -88.23824,47.07547 -7.91175,1.57248 -17.92952,1.7593 -103.26176,1.92567 -51.975,0.10134 -97.57125,-0.18226 -101.32501,-0.63022 z m 208.10682,-10.69068 c 19.91779,-4.57395 37.65629,-11.88395 52.93974,-21.81638 35.1648,-22.85295 57.73851,-55.99839 67.55994,-99.19965 C 477.49339,344.52908 477.5,344.20047 477.5,244 477.5,143.79953 477.493,143.47092 475.28149,133.74149 470.48085,112.62507 463.27487,95.241354 452.67151,79.197167 429.4567,44.070327 395.27462,21.267079 352.5,12.371645 344.056,10.615627 337.35307,10.5 244,10.5 151.68037,10.5 143.85314,10.631505 135.53628,12.32229 72.721363,25.092328 26.677234,70.477139 12.748101,133.35224 L 10.5,143.5 l 0,100.5 0,100.5 2.248101,10.14776 C 27.577148,421.58501 78.237407,468.05231 146.5,477.32952 c 1.65,0.22424 47.1,0.33319 101,0.24211 96.13955,-0.16245 98.17621,-0.20606 107.28181,-2.29709 z M 115.7977,399.0692 c -3.13627,-1.00279 -7.64258,-2.96033 -10.01402,-4.35008 C 99.310295,390.92546 91.306338,381.86874 87.701451,374.25853 84.731896,367.98955 84.5,366.73944 84.5,357 c 0,-9.99998 0.172058,-10.86028 3.613065,-18.06545 13.795785,-28.88718 50.110815,-34.74195 71.590005,-11.54187 6.51354,7.0354 10.04466,14.08713 11.59956,23.16457 5.19714,30.34072 -26.28351,57.85517 -55.50493,48.51195 z m 229,0 c -3.13627,-1.00279 -7.64258,-2.96033 -10.01402,-4.35008 -6.47339,-3.79366 -14.47734,-12.85038 -18.08223,-20.46059 -2.97245,-6.2751 -3.20145,-7.51304 -3.20145,-17.30689 0,-10.15707 0.13793,-10.82756 3.71841,-18.07555 4.83033,-9.77806 11.87634,-16.82521 21.65418,-21.65768 7.24553,-3.58094 7.9138,-3.71841 18.07555,-3.71841 9.80701,0 11.03099,0.22695 17.33946,3.21506 18.34605,8.6899 29.18294,28.23353 25.99033,46.87187 -4.44809,25.96776 -31.37587,43.18937 -55.48023,35.48227 z M 235.76915,285.84002 c -7.91644,-1.05442 -15.77806,-5.02799 -22.78798,-11.51794 -7.36093,-6.81492 -11.48782,-13.89215 -13.62858,-23.37171 -5.28464,-23.4011 11.68812,-47.55923 36.5331,-51.99928 12.73505,-2.27588 25.48214,1.86588 36.15559,11.74761 18.02978,16.6924 18.89994,43.79494 1.98047,61.68478 -10.04873,10.62505 -23.63307,15.40377 -38.2526,13.45654 z M 117.10463,170.41748 C 104.64874,167.0679 93.473378,157.51003 87.775053,145.33299 82.118129,133.24442 82.897223,117.857 89.759056,106.14817 93.998976,98.91329 101.66056,92.064515 109.93455,88.113065 117.13972,84.672058 118.00002,84.5 128,84.5 c 9.74862,0 10.98572,0.23007 17.2876,3.215058 18.34605,8.689899 29.18294,28.233532 25.99033,46.871872 -4.35829,25.44352 -29.92262,42.35192 -54.1733,35.83055 z m 229,0 C 333.66251,167.07161 322.5209,157.54485 316.71506,145.2876 313.73007,138.98572 313.5,137.74862 313.5,128 c 0,-9.99998 0.17206,-10.86028 3.61307,-18.06545 4.76505,-9.977608 11.84387,-17.05643 21.82148,-21.821485 C 346.13972,84.672058 347.00002,84.5 357,84.5 c 9.73944,0 10.98955,0.231896 17.25853,3.201451 20.03719,9.491432 30.47212,30.551649 25.18947,50.838449 -6.07805,23.34132 -30.59788,37.99419 -53.34337,31.87758 z"
       id="path3265"
       inkscape:connector-curvature="0" />
  </g>
</svg>
