<?xml version="1.0" encoding="UTF-8" standalone="no"?>
<!-- Created with Inkscape (http://www.inkscape.org/) -->

<svg
   xmlns:dc="http://purl.org/dc/elements/1.1/"
   xmlns:cc="http://creativecommons.org/ns#"
   xmlns:rdf="http://www.w3.org/1999/02/22-rdf-syntax-ns#"
   xmlns:svg="http://www.w3.org/2000/svg"
   xmlns="http://www.w3.org/2000/svg"
   xmlns:sodipodi="http://sodipodi.sourceforge.net/DTD/sodipodi-0.dtd"
   xmlns:inkscape="http://www.inkscape.org/namespaces/inkscape"
   id="svg3075"
   version="1.1"
   inkscape:version="0.48.4 r9939"
   width="488"
   height="488"
   sodipodi:docname="die4.png">
  <metadata
     id="metadata3081">
    <rdf:RDF>
      <cc:Work
         rdf:about="">
        <dc:format>image/svg+xml</dc:format>
        <dc:type
           rdf:resource="http://purl.org/dc/dcmitype/StillImage" />
        <dc:title></dc:title>
      </cc:Work>
    </rdf:RDF>
  </metadata>
  <defs
     id="defs3079" />
  <sodipodi:namedview
     pagecolor="#ffffff"
     bordercolor="#666666"
     borderopacity="1"
     objecttolerance="10"
     gridtolerance="10"
     guidetolerance="10"
     inkscape:pageopacity="0"
     inkscape:pageshadow="2"
     inkscape:window-width="640"
     inkscape:window-height="480"
     id="namedview3077"
     showgrid="false"
     inkscape:zoom="0.48360656"
     inkscape:cx="244"
     inkscape:cy="244"
     inkscape:window-x="53"
     inkscape:window-y="24"
     inkscape:window-maximized="0"
     inkscape:current-layer="svg3075" />
  <g
     id="g3226">
    <path
       style="fill:#fefefe"
       d="M 0,244 0,0 l 244,0 244,0 0,244 0,244 -244,0 -244,0 0,-244 z"
       id="path3242"
       inkscape:connector-curvature="0" />
    <path
       style="fill:#d0d0d0"
       d="M 148.5,486.92533 C 91.905036,480.83809 41.843989,445.65962 17.131862,394.61142 11.382155,382.73417 7.7909299,372.58497 4.1942057,358.04819 L 1.5843498,347.5 1.243222,249.5 C 0.88207861,145.74988 0.96613653,143.36119 5.6289337,124.87067 13.00042,95.638726 27.83256,69.932726 49.982648,48 62.959755,35.150239 75.694408,25.95999 91.5,18.038068 110.81341,8.3579953 128.42452,3.2321046 149.85595,1.0529812 163.23088,-0.30696505 325.92084,-0.33619586 339,1.0189974 c 35.49196,3.6774876 67.31242,17.6627136 94,41.3133936 25.25688,22.38279 44.76344,55.707557 51.39168,87.796919 3.51823,17.03283 3.73888,25.01029 3.32937,120.37069 -0.43803,102.00184 -0.22101,97.83073 -6.1648,118.49098 -15.22769,52.93052 -58.74431,96.52131 -111.80128,111.99182 -22.507,6.56266 -18.09023,6.32122 -120.25497,6.57342 -51.15,0.12626 -96.6,-0.15764 -101,-0.63089 z M 350.54903,474.99162 C 412.40917,464.4161 462.09499,416.47305 474.38425,355.5 c 3.20822,-15.91758 3.58109,-27.52721 3.58109,-111.5 0,-83.97279 -0.37287,-95.58242 -3.58109,-111.5 C 462.07474,71.4265 412.30824,23.501894 350.25216,12.962149 338.64639,10.990998 335.10534,10.936636 239.88085,11.267734 142.47878,11.606403 141.41046,11.631705 132.5,13.811 101.96707,21.278655 79.654987,33.122681 58.691092,52.991317 35.664503,74.814882 20.98502,101.30834 13.805832,134 L 11.5,144.5 l 0,99.5 0,99.5 2.309986,10.5 c 7.235883,32.89057 21.700586,58.98413 44.975293,81.13303 11.277324,10.73184 22.403008,18.62607 35.955128,25.51197 14.586223,7.41134 34.508213,13.56008 50.759593,15.66649 1.65,0.21387 45.81778,0.45627 98.15063,0.53868 91.09596,0.14345 95.65123,0.0643 106.8984,-1.85855 z m -232.09048,-74.3865 c -17.45653,-4.24097 -31.43773,-19.33958 -34.579458,-37.34315 -1.355157,-7.76567 0.05628,-16.92821 3.861368,-25.06652 3.45968,-7.39956 13.92837,-17.95165 21.42261,-21.59327 22.208,-10.79138 48.57904,-1.0087 59.62182,22.11749 3.55695,7.4491 3.71511,8.22735 3.71511,18.28033 0,10.0124 -0.16887,10.85362 -3.63647,18.11473 -9.43058,19.74753 -30.39797,30.35098 -50.40498,25.49039 z M 347.5,400.5789 c -22.51272,-5.63271 -38.0341,-28.02251 -34.54311,-49.8289 3.90167,-24.37179 27.59698,-41.9773 51.07802,-37.95075 16.99182,2.91378 30.30467,14.47218 35.99884,31.25471 4.96246,14.62593 0.26766,32.9833 -11.32124,44.26782 C 377.0433,399.68449 361.91187,404.18477 347.5,400.5789 z M 118.5,171.61103 C 96.111164,166.15317 80.188133,142.96796 83.958649,121.31606 85.57304,112.04554 89.203307,104.92484 96.042611,97.613602 110.41037,82.254426 130.02785,78.854737 148.91637,88.450635 c 16.99434,8.633603 27.33932,30.428115 23.096,48.658025 -5.61778,24.1348 -30.42628,40.1302 -53.51237,34.50237 z m 229,0 c -22.10416,-5.38847 -38.01199,-28.28418 -34.5571,-49.7371 4.17,-25.893338 30.43967,-43.956903 54.5571,-37.514576 27.84696,7.438571 42.1769,36.837136 30.22413,62.006256 -9.19106,19.35377 -30.48509,30.05732 -50.22413,25.24542 z"
       id="path3240"
       inkscape:connector-curvature="0" />
    <path
       style="fill:#ababab"
       d="M 151,486.93066 C 101.53637,482.82012 54.852218,454.69933 27.43542,412.5 16.25523,395.2917 8.5256046,376.48191 3.8065805,355 L 1.5,344.5 1.5,244 1.5,143.5 3.8065805,133 C 15.140371,81.406395 46.819503,40.336092 92.948885,17.431762 112.09293,7.926289 130.59534,2.8408697 152.69846,1.0094873 167.78966,-0.24091301 319.57774,-0.2597396 335.6018,0.98680146 410.83693,6.8394799 471.15156,61.592525 485.72171,137.26423 487.35079,145.72505 487.5,154.68096 487.5,244 c 0,89.31904 -0.14921,98.27495 -1.77829,106.73577 -6.61001,34.32982 -21.01305,62.28821 -44.62527,86.62416 -28.51408,29.38804 -64.8529,46.49167 -105.49464,49.65327 -14.41532,1.12139 -170.95672,1.0514 -184.6018,-0.0825 z m 183.6933,-9.92441 c 39.31201,-3.05759 70.72378,-17.33007 97.85129,-44.46041 18.3368,-18.33871 29.63158,-36.57692 37.48275,-60.52515 C 477.64376,348.7885 477.5,351.25135 477.5,244 477.5,136.74865 477.64376,139.2115 470.02734,115.97931 462.21077,92.136612 450.70086,73.538934 432.57271,55.460196 405.37508,28.336697 373.91469,14.044295 334.6933,10.993747 318.69838,9.7496994 170.12221,9.7651286 154,11.012511 132.19527,12.699554 113.5698,17.677606 95.931138,26.532644 52.631449,48.270143 23.156418,87.162898 13.32229,135.53628 11.631505,143.85314 11.5,151.68037 11.5,244 c 0,110.24665 -0.266863,105.18274 6.690847,126.96372 18.882973,59.11279 71.440186,100.82915 133.477733,105.94559 13.98636,1.1535 168.3889,1.23528 183.02472,0.0969 z M 120.10833,400.9184 c -7.8103,-1.53386 -16.86456,-6.51405 -22.980237,-12.64001 -17.718038,-17.74786 -17.868384,-44.6981 -0.347099,-62.21938 18.188506,-18.18851 44.550916,-18.34328 62.527096,-0.3671 18.2939,18.29391 17.97525,45.58831 -0.73657,63.09231 -11.49794,10.75575 -24.53674,14.86917 -38.46319,12.13418 z M 349,400.90205 C 336.23128,398.4084 322.99066,387.92394 316.92025,375.5 313.62955,368.76515 313.5,368.0636 313.5,356.97897 c 0,-11.09867 0.12573,-11.77687 3.42971,-18.5 8.80515,-17.91725 28.4217,-28.70486 46.69247,-25.67729 25.87854,4.28821 43.27001,29.99575 36.88258,54.51872 -2.19022,8.40882 -5.0589,13.38839 -11.69294,20.29706 C 377.95044,398.92845 363.53126,403.73991 349,400.90205 z M 119.25116,171.48354 C 101.50654,167.62881 86.515778,151.71819 84.170235,134.25 80.9603,110.34432 97.651031,87.968653 121.7793,83.831114 c 28.30299,-4.853425 55.36496,22.346366 50.49863,50.755816 -3.16363,18.46918 -19.07027,34.38926 -37.31839,37.34993 -7.76235,1.25941 -7.8336,1.25735 -15.70838,-0.45332 z m 229,0.0345 c -13.203,-2.94107 -25.26694,-12.6213 -31.42518,-25.21589 -3.18191,-6.50752 -3.32598,-7.30123 -3.32598,-18.3232 0,-11.01291 0.14553,-11.81665 3.29983,-18.22393 6.55207,-13.309141 18.74869,-22.927546 32.67944,-25.771404 21.18338,-4.32443 43.75649,9.851737 50.51146,31.721764 4.52041,14.63538 0.85439,30.12909 -9.83352,41.55938 -11.7425,12.55815 -26.69107,17.64253 -41.90605,14.25328 z"
       id="path3238"
       inkscape:connector-curvature="0" />
    <path
       style="fill:#949494"
       d="M 153.5,486.92554 C 77.339918,481.96731 13.143838,421.99887 2.5294892,345.89721 0.25472844,329.58786 0.25970911,157.88111 2.5353999,142.12834 12.459258,73.433452 63.238618,19.249308 132.15628,3.8163101 L 142.5,1.5 244,1.5 c 95.47893,0 102.03389,0.1115138 110.5,1.8798398 20.34054,4.2485507 41.0563,12.6422802 57.24767,23.1959362 42.94311,27.990649 69.56375,71.133431 75.23159,121.924224 1.33827,11.99255 1.33827,179.00745 0,191 -4.54137,40.69626 -21.76169,75.17047 -51.70303,103.50689 -27.80122,26.31101 -63.19927,41.48046 -102.77623,44.04362 -16.78348,1.08696 -161.94091,0.98562 -179,-0.12497 z m 184.64405,-9.97852 c 36.45872,-3.70708 66.98559,-17.65121 92.55204,-42.27612 25.85951,-24.90717 41.19656,-55.18383 45.81986,-90.45234 2.14672,-16.37612 2.15293,-184.39977 0.007,-200.51953 -4.59075,-34.49127 -18.64449,-62.852064 -43.49077,-87.765472 -26.75911,-26.83139 -56.7127,-40.998902 -94.88854,-44.880577 -13.93214,-1.4166032 -173.35596,-1.4166032 -187.2881,0 C 82.47159,18.006223 30.161626,63.777303 14.344663,130.5 l -2.844663,12 0,101.5 0,101.5 2.844663,12 C 30.019627,423.62369 82.402399,469.89986 149.5,476.89942 c 12.09526,1.26176 176.29539,1.3032 188.64405,0.0476 z M 121,400.87388 C 107.75536,398.72695 94.159657,388.25871 87.847719,375.34772 84.6418,368.79005 84.5,368.01289 84.5,357 c 0,-11.06069 0.130657,-11.76741 3.420245,-18.5 8.786088,-17.98193 28.461935,-28.72847 46.763695,-25.54135 3.68935,0.64247 9.20723,2.34293 12.26198,3.7788 7.20505,3.3867 17.8416,13.99572 21.42396,21.3685 7.91108,16.28166 4.87934,34.95003 -7.92124,48.77618 C 150.1644,397.99034 135.43663,403.21402 121,400.87388 z m 229.04267,-0.0128 c -11.39492,-1.88822 -22.93202,-9.46769 -29.52082,-19.39413 -15.36135,-23.14285 -6.53856,-53.15649 19.1453,-65.12904 16.27961,-7.58876 33.76572,-4.34815 47.90437,8.87786 18.31941,17.13691 19.10688,43.05615 1.87365,61.6701 -10.27873,11.10225 -25.0735,16.34964 -39.4025,13.97521 z M 121.9854,171.86703 C 106.00686,169.73361 91.238572,157.24191 85.967087,141.4011 84.16021,135.97143 83.844788,133.17518 84.190305,125.64974 84.549953,117.81652 85.094582,115.4928 87.975445,109.5 94.419471,96.095076 107.22485,86.445772 122.03137,83.837654 c 22.15177,-3.901956 45.81855,13.570986 50.18515,37.051176 2.33941,12.57956 -2.10756,26.55901 -11.76788,36.9933 -10.16444,10.97881 -23.81233,15.94107 -38.46324,13.9849 z m 228.91766,-0.0103 c -16.17417,-2.1575 -30.98381,-14.96653 -36.13384,-31.25257 -3.05008,-9.64535 -2.17436,-21.99165 2.20622,-31.10418 6.57692,-13.681352 19.72944,-23.40425 34.81939,-25.739956 27.71055,-4.289194 54.25393,22.975006 49.4831,50.826886 -3.37821,19.72189 -20.74991,35.95141 -40.27793,37.62967 -2.475,0.2127 -7.01862,0.0508 -10.09694,-0.35985 z"
       id="path3236"
       inkscape:connector-curvature="0" />
    <path
       style="fill:#727272"
       d="M 145.5,486.33071 C 106.79799,481.09275 73.83028,464.27601 46.40573,435.78298 24.902068,413.44152 11.002326,386.75642 3.8065805,354 L 1.5,343.5 1.5,244 1.5,144.5 3.8065805,134 C 10.98072,101.34193 24.966636,74.4914 46.40573,52.217024 71.079647,26.581794 98.540526,11.242057 133.20468,3.7308443 143.47354,1.5057328 143.75955,1.5 244.5,1.5 l 101,0 10.39887,2.3281175 c 37.77671,8.4575155 69.28943,27.2666545 93.00254,55.5108465 21.82583,25.99629 34.5676,56.311136 38.04561,90.516986 1.41701,13.93615 1.41701,174.35195 0,188.2881 -5.81884,57.22762 -39.73976,106.6462 -90.44702,131.7701 -13.85682,6.86563 -22.60981,10.04712 -38,13.81204 l -11,2.69094 -99.5,0.1598 c -54.725,0.0879 -100.85,-0.0229 -102.5,-0.24622 z m 193.64405,-9.37696 c 57.85271,-5.84482 107.22626,-42.99321 128.19571,-96.45375 4.48883,-11.44406 7.2195,-21.96227 9.1847,-35.3784 1.34371,-9.17339 1.50767,-23.64259 1.20251,-106.1216 -0.3428,-92.65119 -0.41608,-95.78645 -2.45639,-105.10246 C 461.98884,73.253369 419.01413,28.862043 359.65115,14.466824 341.95083,10.174589 331.5175,9.819413 236,10.257438 157.08676,10.619319 145.49455,10.867772 138,12.357848 104.01753,19.114283 78.090923,32.739706 55,55.977516 33.057221,78.05988 18.227664,106.92145 12.943964,137.82777 11.112313,148.54179 11,154.67589 11,244 c 0,89.32411 0.112313,95.45821 1.943964,106.17223 11.595263,67.82501 65.88509,118.7585 135.056036,126.70652 11.09979,1.27541 178.61166,1.34113 191.14405,0.075 z M 114,399.00874 c -17.917346,-6.61065 -30,-23.47475 -30,-41.87186 0,-21.77044 16.06228,-40.52651 37.6886,-44.00933 28.52687,-4.59412 55.58342,22.56355 50.41659,50.60499 -2.65337,14.40033 -12.68961,27.33907 -26.10519,33.65486 -5.66684,2.66783 -7.78179,3.09791 -16.5,3.35532 -8.09096,0.23889 -11.04997,-0.0921 -15.5,-1.73398 z m 229.41595,0.0903 c -11.76632,-4.31505 -20.85063,-12.62476 -26.27955,-24.03874 -4.71626,-9.91564 -5.49914,-21.13955 -2.16275,-31.00638 5.65565,-16.72561 19.12772,-28.30416 36.05429,-30.9868 28.26224,-4.47919 55.21819,22.76449 50.08557,50.62021 -2.68653,14.58031 -11.67193,26.514 -24.87778,33.04069 -7.02691,3.47288 -8.25719,3.75069 -17.64466,3.98433 -7.83332,0.19496 -11.22856,-0.16599 -15.17512,-1.61331 z m -229,-229 C 102.66131,165.78831 93.564581,157.47275 88.149745,146.08845 75.908449,120.35201 91.520099,90.37109 120.28607,84.373213 c 23.37816,-4.874484 47.25999,12.150971 51.82926,36.949287 3.30593,17.94194 -7.61667,37.91302 -25.55743,46.72964 -6.32096,3.10631 -7.84205,3.43392 -17,3.66148 -7.79922,0.1938 -11.19961,-0.16877 -15.14195,-1.61454 z M 343,169.84817 c -11.98682,-4.70409 -20.04264,-12.11043 -25.76492,-23.68766 -3.14399,-6.36088 -3.67906,-8.49423 -4.01296,-16 -0.29411,-6.61118 0.0717,-10.10493 1.54605,-14.76469 6.62701,-20.945303 27.77594,-34.63761 48.5276,-31.417879 9.16222,1.421566 16.51849,5.025374 23.49807,11.511605 7.59335,7.056614 11.83158,14.339094 13.90467,23.892134 1.43978,6.63468 1.50814,8.78723 0.47113,14.8346 -2.51869,14.68791 -12.51759,27.744 -26.16964,34.17112 -5.67983,2.67395 -7.76179,3.09534 -16.5,3.33963 -8.3225,0.23266 -10.92263,-0.0825 -15.5,-1.87886 z"
       id="path3234"
       inkscape:connector-curvature="0" />
    <path
       style="fill:#4d4d4d"
       d="M 140.62761,485.443 C 69.815568,474.30004 13.697991,418.10322 2.879114,347.5 c -2.01687286,-13.16197 -2.01687286,-193.83803 0,-207 C 7.8914584,107.7898 23.067032,76.879116 45.98617,52.696501 69.998201,27.360743 98.261456,11.514058 133.25097,3.768738 L 143.5,1.5 l 100,0 100,0 11.22776,2.2759449 C 421.87413,17.386983 472.95937,69.699963 485.31344,137.5 487.46211,149.29203 487.5,151.13777 487.5,244 c 0,92.86223 -0.0379,94.70797 -2.18656,106.5 -12.3217,67.62239 -62.73969,119.45625 -130.04796,133.70005 -10.74483,2.27382 -10.95252,2.27853 -108.26548,2.45865 -79.22381,0.14664 -99.16311,-0.0812 -106.37239,-1.2157 z m 199.83187,-8.48577 c 47.40229,-5.43018 87.559,-29.97976 112.79607,-68.95723 10.54312,-16.28335 17.54848,-33.27489 21.99635,-53.35224 L 477.5,344.5 l 0,-100.5 0,-100.5 -2.2481,-10.14776 C 466.07403,91.924 443.74747,58.76633 409.60808,35.863154 389.26329,22.214399 366.42704,14.01749 340.45948,11.042767 328.27526,9.6469988 161.15555,9.6511045 148.21059,11.04749 103.17214,15.905829 61.735212,40.647886 37.208293,77.327141 21.621781,100.63629 13.350535,124.44783 11.004092,152.76466 c -1.2652661,15.26921 -1.2652661,167.20147 0,182.47068 3.113803,37.57732 18.053134,70.70389 43.443982,96.33297 24.940335,25.17435 54.789076,40.14705 89.551926,44.92098 12.07286,1.65795 182.52729,2.06395 196.45948,0.46794 z m -224.97254,-77.756 C 103.20601,394.95459 93.993803,386.81313 88.196253,375.08259 84.640626,367.88826 84.5,367.20227 84.5,357.05186 c 0,-10.05956 0.16857,-10.90483 3.613065,-18.11731 5.705732,-11.9473 15.213245,-20.31427 27.740455,-24.41262 8.58937,-2.81006 21.73194,-1.84469 30.44809,2.23653 17.58578,8.23431 28.6801,28.20742 25.75549,46.36761 -3.50704,21.77674 -22.27899,37.93451 -43.96365,37.84128 -4.52753,-0.0195 -9.61752,-0.73255 -12.60651,-1.76612 z m 229,0.0559 c -7.70587,-2.75063 -13.52334,-6.54507 -19.14052,-12.48441 -9.07784,-9.59848 -12.94471,-20.21336 -12.06089,-33.10812 1.20873,-17.63497 13.89017,-33.35931 31.56799,-39.14272 8.4554,-2.76623 21.74597,-1.83986 30.14648,2.10126 13.55184,6.35787 23.55833,19.43023 26.12302,34.12681 3.11495,17.8498 -7.90106,37.74682 -25.62302,46.28005 -6.1667,2.96931 -8.13091,3.409 -16.5,3.69355 -7.23108,0.24585 -10.69729,-0.10438 -14.51306,-1.46642 z m -229,-229.05595 C 103.45442,166.04049 93.174281,156.81212 87.701451,145.25853 84.731896,138.98955 84.5,137.73944 84.5,128 c 0,-10.06287 0.155485,-10.82563 3.734798,-18.32178 10.99721,-23.031438 36.813302,-32.259808 59.339842,-21.211967 12.72731,6.241939 22.19021,19.174107 24.49289,33.472427 2.53305,15.72881 -5.99085,34.02834 -20.05382,43.05253 -10.50789,6.74289 -25.79009,8.92268 -36.52677,5.21002 z m 229,0 c -7.60865,-2.63101 -13.48034,-6.44366 -19.14052,-12.42846 -16.87733,-17.84529 -16.30141,-43.96504 1.35248,-61.339114 25.28556,-24.884779 68.17147,-10.554017 74.33503,24.839804 2.8176,16.17982 -5.5372,34.42401 -20.02022,43.71775 -10.50789,6.74289 -25.79009,8.92268 -36.52677,5.21002 z"
       id="path3232"
       inkscape:connector-curvature="0" />
    <path
       style="fill:#2d2d2d"
       d="M 144.16486,485.82251 C 104.61205,480.86486 64.413244,458.57028 39.004984,427.5 17.930115,401.72877 5.7295175,372.43381 2.0593106,338.78941 0.62269629,325.62012 0.62600829,162.33711 2.0631559,149.21059 6.507506,108.61706 24.062048,72.937409 53.039019,45.602002 75.321604,24.58174 101.07765,11.246422 133.71208,3.8331347 143.37887,1.6372096 144.65706,1.6050233 237,1.2322145 304.18408,0.96097747 333.57253,1.1857758 341.41665,2.030919 400.02031,8.3450115 451.6308,46.9414 474.5798,101.61565 c 5.02553,11.97293 9.65634,28.60301 11.33519,40.70671 1.49619,10.7868 1.49619,192.56848 0,203.35528 -8.07569,58.22175 -47.97611,108.47265 -103.41499,130.24163 -5.5,2.15966 -13.72534,4.87419 -18.27852,6.03227 -19.19483,4.88212 -22.57182,5.01922 -120.72148,4.9011 -50.6,-0.0609 -95.30081,-0.52445 -99.33514,-1.03013 z M 354,475.26615 c 27.95469,-6.17556 49.60453,-16.70745 70.6707,-34.37882 C 450.02363,419.62001 468.43125,388.05125 475.62592,353.5 477.3859,345.04797 477.5,338.38099 477.5,244 477.5,149.61901 477.3859,142.95203 475.62592,134.5 462.46424,71.293123 414.56126,24.160291 351.5,12.369704 342.16638,10.624592 335.00284,10.5 244,10.5 134.60136,10.5 139.15813,10.234093 115.88772,17.975909 60.069932,36.545888 21.164456,82.927277 11.838525,142.01876 10.789767,148.66396 10.5,170.95756 10.5,245 10.5,348.27122 10.369545,345.61153 16.487226,367.06623 32.919311,424.69354 83.198381,468.19049 143,476.51378 c 7.44069,1.0356 30.30992,1.27115 105.5,1.08663 93.36048,-0.22911 96.2612,-0.29329 105.5,-2.33426 z M 117.74592,399.91433 c -10.07274,-2.37397 -22.94212,-12.34684 -28.054793,-21.7405 -5.681672,-10.4391 -7.076257,-22.54521 -3.807131,-33.04893 2.611402,-8.39045 5.982948,-13.76319 12.511334,-19.93746 7.85053,-7.42471 16.77247,-11.41212 26.83877,-11.99485 18.74034,-1.08486 34.4731,8.31233 43.03637,25.70567 4.10881,8.34563 5.02454,21.57593 2.13033,30.77859 -4.13187,13.13799 -16.21208,25.33129 -29.01371,29.28531 -6.94761,2.1459 -16.87899,2.54589 -23.64117,0.95217 z M 344.7977,399.0692 c -8.1965,-2.62074 -13.81867,-6.21757 -19.59116,-12.53359 -16.67449,-18.24455 -15.94056,-44.03881 1.73271,-60.89626 8.25389,-7.87287 16.97388,-11.84929 27.29485,-12.44676 28.12597,-1.62819 50.38248,22.25414 46.58904,49.99232 -3.57143,26.11489 -31.21142,43.8183 -56.02544,35.88429 z m -229,-228.93513 c -8.13782,-2.69456 -13.57949,-6.15275 -19.451284,-12.3613 C 85.217899,146.006 81.404383,130.60932 85.964126,115.85534 89.850349,103.28066 97.916106,93.976563 110,88.129218 117.2284,84.631425 117.89834,84.5 128.5,84.5 c 10.49148,0 11.3236,0.158115 18,3.420245 9.1156,4.453941 17.07272,12.406795 21.57029,21.558725 3.30398,6.72313 3.42971,7.40133 3.42971,18.5 0,11.00972 -0.14682,11.82126 -3.30818,18.2859 -4.59468,9.39563 -12.16898,16.87307 -21.6548,21.37786 -6.5351,3.10351 -8.83414,3.66636 -16.32178,3.9959 -6.65805,0.29303 -10.06124,-0.0621 -14.41754,-1.50456 z m 228.05851,-0.45028 c -7.99701,-2.72584 -13.53282,-6.418 -19.38949,-12.93203 -19.69553,-21.90617 -12.67924,-55.14717 14.47252,-68.566294 7.23642,-3.57643 7.78463,-3.685466 18.52992,-3.685466 10.58827,0 11.37834,0.150107 18.05187,3.429707 28.12493,13.821563 34.42958,49.602453 12.52268,71.070293 -12.17586,11.93183 -28.7613,15.94191 -44.1875,10.68379 z"
       id="path3230"
       inkscape:connector-curvature="0" />
    <path
       style="fill:#000000"
       d="m 149.5,486.30668 c -8.14276,-0.72696 -25.78687,-4.45815 -34.7554,-7.34971 C 102.08714,474.87606 81.440267,464.39281 70.031566,456.25435 58.394746,447.95317 41.527644,431.30554 33.5,420.19813 17.043073,397.42758 6.7755769,372.38756 2.7964804,345.31942 0.92663821,332.59966 0.92663821,155.40034 2.7964804,142.68058 8.0806873,106.73432 24.211159,74.743016 50.031566,49 63.178579,35.892392 75.770132,26.851592 92.5,18.507443 107.06199,11.244541 118.75891,7.1732502 134.70053,3.8189054 145.40121,1.5673306 146.337,1.5434125 237,1.204199 332.006,0.84873617 341.77483,1.154112 359,5.0179485 421.8846,19.123804 470.28218,68.632312 484.2583,133.15145 486.49705,143.48638 486.5,143.63228 486.5,244 c 0,100.36772 -0.003,100.51362 -2.2417,110.84855 -7.69664,35.53065 -24.59499,65.1927 -50.85286,89.26317 -25.57745,23.44672 -56.91336,37.65232 -92.37921,41.87852 -7.78692,0.92791 -181.463,1.21486 -191.52623,0.31644 z m 205.57703,-11.09002 c 31.67079,-7.23253 56.43511,-20.62443 77.97225,-42.16535 27.18694,-27.19171 42.12419,-60.0777 44.97478,-99.01686 1.19337,-16.30149 1.19337,-163.76741 0,-180.0689 C 475.93093,125.3733 467.62425,100.97763 452.08581,77.788178 429.59795,44.227471 396.23041,21.967759 354.56465,12.731163 344.52218,10.504918 344.27959,10.5 244.5,10.5 144.79404,10.5 144.46973,10.5066 134.20468,12.730844 103.37175,19.411888 79.178269,32.174834 57.384208,53.256461 30.872651,78.901372 15.074181,111.2822 11.056483,148.21059 c -1.4289782,13.13435 -1.4289782,178.44447 0,191.57882 2.530105,23.25529 11.224696,48.70735 22.755247,66.61243 15.12424,23.4855 38.596763,44.47788 62.776291,56.14325 14.768709,7.12514 34.987699,13.05301 50.411979,14.77997 1.925,0.21552 47.375,0.3214 101,0.23527 96.40991,-0.15485 97.60708,-0.18106 107.07703,-2.34367 z M 117,399.39685 c -21.153258,-5.65957 -36.09957,-28.62798 -32.21652,-49.50802 5.311875,-28.56315 35.85719,-44.82968 61.40164,-32.69868 17.10361,8.12247 26.59157,23.79035 25.6197,42.30694 -1.43167,27.27693 -28.45384,46.94998 -54.80482,39.89976 z m 229.02424,6e-5 c -16.01437,-4.30345 -29.00867,-18.72741 -32.12943,-35.66437 -3.80129,-20.63039 10.00359,-42.24212 31.19615,-48.83798 20.62832,-6.42026 43.23667,4.346 52.7196,25.10544 3.41473,7.47532 4.20995,21.37512 1.66751,29.14648 -7.56492,23.12329 -30.87865,36.31693 -53.45383,30.25043 z M 117,170.39685 C 95.846742,164.73728 80.90043,141.76887 84.78348,120.88883 86.379747,112.30534 90.171974,105.00837 96.702173,97.954972 108.06807,85.678447 125.01188,81.015621 140.63104,85.866036 c 25.76489,8.001101 38.72631,36.839414 27.11599,60.331304 -9.70027,19.62717 -30.59507,29.59118 -50.74703,24.19951 z m 229,0 c -20.98306,-5.61403 -35.91728,-28.4404 -32.11351,-49.08422 0.67771,-3.67805 2.41067,-9.19055 3.85103,-12.25 3.67011,-7.79562 13.41971,-17.305371 21.72765,-21.193125 18.8164,-8.805256 41.9512,-2.109697 54.0072,15.630495 5.38481,7.92366 7.52763,14.88596 7.52763,24.45828 0,28.49507 -27.57878,49.77513 -55,42.43857 z"
       id="path3228"
       inkscape:connector-curvature="0" />
  </g>
</svg>
