<?xml version="1.0" encoding="UTF-8" standalone="no"?>
<!-- Created with Inkscape (http://www.inkscape.org/) -->
<svg xmlns:dc="http://purl.org/dc/elements/1.1/" xmlns:cc="http://creativecommons.org/ns#" xmlns:rdf="http://www.w3.org/1999/02/22-rdf-syntax-ns#" xmlns:svg="http://www.w3.org/2000/svg" xmlns="http://www.w3.org/2000/svg" xmlns:sodipodi="http://sodipodi.sourceforge.net/DTD/sodipodi-0.dtd" xmlns:inkscape="http://www.inkscape.org/namespaces/inkscape" id="svg3105" version="1.1" inkscape:version="0.48.4 r9939" width="487" height="488" sodipodi:docname="die1.png">
  <metadata id="metadata3111">
    <rdf:RDF>
      <cc:Work rdf:about="">
        <dc:format>image/svg+xml</dc:format>
        <dc:type rdf:resource="http://purl.org/dc/dcmitype/StillImage"/>
        <dc:title/>
      </cc:Work>
    </rdf:RDF>
  </metadata>
  <defs id="defs3109"/>
  <sodipodi:namedview pagecolor="#ffffff" bordercolor="#666666" borderopacity="1" objecttolerance="10" gridtolerance="10" guidetolerance="10" inkscape:pageopacity="0" inkscape:pageshadow="2" inkscape:window-width="640" inkscape:window-height="480" id="namedview3107" showgrid="false" inkscape:zoom="0.48360656" inkscape:cx="243.5" inkscape:cy="244" inkscape:window-x="53" inkscape:window-y="24" inkscape:window-maximized="0" inkscape:current-layer="svg3105"/>
  <g id="g3115">
    <path style="fill:#fefefe" d="M 0,244 0,0 243.5,0 487,0 l 0,244 0,244 -243.5,0 L 0,488 0,244 z" id="path3131" inkscape:connector-curvature="0"/>
    <path style="fill:#d0d0d0" d="M 147.5,486.92533 C 74.14557,479.03548 14.402442,423.0465 2.0139014,350.58131 0.09236887,339.34155 0,334.45314 0,244 0,153.54686 0.09236887,148.65845 2.0139014,137.41869 12.228046,77.672346 55.33292,27.642745 113,8.6028535 138.73888,0.10466722 144.00715,-0.21222394 251.5,0.27194977 350.12832,0.7161955 346.41433,0.50363707 368.60971,6.974359 430.31314,24.963047 476.20671,78.0434 485.4646,142.12834 c 2.28151,15.79308 2.28151,187.95024 0,203.74332 -9.25789,64.08494 -55.15146,117.16529 -116.85489,135.15398 -22.34195,6.51345 -18.02207,6.27857 -120.10971,6.53058 -51.15,0.12626 -96.6,-0.15764 -101,-0.63089 z M 349.54903,474.99162 C 415.11226,463.78303 464.84083,412.72526 475.18258,346 c 1.89693,-12.23901 1.91021,-191.63094 0.0151,-204 C 464.9897,75.373936 414.96731,24.12336 349.25216,12.962149 337.64639,10.990998 334.10534,10.936636 238.88085,11.267734 141.47647,11.606411 140.41067,11.631655 131.5,13.811151 98.224858,21.950048 73.814818,35.718197 51.991317,58.656937 34.677792,76.855229 22.201277,99.056043 15.438667,123.69903 10.249912,142.60687 10.039045,147.30488 10.039045,244 c 0,96.69512 0.210867,101.39313 5.399622,120.30097 16.444922,59.92537 67.223588,103.99547 129.061333,112.01052 1.65,0.21387 45.81778,0.45627 98.15063,0.53868 91.09596,0.14345 95.65123,0.0643 106.8984,-1.85855 z M 228.14734,285.00229 c -23.27431,-8.37265 -36.19563,-32.60393 -29.26334,-54.87739 2.6114,-8.39045 5.98294,-13.76319 12.51133,-19.93746 17.74007,-16.77782 44.51158,-16.45973 61.67496,0.73281 16.74826,16.7767 18.04121,40.96234 3.18927,59.65765 -10.96641,13.80427 -32.16719,20.16042 -48.11222,14.42439 z" id="path3129" inkscape:connector-curvature="0"/>
    <path style="fill:#ababab" d="M 150,486.93066 C 93.544531,482.23908 42.179388,446.94204 16.947761,395.5 10.214324,381.77192 6.1184794,370.0387 2.8099862,355 L 0.5,344.5 0.5,244 0.5,143.5 2.8099862,133 C 12.372443,89.534025 36.119453,53.814985 71.817122,29.202988 91.345927,15.738723 112.67938,7.1070349 138.38822,2.267777 145.13531,0.99774979 160.96825,0.66612321 232.5,0.29657167 288.42763,0.0076351 323.57034,0.22743033 333,0.92513494 375.45308,4.0662576 411.74582,21.134897 441.09425,51.762346 c 25.45574,26.565122 40.98562,59.505614 44.80067,95.026874 1.51437,14.10004 1.51437,180.32152 0,194.42156 C 482.07711,376.75776 466.37226,410.0433 441,436.36301 411.9646,466.48265 375.52445,483.82975 334.6018,487.0132 320.18648,488.13459 163.64508,488.0646 150,486.93066 z m 183.6933,-9.92441 c 39.31919,-3.05815 70.87161,-17.38778 97.84308,-44.43574 22.69406,-22.75841 36.25951,-48.13114 42.68768,-79.84275 C 476.49965,341.50173 476.5,341.48495 476.5,244 c 0,-97.48495 -3.5e-4,-97.50173 -2.27594,-108.72776 C 467.79589,103.56063 454.23044,78.187902 431.53638,55.429486 404.56491,28.381533 373.01249,14.051902 333.6933,10.993747 317.69838,9.7496994 169.12221,9.7651286 153,11.012511 137.60277,12.203803 127.59805,14.174208 114.08272,18.677177 68.397857,33.89823 32.533969,70.097528 17.661659,116 10.153953,139.17207 10.5,132.98719 10.5,244 l 0,99.5 2.335108,10.91145 c 14.62175,68.32425 69.90474,117.2478 138.443712,122.51793 14.77193,1.13585 167.96897,1.20041 182.41448,0.0769 z M 228.54934,284.88677 c -22.04162,-7.57941 -35.43473,-30.32135 -30.48945,-51.77211 2.92069,-12.66884 13.13475,-25.19514 25.44011,-31.1992 6.67327,-3.25604 7.51344,-3.41546 18,-3.41546 10.58859,0 11.28497,0.13609 18.61929,3.63863 22.66869,10.82557 32.30712,36.39434 22.01225,58.39398 -3.43068,7.33118 -11.50094,16.42749 -17.90333,20.17954 -10.78255,6.31899 -24.70541,7.94804 -35.67887,4.17462 z" id="path3127" inkscape:connector-curvature="0"/>
    <path style="fill:#959595" d="M 153,486.98897 C 74.383936,481.54854 10.858125,420.94275 1.0528539,342.02623 c -1.43180498,-11.5237 -1.43180498,-184.52876 0,-196.05246 C 5.4137698,110.87547 19.499368,80.108946 42.888283,54.594563 66.136524,29.233637 93.938704,12.965197 129,4.2063063 L 139.5,1.583233 238.88284,1.2547861 c 95.18207,-0.31456388 99.87389,-0.2450344 111,1.6449432 33.62143,5.7112251 63.5316,21.3381427 88.1206,46.0396297 15.21084,15.280428 23.05428,26.180818 32.0639,44.560641 7.42832,15.15396 11.70102,28.20588 14.59116,44.57205 1.70346,9.64627 1.8415,17.6241 1.8415,106.42795 0,87.51315 -0.15615,96.83984 -1.76627,105.5 -3.17393,17.07112 -7.75021,30.7485 -15.39105,46 -23.46555,46.83842 -66.87065,79.41671 -118.82859,89.1884 -10.53368,1.98107 -14.83061,2.08287 -98.51409,2.33391 -48.125,0.14437 -92.675,-0.0956 -99,-0.53334 z m 184.14405,-10.04195 c 21.2756,-2.16328 39.31359,-7.41068 56.79626,-16.52249 15.3029,-7.97574 27.57177,-17.16393 39.80323,-29.80874 C 454.76642,408.88247 467.36703,385.01373 474.19001,354 l 2.30999,-10.5 0,-99.5 0,-99.5 -2.30999,-10.5 C 467.38137,103.05142 454.75994,79.147098 433.74354,57.396483 407.39909,30.13168 375.01335,14.694663 336.5,11.044277 321.68728,9.6402934 163.67711,9.647662 149.85595,11.052981 128.61388,13.212851 111.03085,18.321452 92.875352,27.608215 49.688275,49.698947 20.295159,89.978524 12.013901,138.41869 10.093403,149.6524 10,154.54917 10,244 c 0,89.45083 0.0934,94.3476 2.013901,105.58131 11.783794,68.92781 66.558652,120.02335 136.486099,127.31811 12.09526,1.26176 176.29539,1.3032 188.64405,0.0476 z M 231,285.56703 c -17.10708,-4.76771 -30.25554,-19.33548 -33.25468,-36.84437 -1.35593,-7.91587 -0.12918,-16.02015 3.68662,-24.35497 10.45053,-22.82695 37.15636,-32.79449 58.97456,-22.01135 9.16997,4.53204 17.43721,12.97976 21.87844,22.35606 3.0167,6.36883 3.21506,7.46946 3.21506,17.83946 0,10.73854 -0.10541,11.26514 -3.71796,18.57464 -4.02248,8.13893 -10.92508,15.53931 -18.78204,20.1365 -9.00623,5.26964 -22.17834,7.0413 -32,4.30403 z" id="path3125" inkscape:connector-curvature="0"/>
    <path style="fill:#707070" d="M 144.5,486.33071 C 106.15973,481.14171 72.921538,464.27544 45.979734,436.33795 21.160659,410.60164 6.1615238,379.536 1.4930329,344.19878 c -2.20122541,-16.66174 -2.20122541,-183.73582 0,-200.39756 C 6.1221289,108.76219 20.917325,77.918867 45.393232,52.283124 69.764293,26.757194 97.483101,11.2545 132.20468,3.7308443 142.47354,1.5057328 142.75955,1.5 243.5,1.5 l 101,0 10.39887,2.3281175 c 31.33057,7.0143425 56.65331,20.1609715 79.33052,41.1854695 29.57809,27.422445 47.55013,63.855503 51.71763,104.842363 1.41701,13.93615 1.41701,174.35195 0,188.2881 -5.82196,57.25827 -39.7126,106.63274 -90.44702,131.7701 -13.85682,6.86563 -22.60981,10.04712 -38,13.81204 l -11,2.69094 -99.5,0.1598 c -54.725,0.0879 -100.85,-0.0229 -102.5,-0.24622 z m 194.07632,-9.42557 c 35.88054,-3.59625 69.1091,-19.49112 94.40993,-45.16095 20.99839,-21.30464 34.55576,-46.90318 41.28291,-77.94887 C 476.49302,343.53221 476.5,343.18871 476.5,244 c 0,-99.18871 -0.007,-99.53221 -2.23084,-109.79532 C 467.53867,103.14359 454.01311,77.620436 432.96934,56.270689 412.39562,35.397821 387.7139,21.514393 358.65115,14.466824 340.95083,10.174589 330.5175,9.819413 235,10.257438 156.08676,10.619319 144.49455,10.867772 137,12.357848 102.97959,19.121827 76.950928,32.810729 54,56.008915 32.893944,77.342353 18.745059,104.02561 12.37984,134.5 10.612225,142.96271 10.5,149.49976 10.5,244 c 0,94.50024 0.112225,101.03729 1.87984,109.5 C 26.443371,420.83115 79.082608,469.07477 147,476.87875 c 11.44565,1.31515 178.48849,1.33816 191.57632,0.0264 z M 231.10463,285.41748 c -21.90934,-5.89175 -36.96643,-28.33434 -33.24228,-49.54761 3.57384,-20.35707 20.82665,-36.21518 40.8969,-37.59082 8.81583,-0.60425 16.39783,1.0885 24.48944,5.4675 6.81659,3.68898 15.25485,12.98258 19.03625,20.96585 3.01534,6.36596 3.21476,7.47091 3.21018,17.7876 -0.005,10.20376 -0.22765,11.4705 -3.08235,17.5 -9.5207,20.10892 -31.16894,30.83322 -51.30814,25.41748 z" id="path3123" inkscape:connector-curvature="0"/>
    <path style="fill:#4f4f4f" d="M 139.62761,485.44719 C 69.637834,474.40063 15.463319,420.98104 2.2662736,350 0.65574144,341.33766 0.5,331.9911 0.5,244 0.5,137.11256 0.26562087,141.52937 7.2127622,117.5 11.245784,103.55024 22.704188,80.521122 31.471822,68.744105 56.749668,34.789949 90.545601,13.000687 132.25097,3.768738 L 142.5,1.5 l 100.5,0 100.5,0 10.94931,2.3530613 C 413.22995,16.485316 460.22013,58.254436 478.36441,114 c 8.09072,24.85751 8.60393,32.61183 8.60393,130 0,97.32072 -0.509,105.03203 -8.58089,130 C 460.65063,428.86347 415.01524,469.96386 356.5,483.77492 l -11,2.59628 -98.5,0.23816 c -80.44235,0.1945 -100.12654,-0.0186 -107.37239,-1.16217 z m 199.83187,-8.48996 C 409.33435,468.95269 463.23993,418.28904 474.9861,349.58131 476.9066,338.3476 477,333.45083 477,244 477,154.54917 476.9066,149.6524 474.9861,138.41869 463.23993,69.710956 409.33435,19.04731 339.45948,11.042767 327.27526,9.6469988 160.15555,9.6511045 147.21059,11.04749 98.401951,16.312522 55.747117,43.762904 30.548214,86.125187 21.792076,100.84527 14.710029,120.57483 11.213785,139.98811 9.6755741,148.52919 9.5007356,159.14493 9.5007356,244 c 0,84.85507 0.1748385,95.47081 1.7130494,104.01189 6.122069,33.99346 19.996257,61.11581 43.267481,84.58266 23.925654,24.12678 54.318664,39.1981 88.518734,43.89474 12.07286,1.65795 182.52729,2.06395 196.45948,0.46794 z m -107.855,-191.55041 c -8.07488,-1.9539 -15.21118,-6.26248 -21.74168,-13.12666 -16.5815,-17.42874 -16.34323,-43.39476 0.55575,-60.56591 16.80533,-17.07599 42.80121,-18.01031 60.4178,-2.17148 27.00476,24.2796 16.1031,66.68441 -19.52965,75.96556 -6.94052,1.80778 -11.91768,1.78213 -19.70222,-0.10151 z" id="path3121" inkscape:connector-curvature="0"/>
    <path style="fill:#343434" d="m 143.16486,485.84332 c -10.5547,-1.35289 -28.43234,-6.05779 -39.29098,-10.34029 C 59.596978,458.04083 24.014489,420.39516 8.9850647,375.11228 0.32725731,349.02675 0,344.25133 0,244 0,143.74867 0.32725731,138.97325 8.9850647,112.88772 25.719153,62.468776 67.454039,22.249674 118.25171,7.5895713 140.25186,1.2403713 134.89059,1.5 244,1.5 l 99.5,0 10.5,2.3006328 c 47.09917,10.3197992 85.89608,37.9738082 109.96442,78.3814192 10.31074,17.310386 18.02877,39.654438 21.23687,61.481738 1.87313,12.74443 1.87313,187.92799 0,200.67242 -5.50302,37.44148 -21.35072,69.05479 -47.70544,95.16379 -22.57893,22.36841 -50.26895,37.26153 -82.99585,44.63944 -9.9666,2.24686 -10.32393,2.25504 -107,2.44924 -55.9746,0.11244 -100.10234,-0.2028 -104.33514,-0.74536 z m 209.9376,-10.57714 C 416.1367,461.48989 461.57418,415.95951 474.62016,353.5 476.38778,345.03729 476.5,338.50024 476.5,244 476.5,149.61901 476.3859,142.95203 474.62592,134.5 461.46424,71.293123 413.56126,24.160291 350.5,12.369704 341.16638,10.624592 334.00284,10.5 243,10.5 c -97.48495,0 -97.50173,3.51e-4 -108.72776,2.275945 C 76.988764,24.387706 31.124553,66.103877 15.532401,120.77675 9.3580508,142.4267 9.5,139.52712 9.5,244 9.5,348.47288 9.3580508,345.5733 15.532401,367.22325 32.504549,426.73499 84.932896,470.31422 148,477.33232 c 1.925,0.21421 46.7,0.30916 99.5,0.21099 93.4363,-0.17372 96.25644,-0.23453 105.60246,-2.27713 z M 233,285.69419 c -15.29911,-3.48095 -27.20407,-14.19843 -33.14801,-29.84161 -3.85293,-10.14007 -2.1073,-25.80216 3.99597,-35.85258 3.64518,-6.00261 12.33981,-13.96711 18.62578,-17.06168 13.13244,-6.46507 26.46115,-6.2345 39.63004,0.68556 25.12539,13.20301 31.38762,44.98529 13.22984,67.14447 -9.73388,11.87892 -27.77244,18.23889 -42.33362,14.92584 z" id="path3119" inkscape:connector-curvature="0"/>
    <path style="fill:#000000" d="M 145.67499,485.94395 C 120.54031,483.02279 95.304493,473.73197 74.023814,459.56485 36.229547,434.40418 10.925971,395.7185 2.6865597,350.5 0.53789499,338.70797 0.5,336.86223 0.5,244 0.5,151.13777 0.53789499,149.29203 2.6865597,137.5 16.025861,64.292935 74.280608,9.8409192 147.70457,1.9484195 154.0799,1.263122 189.62207,1.0119993 249.5,1.2291856 333.38784,1.5334594 342.33767,1.7230421 351,3.3792424 417.70253,16.132478 468.96857,66.262405 483.17172,132.62189 L 485.5,143.5 l 0,100.5 0,100.5 -2.32828,10.87811 C 472.14684,406.88818 438.40443,449.64118 391.5,471.5299 c -16.62402,7.75787 -32.11722,12.10594 -51.47377,14.44578 -10.00971,1.20999 -183.91135,1.18159 -194.35124,-0.0317 z m 208.40204,-10.72729 c 41.6236,-9.50541 74.64925,-31.63565 97.00878,-65.00484 15.40036,-22.98337 23.72065,-47.24062 25.9254,-75.58376 1.22723,-15.77666 1.22723,-165.47946 0,-181.25612 C 474.80646,125.0288 466.48617,100.77155 451.08581,77.788178 428.77443,44.490844 395.60413,22.25792 354.1157,12.792403 344.64766,10.632285 343.04115,10.593001 249.5,10.234224 181.4008,9.9730297 151.80992,10.198935 145,11.032007 72.729898,19.872961 17.703722,76.212693 10.009714,149.24471 c -1.2823794,12.17242 -1.2823794,177.33816 0,189.51058 3.770113,35.78616 17.976355,66.66701 42.27442,91.89412 25.250738,26.21621 58.359216,42.70569 93.715866,46.67463 1.925,0.21609 47.375,0.32242 101,0.23629 96.40991,-0.15485 97.60708,-0.18106 107.07703,-2.34367 z M 235.58007,285.86769 C 221.75036,283.9095 208.52981,273.9513 201.92971,260.52103 198.65011,253.8475 198.5,253.05743 198.5,242.46916 c 0,-10.78111 0.0989,-11.27296 3.75256,-18.66568 8.69517,-17.59349 27.96135,-28.0866 45.8143,-24.95227 24.06266,4.22452 41.35361,27.65434 37.13791,50.32313 -3.33508,17.93354 -19.05201,34.13573 -35.25657,36.34512 -2.44651,0.33357 -5.3482,0.73698 -6.4482,0.89647 -1.1,0.15949 -4.66397,-0.0872 -7.91993,-0.54824 z" id="path3117" inkscape:connector-curvature="0"/>
  </g>
<script xmlns=""/></svg>