<?xml version="1.0" encoding="UTF-8" standalone="no"?>
<!-- Created with Inkscape (http://www.inkscape.org/) -->

<svg
   xmlns:dc="http://purl.org/dc/elements/1.1/"
   xmlns:cc="http://creativecommons.org/ns#"
   xmlns:rdf="http://www.w3.org/1999/02/22-rdf-syntax-ns#"
   xmlns:svg="http://www.w3.org/2000/svg"
   xmlns="http://www.w3.org/2000/svg"
   xmlns:sodipodi="http://sodipodi.sourceforge.net/DTD/sodipodi-0.dtd"
   xmlns:inkscape="http://www.inkscape.org/namespaces/inkscape"
   id="svg3055"
   version="1.1"
   inkscape:version="0.48.4 r9939"
   width="487"
   height="488"
   sodipodi:docname="die6.png">
  <metadata
     id="metadata3061">
    <rdf:RDF>
      <cc:Work
         rdf:about="">
        <dc:format>image/svg+xml</dc:format>
        <dc:type
           rdf:resource="http://purl.org/dc/dcmitype/StillImage" />
        <dc:title></dc:title>
      </cc:Work>
    </rdf:RDF>
  </metadata>
  <defs
     id="defs3059" />
  <sodipodi:namedview
     pagecolor="#ffffff"
     bordercolor="#666666"
     borderopacity="1"
     objecttolerance="10"
     gridtolerance="10"
     guidetolerance="10"
     inkscape:pageopacity="0"
     inkscape:pageshadow="2"
     inkscape:window-width="640"
     inkscape:window-height="480"
     id="namedview3057"
     showgrid="false"
     inkscape:zoom="0.48360656"
     inkscape:cx="243.5"
     inkscape:cy="244"
     inkscape:window-x="63"
     inkscape:window-y="34"
     inkscape:window-maximized="0"
     inkscape:current-layer="svg3055" />
  <g
     id="g3300">
    <path
       style="fill:#fefefe"
       d="M 0,244 0,0 243.5,0 487,0 l 0,244 0,244 -243.5,0 L 0,488 0,244 z"
       id="path3316"
       inkscape:connector-curvature="0" />
    <path
       style="fill:#d1d1d1"
       d="M 147.58949,486.90009 C 80.339533,479.81102 23.132489,431.06002 5.6226869,365.91807 0.11495931,345.4276 0,342.9381 0,244.15604 0,144.36036 0.13599435,141.54458 5.9568663,120.81841 21.27328,66.281789 64.260735,22.755001 118.39029,6.974359 140.59467,0.50101391 136.82157,0.71627543 236,0.26452305 328.11519,-0.15505668 338.98641,0.15061609 356,3.6386363 421.4829,17.063533 473.66244,71.182404 484.9861,137.41869 486.90763,148.65845 487,153.54686 487,244 c 0,107.31143 0.0774,106.05904 -8.05519,130.43069 -20.80722,62.35518 -75.32936,105.92842 -140.80076,112.52577 -12.36953,1.24644 -178.66223,1.19725 -190.55456,-0.0564 z M 355.5,474.1894 c 33.27991,-8.1421 57.68546,-21.90789 79.50868,-44.84634 22.1196,-23.24997 36.23331,-52.87527 40.51468,-85.04209 2.10685,-15.82924 2.10685,-184.7727 0,-200.60194 C 466.8307,78.389207 419.25793,27.778257 353,13.350843 345.04211,11.618041 338.05851,11.5 243.5,11.5 l -101,0 -10.3805,2.324185 C 111.67675,18.401297 94.561287,25.675113 77.788178,36.914189 43.035006,60.201077 19.925925,96.172759 12.213417,138.98811 10.674719,147.53006 10.5,158.13624 10.5,243 c 0,101.14162 0.03252,101.90637 5.144498,120.97342 15.399512,57.43833 62.423978,100.5616 121.014482,110.97501 10.28853,1.8286 15.91182,1.91447 110.34102,1.68483 98.73905,-0.24011 99.56883,-0.2588 108.5,-2.44386 z M 117.26455,400.45841 C 104.02527,396.89291 92.903193,387.74492 86.920245,375.5 83.630657,368.76741 83.5,368.06069 83.5,357 c 0,-11.05563 0.131976,-11.77049 3.415455,-18.5 6.093092,-12.48783 18.341475,-22.47594 31.196325,-25.43946 19.52381,-4.50096 40.52339,6.1824 49.96334,25.41843 3.29782,6.72006 3.42488,7.4064 3.42488,18.5 0,11.08463 -0.12955,11.78618 -3.42025,18.52103 -9.4916,19.42587 -31.40099,30.18689 -50.8152,24.95841 z m 228.98612,-0.004 C 325.69376,394.91936 312,377.36625 312,356.55122 c 0,-27.6345 27.25489,-49.63065 53.88822,-43.49068 12.8861,2.97072 25.55078,13.30867 31.37909,25.61418 3.06158,6.46401 3.23269,7.4351 3.23269,18.34631 0,11.09867 -0.12573,11.77687 -3.42971,18.5 -9.55464,19.44236 -31.40348,30.16214 -50.81962,24.93383 z M 114.48694,285.25718 C 102.3119,280.91128 92.156388,271.77435 86.701451,260.25853 83.703151,253.92887 83.5,252.80198 83.5,242.5 c 0,-10.56213 0.142806,-11.29855 3.58749,-18.5 7.904423,-16.52497 22.76531,-26.13594 40.41251,-26.13594 19.67888,0 36.05392,12.04415 42.56481,31.30723 1.73804,5.14216 2.06538,8.04144 1.74594,15.46393 -0.34758,8.07642 -0.81849,9.99585 -4.06297,16.5606 -4.65908,9.42702 -13.00394,17.62236 -22.46018,22.05775 -5.87423,2.75528 -8.06596,3.22469 -16.2876,3.48836 -7.19786,0.23083 -10.71482,-0.12897 -14.51306,-1.48475 z m 229,0 c -12.17504,-4.3459 -22.33055,-13.48283 -27.78549,-24.99865 -3.00113,-6.33564 -3.20145,-7.45006 -3.20145,-17.81039 0,-10.7269 0.10868,-11.27177 3.69625,-18.53073 8.20759,-16.60692 22.70816,-25.97787 40.30375,-26.04616 15.20956,-0.059 28.58702,7.02002 36.8822,19.51724 15.58424,23.47866 6.80675,53.71605 -19.12367,65.87869 -5.84236,2.74035 -8.04633,3.21138 -16.25853,3.47475 -7.19786,0.23083 -10.71482,-0.12897 -14.51306,-1.48475 z M 119.17629,171.93 C 103.98069,168.93962 89.970655,156.43682 84.967087,141.4011 81.731062,131.67684 82.399491,119.00283 86.623186,110 94.163994,93.926721 110.70657,83 127.5,83 c 16.77877,0 33.25685,10.87432 40.91366,27 2.89272,6.09223 3.08634,7.22144 3.08634,18 0,11.06069 -0.13066,11.76741 -3.42025,18.5 -9.06877,18.5605 -29.58877,29.23098 -48.90346,25.43 z m 229,0 c -15.52054,-3.05432 -29.67979,-15.90035 -34.3031,-31.1216 -3.1301,-10.30517 -2.3938,-21.92756 1.96434,-31.00671 5.9916,-12.482078 17.2086,-22.046884 29.62257,-25.259347 36.08484,-9.337966 67.46144,28.595827 51.43309,62.181767 -8.78497,18.40811 -29.30629,29.02574 -48.7169,25.20589 z"
       id="path3314"
       inkscape:connector-curvature="0" />
    <path
       style="fill:#acacac"
       d="M 150.5,486.93457 C 110.44256,483.5072 74.471471,466.01164 45.5,435.86484 21.12524,410.50123 6.1243345,379.2545 1.4930329,344.19878 c -2.20122541,-16.66174 -2.20122541,-183.73582 0,-200.39756 C 6.1627151,108.45498 21.154496,77.410275 46,51.636991 59.452074,37.68259 74.153506,26.654344 90.048998,18.593733 110.29604,8.326448 129.52019,2.8473554 151.76466,1.0040919 167.41442,-0.29270859 321.23027,-0.27229059 335.9276,1.0285379 357.92887,2.975822 376.5135,8.1309879 395.19441,17.468481 441.2886,40.508255 472.85806,81.490825 484.19001,133 l 2.30999,10.5 0,100.5 0,100.5 -2.30999,10.5 c -9.56245,43.46598 -33.30946,79.18502 -69.00713,103.79701 -19.54061,13.4724 -40.5234,21.9477 -66.68288,26.93433 -6.7276,1.28244 -22.31455,1.56745 -98,1.79192 -49.5,0.14681 -94.5,-0.1181 -100,-0.58869 z M 350.60822,475.18282 C 413.92646,463.22426 460.454,417.5521 474.26916,353.79532 476.49302,343.53221 476.5,343.18871 476.5,244 c 0,-99.18871 -0.007,-99.53221 -2.23084,-109.79532 -1.22697,-5.66243 -3.61367,-14.42275 -5.30378,-19.46739 C 451.79619,63.490681 409.31984,25.584254 356.03184,13.953982 339.41103,10.326439 322.48335,9.8199329 233,10.272655 151.43982,10.685292 146.99312,10.801562 136.5,12.795891 104.2354,18.92812 78.206651,32.621958 55.463618,55.429486 32.769558,78.187902 19.20411,103.56063 12.775945,135.27224 10.500351,146.49827 10.5,146.51505 10.5,244 c 0,97.48495 3.51e-4,97.50173 2.275945,108.72776 6.429216,31.71679 19.998244,57.09431 42.687673,79.83674 26.503958,26.56587 59.015932,41.52333 96.536382,44.41252 5.775,0.44469 50.325,0.69495 99,0.55614 85.10379,-0.24271 88.92628,-0.33291 99.60822,-2.35034 z M 118.25116,400.48354 c -13.30583,-2.89047 -24.9076,-12.34108 -31.063617,-25.30391 -10.357113,-21.80913 -1.00746,-47.26522 21.414277,-58.30416 8.3374,-4.10477 17.46988,-5.58709 25.37012,-4.11788 17.22933,3.20413 31.29561,15.43594 36.15722,31.44173 7.46236,24.5682 -8.38013,50.93238 -33.84877,56.32919 -8.12267,1.72119 -9.91963,1.71671 -18.02923,-0.045 z m 229,0 c -13.17028,-2.86103 -24.4704,-12.07898 -30.99937,-25.28741 -3.61922,-7.32187 -3.75179,-7.96295 -3.75179,-18.14309 0,-10.12412 0.1518,-10.87095 3.7348,-18.37482 8.66896,-18.15539 28.7139,-29.27241 46.73714,-25.92063 32.69068,6.07947 48.47703,41.63518 30.50621,68.70937 -6.51047,9.80843 -16.59293,16.60147 -28.33417,19.09009 -7.97962,1.69132 -9.80322,1.68383 -17.89282,-0.0735 z M 114.76195,285.05814 c -26.044435,-8.32575 -39.145989,-37.7096 -27.40561,-61.46464 4.532044,-9.16997 12.97976,-17.43721 22.35606,-21.87844 6.36883,-3.0167 7.46946,-3.21506 17.83946,-3.21506 10.73483,0 11.26726,0.10645 18.5606,3.71102 27.84015,13.75934 34.45464,47.86048 13.65931,70.42076 -11.39457,12.36164 -29.54069,17.37144 -45.00982,12.42636 z m 229,0 C 325.1623,279.1123 312,261.44445 312,242.42383 c 0,-16.87478 10.67033,-33.10894 26.77667,-40.73885 6.28951,-2.97947 7.4331,-3.18498 17.72333,-3.18498 10.31161,0 11.42478,0.2012 17.7876,3.21506 9.50307,4.50128 17.81643,12.69312 22.50138,22.17248 3.60457,7.29334 3.71102,7.82577 3.71102,18.5606 0,10.29136 -0.21314,11.49914 -3.09738,17.55186 -9.93421,20.8474 -33.04308,31.64266 -53.64067,25.05814 z M 120.09374,171.86884 c -13.39071,-2.22267 -26.201125,-12.23709 -32.84195,-25.67388 -3.629426,-7.34365 -3.750755,-7.93538 -3.720061,-18.1431 0.03826,-12.72507 2.010376,-18.61455 9.21243,-27.51187 C 102.04942,89.044411 113.17072,83.635131 127.5,83.635131 c 14.32928,0 25.45058,5.40928 34.75584,16.904859 7.19282,8.88591 9.17415,14.79177 9.21243,27.46001 0.0303,10.04438 -0.12616,10.83062 -3.6069,18.11929 -6.6049,13.83062 -19.20894,23.43381 -33.88077,25.81418 -3.56433,0.57828 -6.9306,1.00221 -7.4806,0.94207 -0.55,-0.0601 -3.43281,-0.51316 -6.40626,-1.0067 z m 229,0.0412 c -13.39881,-2.32608 -26.26603,-12.41049 -32.86236,-25.75518 -3.59591,-7.2747 -3.73138,-7.93191 -3.73138,-18.1018 0,-10.11418 0.1545,-10.87659 3.71511,-18.33337 6.55795,-13.733904 18.78927,-23.168145 33.61055,-25.924445 16.18624,-3.010138 34.57169,5.46891 44.21702,20.392105 10.36397,16.03507 8.93595,37.01885 -3.55679,52.26458 -9.57566,11.68583 -26.56785,18.03165 -41.39215,15.45811 z"
       id="path3312"
       inkscape:connector-curvature="0" />
    <path
       style="fill:#939393"
       d="M 139,485.52975 C 95.511539,478.19349 58.253278,455.22976 31.471822,419.25589 22.704188,407.47888 11.245784,384.44976 7.2127622,370.5 0.26562087,346.47063 0.5,350.88744 0.5,244 0.5,137.11256 0.26562087,141.52937 7.2127622,117.5 11.598815,102.32915 22.715529,80.429104 32.882503,66.930344 53.150416,40.020502 82.162976,19.085719 113.40613,8.8263849 138.1268,0.70884317 136.91893,0.79665952 230.88331,0.28539931 322.03693,-0.2105675 340.44232,0.38791218 358,4.4187955 414.92615,17.487868 460.37557,58.569199 478.8223,113.62899 c 8.10548,24.19324 8.34891,28.35825 7.97048,136.37101 -0.32591,93.01856 -0.33939,93.55597 -2.6194,104.36985 -7.1606,33.96208 -22.17948,61.49826 -46.83397,85.86717 -23.55267,23.27984 -54.56719,39.24577 -87.01108,44.79233 -10.95412,1.8727 -16.30625,1.96555 -107.6777,1.86813 C 170.13835,486.82016 144.65615,486.48391 139,485.52975 z m 197.5,-8.57403 c 14.23382,-1.34911 23.56437,-3.28281 36.38005,-7.53952 53.63241,-17.81395 92.54715,-63.57831 102.15253,-120.13302 1.97735,-11.64228 2.03165,-15.12697 1.71259,-109.90334 L 476.41565,141.5 473.79314,131 C 468.64388,110.38345 461.43909,93.506361 451.33957,78.402922 432.52965,50.273424 404.95849,29.234054 373,18.622512 348.1862,10.383305 342.42942,10 243.5,10 144.61084,10 138.7996,10.386276 114.05969,18.603963 91.633435,26.053141 70.56544,39.490288 53.256461,57.384208 32.16223,79.191299 19.656123,102.88101 12.809986,134 L 10.5,144.5 l 0,99.5 0,99.5 2.309986,10.5 c 6.822979,31.01373 19.423597,54.88247 40.446475,76.61579 25.809924,26.68215 59.079599,42.76376 95.778869,46.29679 12.85405,1.23746 174.47167,1.27465 187.46467,0.0431 z M 120.67732,400.87714 c -16.68018,-2.35871 -32.673562,-17.51462 -36.689691,-34.76848 -5.517859,-23.70552 11.813969,-48.67479 36.898061,-53.15757 18.4393,-3.29528 38.21336,7.52132 46.79853,25.59925 7.95842,16.75817 4.47903,36.00069 -8.93507,49.4148 -10.58202,10.58202 -23.51965,14.9698 -38.07183,12.912 z m 229.09183,0.0115 c -7.99315,-1.13241 -15.8196,-5.11504 -22.85884,-11.63213 -6.89458,-6.38317 -10.3544,-11.79651 -13.02631,-20.38138 -7.59828,-24.4133 9.62249,-51.20978 35.93151,-55.91147 18.70118,-3.34208 38.16599,7.31889 46.94969,25.71459 3.583,7.50387 3.7348,8.2507 3.7348,18.37482 0,10.16664 -0.13639,10.82894 -3.72497,18.08883 -9.22699,18.66664 -27.26036,28.54414 -47.00588,25.74674 z M 117,285.70435 C 87.293489,277.19226 73.871672,244.13382 89.949685,219.07841 104.28177,196.7438 134.52471,191.26618 154.34367,207.41534 c 23.36411,19.03787 23.51906,51.00945 0.33772,69.68475 -3.1837,2.56484 -8.35193,5.65981 -11.48497,6.87771 -7.01488,2.72688 -19.77121,3.56762 -26.19642,1.72655 z m 229.75415,0.21169 c -6.88113,-1.62218 -16.1185,-7.07541 -21.73764,-12.83269 -20.13439,-20.62937 -16.33065,-52.21696 8.20463,-68.13408 15.14629,-9.82606 35.75345,-8.94148 49.76796,2.13635 25.8484,20.43198 23.2877,57.60574 -5.11449,74.2472 -8.43821,4.94413 -21.45665,6.8614 -31.12046,4.58322 z M 121.85425,171.90466 c -7.98593,-0.87498 -17.85782,-5.8126 -24.733636,-12.37102 -10.15103,-9.68245 -14.766613,-21.27825 -13.841566,-34.77439 1.727305,-25.200852 26.548652,-45.163379 50.851082,-40.896898 35.0605,6.155144 49.87029,47.903068 26.03574,73.393178 -10.81605,11.56734 -23.20462,16.30433 -38.31162,14.64913 z m 229,0 c -11.60187,-1.27116 -26.36793,-11.09957 -32.5664,-21.67645 -3.63413,-6.20118 -6.28967,-15.53845 -6.27598,-22.0673 0.0558,-26.61892 25.6223,-48.774572 51.11826,-44.298558 14.63206,2.568772 27.10663,12.143357 33.63507,25.815868 3.583,7.50387 3.7348,8.2507 3.7348,18.37482 0,10.15197 -0.14047,10.83721 -3.69625,18.03072 -9.0759,18.36095 -26.2016,27.98458 -45.9495,25.8209 z"
       id="path3310"
       inkscape:connector-curvature="0" />
    <path
       style="fill:#6f6f6f"
       d="M 137.5,485.0866 C 104.1064,479.12084 75.672269,464.81902 51.398351,441.77912 22.709646,414.54888 5.1454835,378.39335 1.0529812,338.14405 c -1.41701118,-13.93615 -1.41701118,-174.35195 0,-188.2881 C 6.8751089,92.595969 40.793338,43.184242 91.5,18.09367 106.0092,10.914258 113.83635,8.0857768 129.53982,4.3473129 L 141.5,1.5 243,1.5 C 344.2577,1.5 344.52458,1.50533 354.79532,3.7308443 389.42701,11.235022 416.97277,26.612897 441.5,52.135159 465.87476,77.498766 480.87567,108.7455 485.50697,143.80122 486.73506,153.09705 487,170.87718 487,244 c 0,96.34618 -0.2233,101.2258 -5.53656,120.98481 -7.80511,29.02574 -20.86467,51.40517 -42.94684,73.5956 -23.28439,23.39853 -47.66288,37.0333 -80.5166,45.03255 l -11.5,2.80003 -99.5,0.23005 c -91.75332,0.21215 -100.27856,0.091 -109.5,-1.55644 z M 350,475.63941 c 33.99444,-6.74785 60.04785,-20.44891 83,-43.64832 C 454.10606,410.65765 468.25494,383.97439 474.62016,353.5 476.38778,345.03729 476.5,338.50024 476.5,244 476.5,149.49976 476.38778,142.96271 474.62016,134.5 468.25494,104.02561 454.10606,77.342353 433,56.008915 409.73378,32.492043 383.12824,18.639229 349,12.272308 340.32862,10.654587 331.17015,10.5 244,10.5 136.52242,10.5 138.91882,10.358694 115.65882,18.067741 62.171019,35.795164 24.955905,77.786174 12.730844,134.20468 10.506979,144.46779 10.5,144.81129 10.5,244 c 0,99.18871 0.007,99.53221 2.230844,109.79532 10.235864,47.23839 38.459222,85.0071 79.269156,106.07857 17.98883,9.28821 36.84898,15.08691 55.5,17.06391 4.4,0.46639 49.85,0.74468 101,0.61842 82.62306,-0.20396 93.94843,-0.41783 101.5,-1.91681 z M 114.48694,399.25718 c -21.276728,-7.59476 -34.286797,-28.28326 -30.754381,-48.90536 3.233244,-18.87555 18.662941,-34.29986 37.288271,-37.27527 21.19344,-3.38567 42.39579,10.36083 49.01504,31.77879 3.34548,10.82497 2.00804,22.78134 -3.727,33.31849 -3.77467,6.93532 -13.0201,15.32684 -21.02127,19.07974 -5.87423,2.75528 -8.06596,3.22469 -16.2876,3.48836 -7.19786,0.23083 -10.71482,-0.12897 -14.51306,-1.48475 z m 229,-0.0107 c -21.13986,-7.50076 -34.26932,-28.37455 -30.75438,-48.89465 3.22066,-18.80206 18.73545,-34.31144 37.28827,-37.27527 30.97207,-4.94781 58.32574,26.14069 49.09517,55.79855 -1.03619,3.32931 -3.01793,7.98821 -4.40385,10.35311 -3.78724,6.46242 -12.84851,14.46787 -20.45362,18.07034 -5.90849,2.79879 -7.95338,3.23448 -16.25853,3.46404 -7.09309,0.19606 -10.77011,-0.18806 -14.51306,-1.51612 z M 117.5,285.58897 C 101.5757,281.63674 88.722815,268.80313 84.361353,252.5 c -5.815656,-21.7389 8.101045,-45.56264 30.729607,-52.60544 23.45949,-7.30142 49.20565,7.60472 55.4957,32.13009 7.96785,31.06721 -21.98009,61.2846 -53.08666,53.56432 z m 228.76455,-0.13056 c -17.16533,-4.62283 -29.94041,-18.15659 -33.31107,-35.28933 -4.27131,-21.71068 10.6663,-44.97494 32.50662,-50.62674 27.63195,-7.15054 55.65324,14.51209 55.51545,42.91776 -0.13591,28.02065 -28.25813,50.12239 -54.711,42.99831 z M 114.48694,170.25718 C 99.595441,164.94164 88.314543,152.98907 84.552001,138.5399 78.115755,113.823 95.063748,88.519955 121.08501,83.996797 c 20.79897,-3.615392 42.31538,10.388066 48.95086,31.858543 3.34548,10.82497 2.00804,22.78134 -3.727,33.31849 -3.77467,6.93532 -13.0201,15.32684 -21.02127,19.07974 -5.87423,2.75528 -8.06596,3.22469 -16.2876,3.48836 -7.19786,0.23083 -10.71482,-0.12897 -14.51306,-1.48475 z m 229,0 c -21.17009,-7.5567 -34.26909,-28.38661 -30.75438,-48.90536 3.23259,-18.87173 18.43952,-34.08115 37.35245,-37.358555 25.49767,-4.41847 50.84737,17.576965 50.90312,44.167645 0.0137,6.52885 -2.64185,15.86612 -6.27598,22.0673 -3.80968,6.50072 -12.84687,14.47103 -20.45362,18.03897 -5.84236,2.74035 -8.04633,3.21138 -16.25853,3.47475 -7.19786,0.23083 -10.71482,-0.12897 -14.51306,-1.48475 z"
       id="path3308"
       inkscape:connector-curvature="0" />
    <path
       style="fill:#505050"
       d="M 147,486.36922 C 130.91369,483.79692 123.71912,482.188 113.74076,478.93147 72.124952,465.34978 37.677519,435.68309 18.025592,396.5 8.1327691,376.77515 2.9538437,358.35614 1.0146351,336 -0.3190578,320.62454 -0.28631913,167.06462 1.0539701,151.5 6.00598,93.992896 40.023686,43.873435 91.594771,18.103109 103.77664,12.015767 116.07139,7.6303265 130.5,4.2259165 l 11,-2.5954346 96.99822,-0.3574696 C 345.26178,0.87955427 345.59269,0.89428113 367.36639,7.0082268 420.62486,21.962935 464.57935,65.410008 480.01591,118.3573 c 6.50287,22.30479 6.27882,18.36725 6.72243,118.1427 0.42029,94.52732 0.1309,103.93001 -3.7473,121.75593 -4.29669,19.74948 -14.34531,42.4665 -26.29105,59.43645 -8.15917,11.5908 -27.8076,31.17186 -39.69999,39.56385 -17.23382,12.16124 -39.45888,21.84284 -61.84187,26.93933 -9.56196,2.17722 -10.63394,2.20098 -107.65813,2.38627 -53.9,0.10293 -99.125,0.007 -100.5,-0.21261 z m 192.78941,-9.41671 c 48.77514,-5.26142 91.48076,-32.74448 116.66238,-75.0777 8.75613,-14.72008 15.83818,-34.44964 19.33443,-53.86292 1.53821,-8.54108 1.71304,-19.15682 1.71304,-104.01189 0,-84.85507 -0.17483,-95.47081 -1.71304,-104.01189 C 469.66415,105.99465 455.78996,78.872304 432.51873,55.40545 408.27139,30.954275 378.03872,16.102415 343.02204,11.44003 329.84362,9.685355 162.93979,9.3507658 147.21059,11.04749 101.72736,15.953807 60.871554,40.621262 35.652228,78.402922 25.544307,93.545835 18.352069,110.39968 13.206865,131 l -2.622515,10.5 -0.329516,97.87984 c -0.3190685,94.77637 -0.2647679,98.26106 1.712582,109.90334 11.625231,68.44721 65.636816,119.63335 134.707574,127.66077 10.58315,1.22997 181.72116,1.23756 193.11442,0.009 z M 114.48694,399.25718 C 102.80953,395.08891 92.700459,386.21888 87.490078,375.56925 76.925623,353.97628 86.918095,327.51194 109.7124,316.71506 116.07522,313.7012 117.18839,313.5 127.5,313.5 c 10.31161,0 11.42478,0.2012 17.7876,3.21506 18.34605,8.6899 29.18294,28.23353 25.99033,46.87187 -2.41938,14.12427 -11.86174,26.62699 -25.02109,33.1307 -6.8699,3.39529 -8.37799,3.74941 -17.14466,4.02586 -7.30094,0.23022 -10.81757,-0.12716 -14.62524,-1.48631 z M 344.5,399.65311 c -7.5153,-2.48683 -12.95986,-5.92778 -19.05234,-12.04104 -6.98697,-7.01079 -10.77354,-14.22292 -12.56117,-23.9247 -3.35275,-18.19606 7.06328,-37.60924 24.91432,-46.43481 7.38816,-3.6527 7.8843,-3.75256 18.64466,-3.75256 10.373,0 11.47299,0.19821 17.84213,3.21506 18.34605,8.6899 29.18294,28.23353 25.99033,46.87187 -2.41938,14.12427 -11.86174,26.62699 -25.02109,33.1307 -6.89984,3.41008 -8.3398,3.74527 -17.14466,3.99092 -6.00298,0.16747 -11.11411,-0.22883 -13.61218,-1.05544 z M 119,285.96236 C 96.520919,281.27107 80.049409,257.83251 83.81201,235.8907 86.835339,218.26001 99.928978,204.06201 117.5,199.36135 c 23.08048,-6.17456 48.39912,10.44463 53.50069,35.11792 4.15236,20.08257 -8.4677,41.8108 -28.76338,49.52256 -6.20627,2.35819 -16.97737,3.26695 -23.23731,1.96053 z m 229,-0.0603 c -22.12976,-4.3218 -39.21024,-28.53807 -35.22891,-49.94661 4.72109,-25.38637 29.22096,-42.40386 53.11713,-36.8949 19.10118,4.40353 35.04661,23.77443 35.09991,42.64024 0.0781,27.65653 -26.0599,49.46018 -52.98813,44.20127 z M 113.85621,169.68379 C 97.803129,164.21199 86.727949,151.11374 83.821089,134.16224 79.111561,106.69839 105.1796,80.117287 133,84.015403 c 10.61993,1.488036 19.06489,6.065392 27.15721,14.719815 5.45391,5.832742 8.28013,11.007012 10.34755,18.944382 3.56369,13.68191 -0.16865,28.16905 -10.10423,39.21981 -12.12039,13.48079 -30.05169,18.406 -46.54432,12.78438 z m 229.90574,0.43859 c -20.97438,-6.93981 -34.38539,-28.07463 -30.95414,-48.78158 2.73097,-16.48086 14.53783,-29.931423 31.59495,-35.993453 9.31162,-3.309315 25.12359,-1.2524 34.59724,4.500614 10.56477,6.415613 19.14788,19.129939 21.26744,31.503859 3.15095,18.39511 -7.34887,37.80238 -25.0612,46.32167 -6.61439,3.18139 -8.63672,3.66631 -16.61853,3.98481 -6.98995,0.27892 -10.41225,-0.0756 -14.82576,-1.53592 z"
       id="path3306"
       inkscape:connector-curvature="0" />
    <path
       style="fill:#323232"
       d="M 142,485.51024 C 85.317963,477.60121 36.12336,439.79399 13.45198,386.71805 8.75502,375.722 4.136787,359.37312 1.9414214,345.96984 0.27678858,335.80683 -0.58595935,180.1754 0.89545435,157.28745 2.9655713,125.30399 11.534044,98.82626 27.524538,75 52.475539,37.822346 88.334411,13.618464 133,3.8065805 L 143.5,1.5 243,1.5 c 91.7763,0 100.19863,0.1395914 108.5,1.7982766 32.96628,6.586943 60.76985,20.7769344 84.10165,42.9226004 28.6887,27.230242 46.25287,63.385773 50.34537,103.635073 1.41701,13.93615 1.41701,174.35195 0,188.2881 -4.80333,47.2402 -28.37529,88.93816 -66.08129,116.89545 -18.85377,13.97923 -39.73454,23.25423 -65.57781,29.12892 -9.71237,2.20781 -10.53277,2.22669 -106.28792,2.44619 -75.67132,0.17345 -98.55049,-0.0649 -106,-1.10437 z M 353.26548,475.19452 C 410.59504,463.09185 455.93927,421.67234 471.4676,367.22325 477.64195,345.5733 477.5,348.47288 477.5,244 c 0,-87.17015 -0.15459,-96.32862 -1.77231,-105 C 464.80505,80.452 426.92965,36.213059 372.11228,17.975909 348.83277,10.231065 353.45941,10.5 243.5,10.5 c -90.16437,0 -98.7196,0.143176 -107,1.790692 C 107.69951,18.021001 82.675365,30.124118 61.705479,48.46562 36.825768,70.226886 19.488342,100.46703 12.37984,134.5 10.612225,142.96271 10.5,149.49976 10.5,244 c 0,94.38099 0.114105,101.04797 1.874085,109.5 7.213112,34.63985 25.915007,66.57825 51.425889,87.82322 24.462818,20.37217 51.398946,31.83231 84.700026,36.03617 1.65,0.20829 45.975,0.31775 98.5,0.24325 95.23926,-0.13508 95.52939,-0.14166 106.26548,-2.40812 z M 114.76195,399.05814 c -15.88433,-5.07782 -27.816001,-18.7665 -30.88744,-35.4358 -3.329176,-18.06809 7.166677,-37.59118 24.92897,-46.36978 7.39656,-3.65557 7.87977,-3.75256 18.69652,-3.75256 10.81675,0 11.29996,0.097 18.69652,3.75256 17.76229,8.7786 28.25815,28.30169 24.92897,46.36978 -4.88449,26.5091 -31.64947,43.33626 -56.36354,35.4358 z m 229,0 c -15.92904,-5.09211 -27.9182,-19.02364 -30.88993,-35.8944 -3.17005,-17.99665 8.04646,-37.99192 26.12798,-46.5774 6.04477,-2.87019 7.27402,-3.08634 17.55186,-3.08634 10.75681,0 11.25457,0.10018 18.64466,3.75256 17.85273,8.8233 28.27009,28.23689 24.91699,46.43481 -4.89006,26.53927 -31.57744,43.29042 -56.35156,35.37077 z M 118.25116,285.48354 C 96.092332,280.6699 80.228378,257.94199 83.835052,236.17641 c 3.1811,-19.19733 18.160368,-34.12824 37.575148,-37.45385 22.35603,-3.82943 45.35815,13.2474 49.76534,36.94589 2.36199,12.701 -2.62098,27.5596 -12.58334,37.52196 -6.68784,6.68784 -13.54693,10.48082 -22.31181,12.3381 -8.12267,1.72119 -9.91963,1.71671 -18.02923,-0.045 z m 229.70017,0.15374 c -8.18194,-1.76227 -16.099,-6.17625 -22.4257,-12.50296 -13.75402,-13.75401 -16.94362,-32.65224 -8.43297,-49.96492 8.29164,-16.86717 28.56551,-27.63164 45.9519,-24.39831 19.44949,3.61701 33.90897,18.23426 37.23288,37.63911 3.703,21.61797 -12.49355,44.34981 -34.99705,49.11831 -7.97138,1.68913 -9.93448,1.70146 -17.32906,0.10877 z M 114.76195,170.05814 C 98.869033,164.97757 86.953318,151.1561 83.786779,134.12891 80.530495,116.61913 91.274953,96.91563 108.80348,88.252564 116.20004,84.596986 116.68325,84.5 127.5,84.5 c 10.81675,0 11.29996,0.09699 18.69652,3.752564 17.76229,8.7786 28.25815,28.301686 24.92897,46.369776 -4.87666,26.46659 -31.6891,43.32359 -56.36354,35.4358 z m 229,0 c -15.92904,-5.09211 -27.9182,-19.02364 -30.88993,-35.8944 -3.13387,-17.79131 7.44251,-37.267668 24.93146,-45.911176 C 345.19357,84.600183 345.69133,84.5 356.44814,84.5 c 10.37,0 11.47063,0.198358 17.83946,3.215058 18.31861,8.676901 29.23238,28.484752 25.83969,46.897512 -4.89617,26.57248 -31.59698,43.36338 -56.36534,35.44557 z"
       id="path3304"
       inkscape:connector-curvature="0" />
    <path
       style="fill:#000000"
       d="M 146,485.89339 C 76.099241,477.99796 18.818144,425.41325 3.8282808,355.37811 L 1.5,344.5 1.5,244 1.5,143.5 3.8282808,132.62189 C 17.895826,66.895977 67.418651,17.759255 133.63015,3.8320172 144.42976,1.5603749 145.0977,1.5434864 237,1.2183425 344.40098,0.83836529 348.77452,1.0914121 373.34142,9.1068572 430.69792,27.820574 473.31228,77.124821 484.31344,137.5 486.46211,149.29203 486.5,151.13777 486.5,244 c 0,92.86223 -0.0379,94.70797 -2.18656,106.5 -13.08208,71.7954 -69.26826,125.6003 -140.97506,135.00024 -9.50222,1.24563 -26.55516,1.47778 -100.6396,1.37002 C 193.63945,486.79891 150.125,486.35932 146,485.89339 z m 199.48955,-9.4108 c 35.80061,-5.39583 65.16465,-20.62537 90.13219,-46.74669 23.49955,-24.58549 37.65305,-55.71285 41.36855,-90.98061 0.55364,-5.25517 0.97505,-46.2082 0.97505,-94.75529 0,-48.54709 -0.42141,-89.50012 -0.97505,-94.75529 C 473.22017,113.45855 459.01393,82.577702 434.71587,57.35059 411.79426,33.552571 386.23641,19.63808 352,12.317506 344.10617,10.629615 336.36855,10.5 243.5,10.5 l -100,0 -10.24903,2.268738 C 101.61501,19.771712 76.752467,33.165925 54.944686,54.954737 27.815337,82.060488 13.015681,114.45982 9.9887949,153.37194 c -1.2272306,15.77666 -1.2272306,165.47946 0,181.25612 1.1578151,14.88428 3.1149731,24.76369 7.5530941,38.12674 18.312951,55.13977 65.256288,94.67888 123.085721,103.67177 13.69842,2.1302 190.77875,2.17863 204.86194,0.056 z m -227.7354,-76.50287 c -21.580457,-5.45434 -37.194918,-28.09513 -33.821677,-49.04104 5.964515,-37.03626 51.530617,-50.8302 76.222737,-23.07445 19.71089,22.15649 12.54054,55.88088 -14.624,68.78126 -6.3544,3.01769 -8.81708,3.63075 -15.78033,3.92835 -4.53798,0.19394 -9.93651,-0.0734 -11.99673,-0.59412 z m 229,-0.0637 c -11.72126,-2.76321 -24.17623,-12.89418 -29.66136,-24.12678 -11.674,-23.90636 1.15966,-52.85285 26.99817,-60.8947 24.88904,-7.74634 51.32964,9.21746 56.03913,35.95368 2.856,16.21381 -6.68977,35.37114 -22.13009,44.41265 -8.56485,5.0154 -21.52635,6.94646 -31.24585,4.65515 z M 121.69863,285.8883 c -13.06834,-1.43026 -28.067777,-12.52032 -34.05704,-25.18059 -7.779963,-16.44549 -4.167851,-35.79014 9.17415,-49.13215 17.63155,-17.63155 43.78398,-17.58207 61.49721,0.11635 17.22102,17.20662 17.63314,42.371 0.98835,60.34937 -9.72934,10.50885 -23.10362,15.43387 -37.60267,13.84702 z m 229.15562,0.0164 c -13.22982,-1.44953 -27.1104,-11.57391 -33.44764,-24.39644 -8.7166,-17.63684 -5.28016,-36.63064 9.13108,-50.46901 7.23797,-6.95027 13.93719,-10.40631 23.476,-12.11099 27.9057,-4.98703 55.03251,22.24059 49.97106,50.15679 -4.24235,23.39852 -25.59218,39.39862 -49.1305,36.81965 z M 117,170.56703 C 95.366144,164.53772 80.575062,142.78629 83.932473,121.93868 89.037585,90.238827 124.40278,73.932609 151.01371,91.008795 165.33994,100.20191 173.74927,118.43229 170.98993,134.31474 166.57239,159.7416 140.63876,177.15509 117,170.56703 z m 229,0.0644 c -27.0015,-7.9114 -40.75849,-36.59867 -29.20725,-60.90546 8.09035,-17.02418 24.53026,-26.743523 43.08458,-25.471782 19.64621,1.346581 36.67884,17.048522 40.1566,37.019322 3.21309,18.4509 -7.41952,37.78436 -25.50272,46.37203 -6.34007,3.01089 -8.83279,3.63327 -15.78033,3.94005 -4.97909,0.21986 -10.0353,-0.1585 -12.75088,-0.95416 z"
       id="path3302"
       inkscape:connector-curvature="0" />
  </g>
</svg>
