<?xml version="1.0" encoding="UTF-8" standalone="no"?>
<!-- Created with Inkscape (http://www.inkscape.org/) -->

<svg
   xmlns:dc="http://purl.org/dc/elements/1.1/"
   xmlns:cc="http://creativecommons.org/ns#"
   xmlns:rdf="http://www.w3.org/1999/02/22-rdf-syntax-ns#"
   xmlns:svg="http://www.w3.org/2000/svg"
   xmlns="http://www.w3.org/2000/svg"
   xmlns:sodipodi="http://sodipodi.sourceforge.net/DTD/sodipodi-0.dtd"
   xmlns:inkscape="http://www.inkscape.org/namespaces/inkscape"
   id="svg3085"
   version="1.1"
   inkscape:version="0.48.4 r9939"
   width="488"
   height="488"
   sodipodi:docname="die3.png">
  <metadata
     id="metadata3091">
    <rdf:RDF>
      <cc:Work
         rdf:about="">
        <dc:format>image/svg+xml</dc:format>
        <dc:type
           rdf:resource="http://purl.org/dc/dcmitype/StillImage" />
        <dc:title></dc:title>
      </cc:Work>
    </rdf:RDF>
  </metadata>
  <defs
     id="defs3089" />
  <sodipodi:namedview
     pagecolor="#ffffff"
     bordercolor="#666666"
     borderopacity="1"
     objecttolerance="10"
     gridtolerance="10"
     guidetolerance="10"
     inkscape:pageopacity="0"
     inkscape:pageshadow="2"
     inkscape:window-width="640"
     inkscape:window-height="480"
     id="namedview3087"
     showgrid="false"
     inkscape:zoom="0.48360656"
     inkscape:cx="244"
     inkscape:cy="244"
     inkscape:window-x="53"
     inkscape:window-y="24"
     inkscape:window-maximized="0"
     inkscape:current-layer="svg3085" />
  <g
     id="g3189">
    <path
       style="fill:#fefefe"
       d="M 0,244 0,0 l 244,0 244,0 0,244 0,244 -244,0 -244,0 0,-244 z"
       id="path3205"
       inkscape:connector-curvature="0" />
    <path
       style="fill:#d0d0d0"
       d="M 147.58949,486.90009 C 75.761265,479.32841 17.346863,425.61126 2.7767842,353.73214 L 0.5,342.5 0.5,244 0.5,145.5 2.7767842,134.26786 C 17.489136,61.686858 75.733531,8.6104776 149,1.0189974 162.07916,-0.33619586 324.76912,-0.30696505 338.14405,1.0529812 359.66567,3.2412743 376.152,7.9918062 395.5,17.580085 440.77411,40.01655 471.10289,78.610812 483.80579,129.95181 l 2.60986,10.54819 0.34113,98 c 0.23602,67.80393 -7e-5,100.59096 -0.76621,106.40884 -2.74692,20.8595 -11.0818,44.61669 -21.84859,62.27578 -8.30277,13.61775 -14.05616,20.85342 -26.09292,32.81538 -27.05486,26.88674 -60.47622,42.69067 -99.25965,46.93684 -11.57529,1.26732 -179.13455,1.23511 -191.19992,-0.0368 z M 355.5,474.1894 c 30.17261,-7.38189 53.38122,-19.60209 73.24767,-38.56766 26.74274,-25.53005 42.77429,-57.30963 47.21524,-93.59551 1.40309,-11.46424 1.40309,-184.58822 0,-196.05246 C 471.52196,109.68789 455.49041,77.908309 428.74767,52.378263 408.88084,33.412336 385.66795,21.190049 355.5,13.811151 c -8.91067,-2.179496 -9.97647,-2.20474 -107.38085,-2.543417 -94.22494,-0.327623 -98.87168,-0.258697 -110,1.631656 C 73.219605,23.923786 24.664054,72.577248 12.272308,139 10.654587,147.67138 10.5,156.82985 10.5,244 c 0,87.17015 0.154587,96.32862 1.772308,105 10.832335,58.06393 48.654838,102.30782 103.006992,120.49518 22.54118,7.54275 20.08344,7.40956 131.7207,7.13808 98.73905,-0.24011 99.56883,-0.2588 108.5,-2.44386 z m -9.24933,-73.73454 C 325.96,394.99105 312,377.27296 312,356.98376 c 0,-28.83621 27.87636,-50.6353 55.5399,-43.43176 21.60156,5.62501 36.75967,28.2065 33.36043,49.698 -4.07411,25.75827 -30.45693,43.71939 -54.64966,37.20486 z M 227.87836,284.69124 c -15.60243,-5.31841 -27.28174,-19.3228 -30.16823,-36.17401 -3.86492,-22.56323 14.76604,-47.2219 38.03987,-50.34699 22.2703,-2.99035 44.04956,11.59834 49.698,33.28986 8.77801,33.70989 -24.51863,64.49727 -57.56964,53.23114 z M 119.17629,171.93 C 103.8978,168.92331 89.577411,156.08451 85.010685,141.29917 74.740408,108.04788 105.11431,75.848027 138.5399,84.552001 155.35485,88.93059 169.62877,104.79952 171.7742,121.5 c 3.89387,30.31074 -23.13716,56.22764 -52.59791,50.43 z"
       id="path3203"
       inkscape:connector-curvature="0" />
    <path
       style="fill:#ababab"
       d="M 150.2792,486.95856 C 84.125037,481.53153 25.130999,432.99453 6.5859418,368.73577 0.3133217,347.00109 0.5,350.8272 0.5,244 0.5,154.68096 0.64921183,145.72505 2.278294,137.26423 8.9090389,102.82671 23.45004,74.755205 47.401135,50.154263 75.642211,21.146944 111.52857,4.3655941 152.4193,1.0451675 168.59618,-0.26843488 317.9236,-0.31056098 334.6933,0.99374698 357.06587,2.7338337 376.06752,7.9080707 395.19441,17.468481 441.38572,40.556801 473.13294,81.792506 484.2583,133.15145 486.49705,143.48638 486.5,143.63228 486.5,244 c 0,100.36772 -0.003,100.51362 -2.2417,110.84855 -11.64049,53.73696 -46.39413,97.01747 -95.34147,118.73368 -17.21579,7.63803 -33.70542,11.75838 -53.68149,13.41368 -13.59207,1.12629 -171.15948,1.09447 -184.95614,-0.0374 z m 184.3015,-10.00373 c 22.24763,-1.80656 39.7526,-6.58767 58.42412,-15.95733 41.85653,-21.00424 70.70574,-58.7669 81.24708,-106.34974 L 476.5,344.5 l 0,-100 c 0,-92.80338 -0.13114,-100.64509 -1.82229,-108.96372 C 464.82054,87.049579 435.46998,48.321065 392.06886,26.532644 374.4302,17.677606 355.80473,12.699554 334,11.012511 318.08429,9.781105 170.64566,9.7548995 153.90116,10.980501 131.03461,12.654201 114.54584,17.110666 94.494451,27.036512 54.254117,46.956296 24.436496,84.999868 14.186077,129.5 10.323518,146.26852 10,155.11758 10,244 c 0,53.65961 0.397895,89.73605 1.056483,95.78941 2.826148,25.97634 11.222311,48.95284 26.0393,71.25779 7.694616,11.58319 25.988341,30.17642 37.834592,38.45403 22.382791,15.64005 49.328305,25.29278 76.569625,27.42966 15.45999,1.21272 168.19507,1.23269 183.0807,0.0239 z m 12.75467,-76.31642 c -16.75811,-4.26225 -30.5236,-18.10069 -34.34774,-34.52975 -5.54633,-23.82783 12.20331,-49.13338 37.39019,-53.30698 18.31068,-3.03418 38.06646,7.84954 46.64674,25.69832 2.88086,5.9928 3.42549,8.31652 3.78514,16.14974 0.34551,7.52544 0.0301,10.32169 -1.77679,15.75136 -7.11264,21.37349 -31.18658,35.45407 -51.69754,30.23731 z M 231.61774,285.95097 c -16.17991,-4.0621 -30.562,-19.83489 -33.61546,-36.86596 -2.86645,-15.98804 5.24516,-34.08092 19.53076,-43.56316 27.27884,-18.10666 63.11613,-1.96928 68.75683,30.96092 3.0744,17.9482 -7.94762,37.7043 -25.75285,46.15996 -6.58934,3.12927 -8.77199,3.65717 -16.32178,3.94762 -4.79338,0.18441 -10.46226,-0.10331 -12.5975,-0.63938 z M 118.95133,171.63728 C 105.52089,168.74456 93.705743,159.25278 87.231385,146.15484 83.635473,138.88014 83.5,138.22293 83.5,128.05304 c 0,-10.11418 0.154497,-10.87659 3.715114,-18.33337 6.633951,-13.893072 19.120806,-23.414996 34.062226,-25.974354 15.91978,-2.726941 34.49444,5.873749 43.71387,20.240974 16.78915,26.16363 1.8933,61.05514 -28.84723,67.57076 -7.82984,1.65957 -9.81696,1.66885 -17.19265,0.0802 z"
       id="path3201"
       inkscape:connector-curvature="0" />
    <path
       style="fill:#8f8f8f"
       d="M 153,486.94696 C 74.018251,481.76625 9.1867863,418.70083 1.0581142,339.14405 c -1.42714939,-13.96777 -1.42714939,-176.32033 0,-190.2881 C 4.7750705,112.47743 20.245939,78.696438 45.239651,52.384559 68.586811,27.806072 96.839015,11.834178 131.22958,3.7716429 140.36089,1.6308954 141.98375,1.5932396 239.38185,1.2621426 335.17716,0.9364942 338.63895,0.98973404 350.28519,2.9677586 412.12277,13.470393 464.03059,60.10744 480.89557,120.31582 486.65881,140.89074 486.5,137.38599 486.5,244 c 0,106.61401 0.15881,103.10926 -5.60443,123.68418 -14.28059,50.98203 -54.0611,93.07336 -104.58405,110.65924 -14.21709,4.94865 -27.28341,7.54218 -43.61727,8.65761 -16.36138,1.1173 -162.50667,1.07333 -179.69425,-0.0541 z m 184.14405,-9.99994 c 37.83579,-3.8471 69.44609,-18.59562 95.32648,-44.4768 C 453.85038,411.08973 468.25157,384.11178 474.62592,353.5 476.3859,345.04797 476.5,338.38099 476.5,244 c 0,-94.60474 -0.11057,-101.02793 -1.88491,-109.5 -2.86736,-13.69096 -7.05838,-25.76307 -13.53944,-39 C 453.44181,79.908649 444.88191,67.943802 432.48009,55.529776 406.73681,29.761143 374.85487,14.887373 337.14405,11.052981 323.35845,9.6512781 165.31316,9.6400784 150.5529,11.039759 114.27865,14.47956 83.149526,28.518516 57.724442,52.904565 30.899879,78.632901 15.750171,109.16799 11.052854,146.97377 c -1.4312036,11.51886 -1.4312036,182.5336 0,194.05246 4.704933,37.86708 19.803534,68.29916 46.671588,94.0692 24.780924,23.76822 56.087028,38.18531 90.775558,41.80399 12.09526,1.26176 176.29539,1.3032 188.64405,0.0476 z m 13.1492,-75.95774 c -18.10824,-2.64417 -34.39,-18.83075 -37.56069,-37.3411 -3.97003,-23.17685 13.31603,-46.48914 37.59145,-50.69654 20.51497,-3.55563 42.25672,10.42274 48.90782,31.44418 3.07121,9.70687 2.18454,21.08928 -2.3938,30.72997 -8.67673,18.27072 -27.37771,28.66228 -46.54478,25.86349 z M 231.10463,285.41748 c -8.0476,-2.16412 -14.45758,-6.05829 -20.63827,-12.53809 -21.43484,-22.4722 -14.96388,-56.63971 13.37997,-70.64801 7.27552,-3.59575 7.93348,-3.73138 18.10181,-3.73138 10.12276,0 10.86994,0.15188 18.37364,3.7348 18.3957,8.7837 29.05667,28.24851 25.71459,46.94969 -4.6226,25.86649 -30.35765,42.84134 -54.93174,36.23299 z M 121.85425,171.90672 c -11.60585,-1.27584 -26.368802,-11.10311 -32.566396,-21.67851 -3.634135,-6.20118 -6.289674,-15.53845 -6.275985,-22.0673 0.05573,-26.5787 25.660821,-48.76781 51.118261,-44.298558 14.63206,2.568772 27.10663,12.143357 33.63507,25.815868 3.583,7.50387 3.7348,8.2507 3.7348,18.37482 0,10.16989 -0.13547,10.8271 -3.73138,18.1018 -8.96792,18.14253 -26.36646,27.90081 -45.91437,25.75188 z"
       id="path3199"
       inkscape:connector-curvature="0" />
    <path
       style="fill:#6f6f6f"
       d="M 141.23093,485.8704 C 122.34853,483.11418 98.170264,474.57968 82.061119,464.9845 35.490775,437.24553 6.1190928,391.01096 1.0397587,337.4471 c -1.38521773,-14.60775 -1.38521773,-172.28645 0,-186.8942 C 4.7841324,111.0668 20.764064,77.232114 49.002627,49 70.745024,27.262568 94.727714,13.42556 123.5,6.0181326 143.1806,0.95136081 146.05268,0.8426508 250,1.2300249 L 346.5,1.5896455 358,4.388357 c 34.02917,8.281551 59.62656,22.92716 83.59427,47.828667 21.56377,22.403908 36.27997,50.730146 42.62979,82.055216 L 486.5,145.5 l 0,98 c 0,91.23195 -0.12826,98.69062 -1.8572,108 -5.90844,31.81371 -21.01584,61.39187 -43.04853,84.28298 -24.49764,25.45208 -51.35587,40.55747 -86.10313,48.42542 -9.9848,2.26089 -10.05396,2.26243 -108.99114,2.4197 -55.58809,0.0884 -101.74901,-0.24389 -105.26907,-0.7577 z m 208.44785,-10.12408 c 49.56907,-9.46959 89.39405,-38.98343 111.21795,-82.42236 9.74548,-19.39768 14.51476,-37.35316 16.1043,-60.62971 1.26623,-18.54227 1.25633,-158.99041 -0.0125,-177.57472 C 474.32256,116.07266 459.45704,82.565143 433,55.967551 409.88072,32.725459 383.97095,19.111993 350,12.357848 342.50545,10.867772 330.91324,10.619319 252,10.257438 156.4825,9.819413 146.04917,10.174589 128.34885,14.466824 103.14529,20.578558 79.868714,32.542205 62.173506,48.479492 36.201687,71.871154 20.765099,98.488058 12.865498,133.5 c -2.238948,9.92327 -2.259056,10.72122 -2.620735,104 -0.3928769,101.32512 -0.23851,105.39227 4.749779,125.14371 8.512268,33.70484 29.012842,64.1263 57.505458,85.33418 20.837644,15.51007 49.74735,26.32935 78.5,29.37814 1.925,0.20412 45.575,0.27699 97,0.16194 80.00364,-0.17899 94.68057,-0.43472 101.67878,-1.77165 z m -6.19184,-76.54509 c -20.98335,-7.25587 -34.26987,-28.32616 -30.76487,-48.78816 2.62816,-15.34309 13.83447,-29.15148 28.27793,-34.84398 21.08771,-8.31116 44.9874,1.46294 55.47753,22.68827 14.16658,28.66413 -7.50356,62.83824 -39.76504,62.70999 -5.11738,-0.0203 -10.1018,-0.68595 -13.22555,-1.76612 z M 231.02424,285.39691 C 219.01554,282.16988 208.05351,272.93394 202.21796,261.1265 198.60541,253.817 198.5,253.2904 198.5,242.55186 c 0,-10.36033 0.20032,-11.47475 3.20145,-17.81039 13.81843,-29.17185 49.59976,-35.57129 72.00838,-12.87861 17.33907,17.55886 16.8603,44.70992 -1.09237,61.94896 -6.90867,6.63404 -11.88824,9.50272 -20.29706,11.69294 -7.10136,1.84967 -14.14438,1.814 -21.29616,-0.10785 z M 114.48694,170.25718 c -21.170092,-7.5567 -34.269093,-28.38661 -30.754381,-48.90536 3.243803,-18.93719 18.728051,-34.310264 37.594051,-37.324121 25.70001,-4.105596 50.60587,17.590861 50.66152,44.133211 0.0137,6.52885 -2.64185,15.86612 -6.27598,22.0673 -3.80968,6.50072 -12.84687,14.47103 -20.45362,18.03897 -5.84236,2.74035 -8.04633,3.21138 -16.25853,3.47475 -7.19786,0.23083 -10.71482,-0.12897 -14.51306,-1.48475 z"
       id="path3197"
       inkscape:connector-curvature="0" />
    <path
       style="fill:#515151"
       d="m 146,486.32262 c -8.74537,-0.98483 -25.27732,-4.83407 -34.44931,-8.02105 C 48.773507,456.48843 5.8404076,400.49622 0.98050095,334.09884 c -1.19927303,-16.38479 -1.19927303,-163.81289 0,-180.19768 C 5.9060273,86.607271 50.138655,29.82457 113.82348,9.0413656 137.7141,1.2447882 133.27488,1.5 245,1.5 l 99.5,0 10.24903,2.268738 c 31.59878,6.994742 58.37881,21.057453 80.71945,42.387335 26.09666,24.915968 42.26799,54.829547 49.25323,91.108157 C 486.35079,145.72505 486.5,154.68096 486.5,244 c 0,89.31904 -0.14921,98.27495 -1.77829,106.73577 -7.04362,36.58181 -23.22952,66.39047 -49.7246,91.57498 -21.99575,20.90775 -48.24559,34.68238 -79.82,41.88565 -9.59843,2.18975 -10.47392,2.20897 -107.67711,2.36403 -53.9,0.086 -99.575,-0.021 -101.5,-0.23781 z m 197.02204,-9.76265 c 35.58299,-4.73779 64.1002,-18.77286 89.52339,-44.05997 26.21347,-26.07317 41.04032,-58.32162 44.43193,-96.63967 1.32137,-14.92865 1.32137,-168.79201 0,-183.72066 C 472.34453,99.798497 444.29718,55.607964 399.51178,30.087266 382.22116,20.23431 360.36754,13.267271 339.78941,11.04749 326.84445,9.6511045 159.72474,9.6469988 147.54052,11.042767 127.72046,13.313261 111.62727,18.022783 94.5,26.564579 52.204791,47.65825 22.061513,87.629726 12.32229,135.53628 10.631143,143.85491 10.5,151.69662 10.5,244.5 l 0,100 2.248101,10.14776 c 4.575617,20.65401 11.890164,38.08627 23.015903,54.85224 25.037312,37.73006 65.156876,62.12639 110.910986,67.44395 3.75376,0.43626 47.10001,0.84356 96.32501,0.9051 71.57234,0.0895 91.60766,-0.16872 100.02204,-1.28908 z M 344.5,399.65311 c -16.26428,-5.38188 -28.55131,-19.34659 -31.60519,-35.92057 -3.34317,-18.14407 7.09939,-37.67815 24.82531,-46.43878 6.70545,-3.31401 8.51811,-3.75548 16.93068,-4.12342 7.9322,-0.34692 10.3892,-0.0591 15.54546,1.82095 8.13267,2.96532 11.28402,4.97401 17.60122,11.21914 6.36545,6.29282 10.92448,15.11895 12.46996,24.14139 3.20605,18.7168 -7.64167,38.30034 -25.97984,46.90175 -5.9063,2.77032 -8.02107,3.21871 -16.2876,3.45342 -5.91553,0.16795 -11.00925,-0.22969 -13.5,-1.05388 z m -112,-114.04208 c -12.9039,-3.14566 -24.53949,-12.76992 -30.72359,-25.41272 -3.10019,-6.33804 -3.27641,-7.29273 -3.27641,-17.75017 0,-10.75681 0.10018,-11.25457 3.75256,-18.64466 6.53528,-13.22323 19.00808,-22.6572 33.16051,-25.08141 13.11207,-2.24601 27.60083,2.59196 37.3765,12.48045 9.56069,9.67103 13.28856,18.47229 13.302,31.40516 0.0132,12.67686 -4.76194,23.2346 -14.55805,32.18769 -11.1596,10.19925 -25.38871,14.14194 -39.03352,10.81566 z M 117.28143,171.0855 C 110.46189,169.34798 102.31396,164.4509 96.455812,158.56885 79.348135,141.39137 78.828372,116.38472 95.206541,98.464389 109.56436,82.754645 132.40468,79.16294 150,89.847961 c 10.56477,6.415613 19.14788,19.129939 21.26744,31.503859 3.14031,18.33298 -7.23531,37.58078 -24.98756,46.35442 -6.79703,3.35927 -8.37608,3.73451 -16.64466,3.95533 -5.02437,0.13418 -10.58358,-0.12505 -12.35379,-0.57607 z"
       id="path3195"
       inkscape:connector-curvature="0" />
    <path
       style="fill:#2a2a2a"
       d="M 144,485.94305 C 72.861725,476.6955 15.091953,421.23034 3.0139014,350.58131 1.0923689,339.34155 1,334.45314 1,244 1,153.54686 1.0923689,148.65845 3.0139014,137.41869 15.033158,67.113574 72.233475,11.855525 142.69903,2.476642 156.46208,0.64479547 327.89104,0.32277751 342.5,2.1013291 389.57403,7.8323046 432.52851,34.422194 459.45601,74.5 c 5.9344,8.832519 15.70534,28.68811 18.95083,38.51012 3.5492,10.7411 6.31373,23.89259 7.53505,35.84583 1.42715,13.96777 1.42715,176.32033 0,190.2881 -3.75904,36.79039 -19.2209,70.32062 -44.75941,97.0642 -23.39645,24.50046 -52.05039,40.29561 -87.18248,48.05833 -9.24847,2.04352 -12.06826,2.10469 -106.5,2.31026 -53.35,0.11615 -99.925,-0.16906 -103.5,-0.63379 z m 208,-10.3105 c 28.99636,-5.85447 56.53208,-19.99344 77.40085,-39.7436 27.22253,-25.76334 43.32749,-58.66019 47.53599,-97.09954 1.39181,-12.71236 1.42859,-176.86763 0.0424,-189.28941 -2.35147,-21.07204 -6.95648,-36.90318 -16.01359,-55.051695 C 443.01654,58.482121 410.97197,30.904061 372.10512,17.973515 348.84286,10.234434 353.39498,10.5 244,10.5 152.99716,10.5 145.83362,10.624592 136.5,12.369704 73.470592,24.154336 25.637395,71.222606 12.384912,134.5 10.610568,142.97207 10.5,149.39526 10.5,244 c 0,94.38099 0.114105,101.04797 1.874085,109.5 7.213112,34.63985 25.915007,66.57825 51.425889,87.82322 24.466739,20.37543 51.320526,31.80121 84.700026,36.03826 1.65,0.20944 46.2,0.29226 99,0.18403 86.23889,-0.17677 96.86427,-0.37128 104.5,-1.91296 z m -8.23805,-76.57441 c -15.97666,-5.10734 -28.1384,-19.28677 -30.81905,-35.93207 -2.92018,-18.13269 7.81168,-37.5353 25.5571,-46.20582 6.68246,-3.2651 7.50134,-3.42025 18.05186,-3.42025 10.75681,0 11.25457,0.10018 18.64466,3.75256 17.81221,8.80327 28.21756,28.02569 25.08141,46.33437 -4.50089,26.27601 -31.7604,43.38494 -56.51598,35.47121 z M 234.10833,285.9184 c -10.98945,-2.15821 -22.97058,-10.35355 -29.09954,-19.90469 -16.95905,-26.4284 -1.2443,-61.31424 30.23233,-67.11404 18.32282,-3.37611 37.64273,6.96957 46.50632,24.90381 3.65238,7.39009 3.75256,7.88785 3.75256,18.64466 0,10.27784 -0.21615,11.50709 -3.08634,17.55186 -4.44711,9.36587 -12.02097,17.20846 -20.75561,21.49203 -10.31932,5.06071 -18.01979,6.29793 -27.54972,4.42637 z M 114.76195,170.05814 C 98.832912,164.96603 86.843749,151.0345 83.872022,134.16374 80.717701,116.25637 91.915006,96.145682 109.74147,87.701451 116.07711,84.700319 117.19153,84.5 127.55186,84.5 c 10.75681,0 11.25457,0.100183 18.64466,3.752564 17.93424,8.863582 28.27992,28.183496 24.90381,46.506316 -4.87658,26.46619 -31.5974,43.20832 -56.33838,35.29926 z"
       id="path3193"
       inkscape:connector-curvature="0" />
    <path
       style="fill:#000000"
       d="M 143.5,485.56064 C 118.92618,482.21014 95.960226,473.72226 76.21559,460.69331 63.845927,452.5309 60.393569,449.751 50.140472,439.69711 26.287919,416.30799 11.185671,388.70503 3.8006328,355 L 1.5,344.5 1.5,244 1.5,143.5 3.8099862,133 C 11.492293,98.080212 26.598116,71.041433 52.135159,46.5 78.203431,21.448049 111.44611,5.905437 147.21059,2.0474899 153.21785,1.3994807 190.28651,1 244.40937,1 339.02539,1 344.13391,1.2336407 364.3468,6.4853916 419.4466,20.801526 464.3695,64.837026 480.39088,120.23716 486.61536,141.7607 486.5,139.42375 486.5,244 c 0,88.84856 -0.12953,96.19649 -1.85978,105.5 -6.70501,36.0527 -21.86345,64.99832 -47.13182,90 -12.84462,12.70906 -25.56646,21.79201 -42.0084,29.99256 -18.98569,9.46925 -34.50803,14.11257 -55.04052,16.46467 -13.40224,1.5353 -185.32935,1.18911 -196.95948,-0.39659 z m 210.84043,-10.3265 c 35.00989,-7.91977 61.81953,-23.47037 85.18008,-49.40765 17.17522,-19.06968 30.1265,-45.58588 35.70355,-73.09873 C 477.49917,341.50408 477.5,341.46474 477.5,244.5 477.5,135.66203 477.73208,139.64426 470.0098,115.97931 462.25803,92.223971 450.85584,73.531817 433.21969,55.667497 410.84361,33.001923 385.51728,19.484315 352,12.317506 344.10617,10.629615 336.36855,10.5 243.5,10.5 143.72041,10.5 143.47782,10.5049 133.43535,12.731163 91.769594,21.967759 58.402048,44.227471 35.914189,77.788178 20.20335,101.23491 12.141154,125.18015 10.011007,154.72227 c -1.3095755,18.16196 -1.2984738,161.9457 0.01383,179.14862 2.2335,29.27878 10.307365,53.0865 25.88935,76.34093 24.026531,35.85701 61.269685,59.36199 105.014273,66.27682 6.84715,1.08235 28.18622,1.31637 106.07154,1.16324 96.84108,-0.19039 97.5665,-0.20672 107.34043,-2.41774 z m -7.58628,-75.3181 c -11.85893,-2.79567 -24.31727,-13.05973 -29.87108,-24.60991 -2.77681,-5.77489 -3.33603,-8.18577 -3.69083,-15.91165 -0.52261,-11.37991 1.24237,-17.96876 7.1265,-26.60397 13.68912,-20.0894 39.64588,-25.64718 59.69497,-12.78172 14.3297,9.19535 23.04757,27.80547 20.19951,43.12012 -3.27218,17.59528 -16.27501,32.04899 -32.67332,36.31909 -6.45666,1.68131 -14.83859,1.87004 -20.78575,0.46804 z M 235.70709,285.8433 c -22.00167,-2.97041 -39.26451,-24.7264 -37.38725,-47.11834 2.03488,-24.27199 26.62905,-43.94215 49.83192,-39.85505 33.17638,5.84391 48.80503,43.15236 29.0604,69.37251 -9.96944,13.23906 -25.38671,19.77699 -41.50507,17.60088 z M 116.89247,170.61489 C 84.857491,161.3331 73.284361,123.40761 94.969348,98.772163 119.34582,71.079031 164.60267,84.791482 171.13009,121.84824 c 3.13588,17.80269 -7.78269,37.33638 -25.59888,45.79725 -6.34007,3.01089 -8.83279,3.63327 -15.78033,3.94005 -5.00848,0.22116 -10.06153,-0.16028 -12.85841,-0.97065 z"
       id="path3191"
       inkscape:connector-curvature="0" />
  </g>
</svg>
