<?xml version="1.0" encoding="UTF-8" standalone="no"?>
<!-- Created with Inkscape (http://www.inkscape.org/) -->

<svg
   xmlns:dc="http://purl.org/dc/elements/1.1/"
   xmlns:cc="http://creativecommons.org/ns#"
   xmlns:rdf="http://www.w3.org/1999/02/22-rdf-syntax-ns#"
   xmlns:svg="http://www.w3.org/2000/svg"
   xmlns="http://www.w3.org/2000/svg"
   xmlns:sodipodi="http://sodipodi.sourceforge.net/DTD/sodipodi-0.dtd"
   xmlns:inkscape="http://www.inkscape.org/namespaces/inkscape"
   id="svg3095"
   version="1.1"
   inkscape:version="0.48.4 r9939"
   width="488"
   height="488"
   sodipodi:docname="die2.png">
  <metadata
     id="metadata3101">
    <rdf:RDF>
      <cc:Work
         rdf:about="">
        <dc:format>image/svg+xml</dc:format>
        <dc:type
           rdf:resource="http://purl.org/dc/dcmitype/StillImage" />
        <dc:title></dc:title>
      </cc:Work>
    </rdf:RDF>
  </metadata>
  <defs
     id="defs3099" />
  <sodipodi:namedview
     pagecolor="#ffffff"
     bordercolor="#666666"
     borderopacity="1"
     objecttolerance="10"
     gridtolerance="10"
     guidetolerance="10"
     inkscape:pageopacity="0"
     inkscape:pageshadow="2"
     inkscape:window-width="640"
     inkscape:window-height="480"
     id="namedview3097"
     showgrid="false"
     inkscape:zoom="0.48360656"
     inkscape:cx="244"
     inkscape:cy="244"
     inkscape:window-x="53"
     inkscape:window-y="24"
     inkscape:window-maximized="0"
     inkscape:current-layer="svg3095" />
  <g
     id="g3152">
    <path
       style="fill:#fefefe"
       d="M 0,244 0,0 l 244,0 244,0 0,244 0,244 -244,0 -244,0 0,-244 z"
       id="path3168"
       inkscape:connector-curvature="0" />
    <path
       style="fill:#d0d0d0"
       d="M 148.35195,486.97545 C 128.35037,484.86843 110.10083,479.41969 91.047773,469.86622 40.599687,444.57083 7.3090145,396.07978 1.0593106,338.78941 -0.37730371,325.62012 -0.37399171,162.33711 1.0631559,149.21059 5.4231101,109.38791 22.388193,74.218223 50.137108,47.477178 75.690749,22.851672 102.52373,9.1025419 138.42396,2.2392968 145.21898,0.94025389 160.77575,0.62883053 236.5,0.27595977 329.94358,-0.15948206 338.98738,0.11880408 357.71367,4.0058171 405.3991,13.903876 448.02243,47.110627 470.01895,91.5 c 10.1315,20.44554 14.66646,35.8619 16.96311,57.66515 1.35937,12.90523 1.32475,176.62012 -0.0402,189.9789 -2.18183,21.35393 -6.74255,36.81154 -16.92271,57.35595 -15.82968,31.94561 -41.57226,57.68811 -73.51918,73.51895 -20.54396,10.18027 -36.00163,14.74107 -57.35595,16.92294 -11.87148,1.21296 -179.31662,1.24241 -190.7921,0.0336 z M 355.84933,474.21673 C 417.65281,459.70826 461.86722,414.77163 474.62592,353.5 476.3859,345.04797 476.5,338.38099 476.5,244 476.5,149.61901 476.3859,142.95203 474.62592,134.5 461.70572,72.452768 415.65014,26.40131 353.5,13.384912 345.02793,11.610568 338.60474,11.5 244,11.5 149.39526,11.5 142.97207,11.610568 134.5,13.384912 107.7792,18.981176 83.741808,30.761816 63.178957,48.339104 38.504558,69.430976 20.480982,100.61799 13.384912,134.5 11.610568,142.97207 11.5,149.39526 11.5,244 c 0,94.60474 0.110568,101.02793 1.884912,109.5 9.87579,47.1545 39.238501,86.00521 80.978312,107.1449 15.012526,7.6033 29.209716,12.19019 46.136776,14.90607 6.19043,0.99323 30.3934,1.23572 107,1.07205 98.04875,-0.20948 99.08983,-0.2326 108.34933,-2.40629 z M 348,400.90205 c -7.33756,-1.43298 -16.08603,-6.3719 -22.30809,-12.59396 -17.90087,-17.90087 -17.93663,-44.84598 -0.0832,-62.69939 17.84335,-17.84335 45.04188,-17.79547 62.80568,0.11056 17.53702,17.67744 17.83964,43.55673 0.71987,61.5609 C 377.90503,399.08948 363.36836,403.90339 348,400.90205 z M 117.60448,171.40682 C 95.625296,166.08846 80.019755,143.02702 83.732559,121.35182 85.019534,113.83851 89.348994,104.38564 94.1518,98.602616 101.12929,90.201065 116.47212,83 127.39524,83 c 27.07469,0 49.46542,25.92365 44.70509,51.75888 -1.82098,9.8828 -5.54727,16.83994 -13.02439,24.31706 -11.94147,11.94147 -25.91284,16.09564 -41.47146,12.33088 z"
       id="path3166"
       inkscape:connector-curvature="0" />
    <path
       style="fill:#a9a9a9"
       d="M 150.04001,486.8855 C 122.26006,484.42035 93.221847,473.65916 70,457.22371 57.828162,448.60898 39.391016,430.17184 30.776295,418 17.143123,398.73754 7.0619121,374.51226 2.6865597,350.5 0.53789499,338.70797 0.5,336.86223 0.5,244 0.5,151.13777 0.53789499,149.29203 2.6865597,137.5 7.0337736,113.64217 17.26888,89.045935 30.769994,70.012011 39.392986,57.855282 57.855282,39.392986 70.012011,30.769994 89.045935,17.26888 113.64217,7.0337736 137.5,2.6865597 149.29203,0.53789499 151.13777,0.5 244,0.5 c 92.86223,0 94.70797,0.037895 106.5,2.1865597 24.01226,4.3753524 48.23754,14.4565633 67.5,28.0897353 12.18656,8.625139 30.70213,27.132383 38.98332,38.965773 17.56239,25.095768 27.39344,51.921322 29.96271,81.757932 1.36819,15.88864 1.36819,169.11136 0,185 -3.40598,39.55323 -19.58959,74.15914 -47.93824,102.50779 -28.34865,28.34865 -62.95456,44.53226 -102.50779,47.93824 -14.32644,1.23367 -172.45403,1.18233 -186.45999,-0.0605 z m 198.48981,-11.17722 c 33.64499,-6.13113 61.02883,-20.2072 84.00005,-43.17841 23.11421,-23.11422 37.12811,-50.49556 43.25671,-84.51798 C 477.32528,339.46994 477.5,328.86376 477.5,244 c 0,-84.86376 -0.17472,-95.46994 -1.71342,-104.01189 -6.1286,-34.02242 -20.1425,-61.403765 -43.25671,-84.517975 C 409.41545,32.355717 382.0314,18.340546 348.01189,12.213785 339.47081,10.675574 328.85507,10.500736 244,10.500736 c -84.85507,0 -95.47081,0.174838 -104.01189,1.713049 -34.01951,6.126761 -61.403557,20.141932 -84.517975,43.25635 -18.911371,18.91137 -31.445432,40.160446 -38.935785,66.008085 -5.858282,20.21571 -5.835396,19.80961 -6.27722,111.38741 -0.5109909,105.91422 0.02895,115.03116 8.284759,139.88917 19.400292,58.41372 71.40839,99.17642 132.958111,104.20937 5.5,0.44974 50.05,0.72138 99,0.60366 77.65582,-0.18676 90.15097,-0.42379 98.02982,-1.85955 z m 0.57851,-74.78988 c -12.5903,-2.47259 -25.31977,-12.0832 -31.44595,-23.74135 -9.40446,-17.89671 -6.38927,-36.60204 8.26168,-51.25299 17.74586,-17.74586 42.6795,-18.29543 60.98878,-1.34427 10.89779,10.08943 16.52444,25.40829 14.20807,38.68218 -3.27611,18.7736 -18.40225,34.18811 -37.01173,37.71732 -6.14289,1.16498 -8.81397,1.15414 -15.00085,-0.0609 z M 120.55302,171.97101 c -8.31952,-1.44893 -18.66997,-7.24989 -24.854319,-13.92973 -17.19425,-18.57184 -16.488532,-44.44974 1.686217,-61.83172 17.948252,-17.165363 42.444662,-17.371676 60.656362,-0.510859 10.59674,9.810709 16.13503,24.750299 14.07663,37.971809 -3.8556,24.76531 -27.67903,42.46048 -51.56489,38.3005 z"
       id="path3164"
       inkscape:connector-curvature="0" />
    <path
       style="fill:#959595"
       d="M 152.93397,486.96364 C 117.77568,484.46194 84.517617,470.52539 57.024408,446.77343 30.436516,423.80358 11.967689,392.27024 3.8443691,355.97478 L 1.5,345.5 1.5,244 1.5,142.5 3.8443691,132.02522 C 11.94413,95.835026 29.957194,64.963098 56.5,41.780676 77.898423,23.091345 100.66843,11.439566 129.95181,4.1942057 L 140.5,1.5843498 238.5,1.243222 c 67.2992,-0.2342615 100.61151,0.00274 106.33621,0.7565396 50.44702,6.6425967 95.6562,37.4504304 121.73906,82.9591864 9.51801,16.606792 16.6427,37.858132 19.6264,58.541052 1.88195,13.04567 1.87273,189.2698 -0.0105,201.5 -5.68212,36.9003 -21.09248,67.76598 -46.69112,93.51851 -25.85264,26.00804 -56.12117,41.39458 -93.53016,47.5446 -8.88212,1.46021 -174.32346,2.23201 -193.03587,0.90053 z M 350,475.63913 c 20.48213,-4.06501 37.2945,-10.36669 53.31194,-19.9826 34.04979,-20.44147 59.23838,-53.95928 69.1139,-91.96809 C 477.48697,344.20924 477.5,343.89923 477.5,243 477.5,139.55526 477.64248,142.42684 471.42916,120.64315 457.32861,71.207016 416.73805,30.653522 367.22325,16.532401 345.5733,10.358051 348.47288,10.5 244,10.5 139.52712,10.5 142.4267,10.358051 120.77675,16.532401 69.753979,31.08358 28.390581,73.687002 15.466226,125 10.441112,144.95099 10.5,143.534 10.5,244.5 c 0,86.69156 0.155001,95.83084 1.772308,104.5 8.685299,46.5553 33.819753,83.46088 72.845496,106.96094 19.549176,11.7719 41.182456,18.59267 67.882196,21.40264 1.925,0.20259 45.125,0.27704 96,0.16543 82.21806,-0.18036 93.44483,-0.39043 101,-1.88988 z m 0,-74.77093 c -23.11236,-3.86241 -41.01285,-27.97714 -37.13009,-50.01996 3.39699,-19.28499 18.69919,-34.62402 37.88009,-37.97126 27.51789,-4.80212 54.5758,22.20396 50.19122,50.09508 C 397.09304,387.45101 373.72714,404.83335 350,400.8682 z M 121.58007,171.82743 C 98.175135,168.67264 79.73429,143.84744 83.920236,121.1295 c 1.800541,-9.77189 5.550522,-16.75214 13.003823,-24.205441 7.492201,-7.492199 14.434681,-11.203491 24.388571,-13.037567 18.04753,-3.325387 38.5066,7.867477 46.83181,25.621008 14.72023,31.39091 -11.88237,66.99478 -46.56437,62.31993 z"
       id="path3162"
       inkscape:connector-curvature="0" />
    <path
       style="fill:#6f6f6f"
       d="M 136.88019,484.96731 C 114.17185,480.96617 88.544392,470.11581 69.023134,456.23744 56.871608,447.59849 40.35677,431.07396 31.784411,418.97687 18.725397,400.54832 8.6567343,377.80498 3.7481006,355.64776 L 1.5,345.5 1.5,244 1.5,142.5 3.7481006,132.35224 C 18.204564,67.096809 67.096809,18.204564 132.35224,3.7481006 L 142.5,1.5 l 101.5,0 101.5,0 10.14776,2.2481006 C 414.3891,16.761453 460.24766,57.671507 479.01501,113.80301 487.06674,137.88506 487,136.7968 487,244 c 0,90.45314 -0.0924,95.34155 -2.0139,106.58131 -11.65792,68.1915 -66.21329,122.74687 -134.40479,134.40479 -11.27,1.9267 -15.92158,2.0104 -107.43068,1.93314 -88.7909,-0.075 -96.41225,-0.21494 -106.27044,-1.95193 z m 201.8751,-7.97702 c 37.2427,-3.92357 67.71098,-18.36049 93.79275,-44.44225 26.08176,-26.08177 40.51868,-56.55005 44.44225,-93.79275 1.28238,-12.17242 1.28238,-177.33816 0,-189.51058 C 473.06716,112.00612 458.63502,81.545996 432.54804,55.445923 406.52655,29.411389 376.48414,15.190134 338.78941,11.063156 325.6334,9.6227795 162.3666,9.6227795 149.21059,11.063156 128.14564,13.369435 113.22848,17.711013 94.5,26.986447 53.849957,47.118716 22.523477,87.799961 13.634603,132 10.349173,148.33685 10,159.09658 10,244 c 0,98.73261 0.395913,105.01879 8.093121,128.5 18.606138,56.76013 70.210302,98.14979 130.258829,104.47545 10.8031,1.13802 179.61711,1.15118 190.40334,0.0148 z m 4.65773,-77.75924 C 311.67529,387.91757 302.47591,349.36409 325.92,325.92 c 21.91936,-21.91936 57.27321,-15.67894 71.15029,12.55897 3.30398,6.72313 3.42971,7.40133 3.42971,18.5 0,11.08463 -0.12955,11.78618 -3.42025,18.52103 -4.49919,9.20822 -12.43033,17.12297 -21.57975,21.53518 -6.2716,3.02441 -8.04057,3.40863 -17,3.69244 -7.73407,0.245 -11.15268,-0.0941 -15.08698,-1.49657 z M 114.14734,170.05736 C 98.186144,164.15132 86.556337,150.35403 83.962323,134.24667 80.262808,111.27479 97.923297,87.771299 121.75,83.956887 c 18.27811,-2.926141 37.63355,7.745148 46.32975,25.543113 3.28959,6.73259 3.42025,7.43931 3.42025,18.5 0,11.01289 -0.1418,11.79005 -3.34772,18.34772 -4.41997,9.041 -12.82434,17.42818 -21.80456,21.75999 -6.10535,2.94504 -7.93183,3.33713 -16.84772,3.6167 -8.05211,0.25248 -11.04264,-0.0722 -15.35266,-1.66705 z"
       id="path3160"
       inkscape:connector-curvature="0" />
    <path
       style="fill:#4d4d4d"
       d="M 140.92846,485.48856 C 116.22113,481.58324 94.367672,473.07651 74,459.43583 37.83337,435.21424 13.522945,399.04032 3.8146347,355 L 1.5,344.5 1.5,244 1.5,143.5 3.8099862,133 C 7.0445299,118.29744 11.185431,106.30754 17.451936,93.5 40.164704,47.079427 81.191743,15.235319 133,3.8146347 L 143.5,1.5 244,1.5 344.5,1.5 355,3.8099862 C 421.3988,18.417636 469.58236,66.601196 484.19001,133 l 2.30999,10.5 0,100.5 0,100.5 -2.30063,10.5 C 469.69204,421.21087 421.87901,469.19151 355.5,484.15052 c -9.96505,2.2457 -10.3425,2.25435 -108,2.47323 -78.40928,0.17574 -99.7135,-0.0512 -106.57154,-1.13519 z m 212.33702,-10.2993 c 42.11735,-8.8707 78.40651,-33.60118 100.93771,-68.78742 8.91132,-13.91651 17.30745,-35.35496 21.02087,-53.67408 C 477.49965,341.50173 477.5,341.48495 477.5,244 c 0,-97.48495 -3.5e-4,-97.50173 -2.27594,-108.72776 C 468.78993,103.53123 455.20421,78.13145 432.53638,55.463618 409.86855,32.795787 384.46877,19.210071 352.72776,12.775945 341.50173,10.500351 341.48495,10.5 244,10.5 c -97.48495,0 -97.50173,3.51e-4 -108.72776,2.275945 C 103.53123,19.210071 78.13145,32.795787 55.463618,55.463618 37.094355,73.832882 25.782103,92.100996 17.990197,115.97931 10.271183,139.63424 10.5,135.72335 10.5,244 c 0,108.27665 -0.228817,104.36576 7.490197,128.02069 7.791906,23.87831 19.104158,42.14643 37.473421,60.51569 17.770521,17.77052 35.266423,28.81573 58.399732,36.86791 9.46994,3.29627 26.3173,7.04218 35.63665,7.9236 2.2,0.20808 46.525,0.32218 98.5,0.25355 94.14671,-0.1243 94.54025,-0.13324 105.26548,-2.39218 z m -9.99921,-76.2767 c -12.48222,-3.9549 -24.6043,-16.31743 -28.66707,-29.23571 -1.40153,-4.45642 -1.73248,-7.97701 -1.41008,-15 0.36097,-7.86323 0.90297,-10.17886 3.78632,-16.17685 2.10595,-4.3808 5.45283,-9.08778 8.94481,-12.57975 3.49197,-3.49198 8.19895,-6.83886 12.57975,-8.94481 5.99799,-2.88335 8.31362,-3.42535 16.17685,-3.78632 7.02299,-0.3224 10.54358,0.009 15,1.41008 13.13799,4.13187 25.33129,16.21208 29.28531,29.01371 10.56746,34.21344 -21.5623,66.11461 -55.69589,55.29965 z m -229,-228.9435 c -12.54836,-4.08959 -24.620294,-16.42478 -28.667066,-29.29221 -1.399313,-4.44936 -1.735625,-8.01213 -1.425551,-15.10174 0.352515,-8.05994 0.851052,-10.1846 3.795788,-16.17685 15.096669,-30.720237 55.497109,-34.504573 75.679359,-7.08893 16.30437,22.14793 7.92502,53.44348 -17.54849,65.5408 -6.63894,3.15281 -8.60033,3.61025 -16.56544,3.8634 -6.95976,0.22119 -10.46662,-0.17948 -15.2686,-1.74447 z"
       id="path3158"
       inkscape:connector-curvature="0" />
    <path
       style="fill:#2e2e2e"
       d="M 145,485.93063 C 118.82551,482.4773 96.23087,473.99704 74.033499,459.29535 58.072701,448.72424 39.275761,429.9273 28.704654,413.9665 16.206192,395.09568 8.2781068,375.93869 3.7767842,353.73214 L 1.5,342.5 l 0,-98 C 1.5,134.98044 1.2860337,138.79927 8.7277798,115.5 17.046874,89.453854 29.322319,69.521167 49.421743,49.421743 73.847302,24.996185 100.60775,10.599773 134.26786,3.7767842 L 145.5,1.5 l 98.5,0 98.5,0 11.23214,2.2767842 c 33.66011,6.8229888 60.42056,21.2194008 84.84612,45.6449588 27.44758,27.44758 42.62704,58.387897 47.36889,96.552027 C 486.61336,151.33574 487,187.33355 487,244 c 0,89.41648 -0.25718,97.49235 -3.62772,113.91655 -11.61061,56.57704 -58.02639,106.42684 -114.1219,122.56507 -21.06929,6.06147 -16.20111,5.81766 -121.25038,6.07249 -53.075,0.12875 -99.425,-0.15182 -103,-0.62348 z m 209.5,-10.79481 c 34.77065,-7.84975 62.73992,-24.05021 85.13689,-49.31328 C 457.25797,405.94653 468.96464,382.29732 475.19001,354 l 2.30999,-10.5 0,-99.5 0,-99.5 -2.30999,-10.5 C 467.50062,99.048005 451.78484,71.746863 426.08542,48.696463 406.30782,30.957484 382.40922,19.059976 354,12.809986 L 343.5,10.5 l -99.5,0 -99.5,0 -10.5,2.309986 C 99.090501,20.49003 71.87072,36.202169 48.476327,62.17702 31.300258,81.247651 19.25261,105.45258 12.815655,133.82289 c -2.159148,9.51624 -2.20198,11.22309 -2.576646,102.67711 -0.2598506,63.4281 -0.0293,96.42848 0.725056,103.78214 7.237786,70.55598 62.794769,127.38582 133.535935,136.59537 3.88883,0.50628 49.88971,0.82344 103.5,0.7136 96.19737,-0.19708 96.53136,-0.20478 106.5,-2.45529 z m -9,-75.47601 C 332.36503,395.27808 322.80383,387.00593 317.17532,375.1539 303.56203,346.48816 325.02808,313 357.01624,313 c 17.17328,0 32.11839,9.73958 39.89627,26 3.41615,7.14179 3.58749,8.00397 3.58749,18.05186 0,10.16175 -0.13747,10.83002 -3.71841,18.07555 -4.78722,9.68629 -11.89264,16.82977 -21.42723,21.54202 -6.48903,3.20705 -8.32389,3.64602 -16.57556,3.9655 -5.99088,0.23195 -10.69619,-0.11358 -13.2788,-0.97512 z M 117.75415,170.91604 c -2.06022,-0.48569 -6.37566,-2.21058 -9.58986,-3.83311 C 83.683348,154.72499 76.397541,123.52494 92.880824,101.63446 101.34286,90.396524 113.90957,84 127.52574,84 c 17.69581,0 32.51288,9.538864 40.38677,26 3.41269,7.13455 3.58749,8.01162 3.58749,18 0,9.74862 -0.23007,10.98572 -3.21506,17.2876 -5.78422,12.21161 -17.27196,22.02565 -29.63513,25.31747 -5.71814,1.52252 -15.16034,1.66303 -20.89566,0.31097 z"
       id="path3156"
       inkscape:connector-curvature="0" />
    <path
       style="fill:#000000"
       d="M 146,485.92684 C 81.632158,478.54286 25.57994,431.08511 7.5859418,368.73577 1.3133217,347.00109 1.5,350.8272 1.5,244 1.5,154.68096 1.6492118,145.72505 3.278294,137.26423 8.1519453,111.95237 17.427208,89.959837 31.857581,69.5 39.110991,59.215886 59.215886,39.110991 69.5,31.857581 89.959837,17.427208 111.95237,8.1519453 137.26423,3.278294 145.72505,1.6492118 154.68096,1.5 244,1.5 c 89.31904,0 98.27495,0.1492118 106.73577,1.778294 35.12729,6.763557 63.30355,21.551516 87.86898,46.116952 24.31097,24.310962 38.93154,51.931284 46.10813,87.104754 1.42138,6.96638 1.68399,19.95126 2.03254,100.5 0.28756,66.45298 0.0695,95.59748 -0.77427,103.5 -6.9921,65.48317 -54.15624,121.68449 -117.47115,139.97997 -20.97815,6.06184 -16.57028,5.83841 -120,6.08278 -52.25,0.12345 -98.375,-0.16271 -102.5,-0.63591 z M 355.15857,475.20019 C 417.31899,461.0163 461.51608,416.65024 475.2519,354.64776 L 477.5,344.5 l 0,-100 c 0,-92.80338 -0.13114,-100.64509 -1.82229,-108.96372 C 462.75292,71.960131 416.46085,25.67298 352.5,12.371645 344.056,10.615627 337.35307,10.5 244,10.5 150.64693,10.5 143.944,10.615627 135.5,12.371645 78.439425,24.237994 35.06263,62.440293 17.603102,116.20441 10.164544,139.11038 10.5,133.07502 10.5,244 c 0,110.13716 -0.337696,103.70791 6.643599,126.48459 8.136641,26.54603 25.488241,53.03045 46.059506,70.30241 24.224071,20.33892 51.223405,32.18358 83.296895,36.54252 1.65,0.22424 47.1,0.33276 101,0.24115 97.13394,-0.1651 98.08536,-0.18605 107.65857,-2.37048 z M 344.7977,399.0692 c -3.13627,-1.00279 -7.64258,-2.96033 -10.01402,-4.35008 -6.47339,-3.79366 -14.47734,-12.85038 -18.08223,-20.46059 C 313.7319,367.98955 313.5,366.73944 313.5,357 c 0,-9.74862 0.23007,-10.98572 3.21506,-17.2876 4.50128,-9.50307 12.69312,-17.81643 22.17248,-22.50138 7.22845,-3.5725 7.90261,-3.71102 18.0606,-3.71102 9.79778,0 11.03485,0.22879 17.31039,3.20145 29.3447,13.90031 35.63774,50.08289 12.51424,71.95213 -11.74621,11.10908 -27.5452,15.02941 -41.97507,10.41562 z M 117.10463,170.41748 C 104.66251,167.07161 93.5209,157.54485 87.715058,145.2876 84.73007,138.98572 84.5,137.74862 84.5,128 c 0,-9.99998 0.172058,-10.86028 3.613065,-18.06545 C 92.87812,99.956942 99.956942,92.87812 109.93455,88.113065 117.13972,84.672058 118.00002,84.5 128,84.5 c 9.74862,0 10.98572,0.23007 17.2876,3.215058 18.34605,8.689899 29.18294,28.233532 25.99033,46.871872 -4.35829,25.44352 -29.92262,42.35192 -54.1733,35.83055 z"
       id="path3154"
       inkscape:connector-curvature="0" />
  </g>
</svg>
