<?xml version="1.0" encoding="UTF-8" standalone="no"?>
<svg
   xmlns:dc="http://purl.org/dc/elements/1.1/"
   xmlns:cc="http://creativecommons.org/ns#"
   xmlns:rdf="http://www.w3.org/1999/02/22-rdf-syntax-ns#"
   xmlns:svg="http://www.w3.org/2000/svg"
   xmlns="http://www.w3.org/2000/svg"
   xmlns:sodipodi="http://sodipodi.sourceforge.net/DTD/sodipodi-0.dtd"
   xmlns:inkscape="http://www.inkscape.org/namespaces/inkscape"
   viewBox="0 0 22 28"
   x="0px"
   y="0px"
   version="1.1"
   id="svg12"
   sodipodi:docname="delete.svg"
   width="22"
   height="28"
   inkscape:version="0.92.3 (2405546, 2018-03-11)">
  <metadata
     id="metadata18">
    <rdf:RDF>
      <cc:Work
         rdf:about="">
        <dc:format>image/svg+xml</dc:format>
        <dc:type
           rdf:resource="http://purl.org/dc/dcmitype/StillImage" />
        <dc:title>Dashboard, ui, basic, essential, Sort</dc:title>
      </cc:Work>
    </rdf:RDF>
  </metadata>
  <defs
     id="defs16" />
  <sodipodi:namedview
     pagecolor="#ffffff"
     bordercolor="#666666"
     borderopacity="1"
     objecttolerance="10"
     gridtolerance="10"
     guidetolerance="10"
     inkscape:pageopacity="0"
     inkscape:pageshadow="2"
     inkscape:window-width="865"
     inkscape:window-height="480"
     id="namedview14"
     showgrid="false"
     fit-margin-top="0"
     fit-margin-left="0"
     fit-margin-right="0"
     fit-margin-bottom="0"
     inkscape:zoom="5.9"
     inkscape:cx="11"
     inkscape:cy="30.338983"
     inkscape:window-x="335"
     inkscape:window-y="77"
     inkscape:window-maximized="0"
     inkscape:current-layer="svg12" />
  <title
     id="title2">Dashboard, ui, basic, essential, Sort</title>
  <g
     data-name="Layer 5"
     id="g6"
     transform="translate(-5,-2)">
    <path
       d="M 20,25 V 14 a 1,1 0 0 1 2,0 v 11 a 1,1 0 0 1 -2,0 z m -9,1 a 1,1 0 0 0 1,-1 V 14 a 1,1 0 0 0 -2,0 v 11 a 1,1 0 0 0 1,1 z M 27,8 v 2 a 1,1 0 0 1 -1,1 v 16 a 3,3 0 0 1 -3,3 H 9 A 3,3 0 0 1 6,27 V 11 A 1,1 0 0 1 5,10 V 8 A 3,3 0 0 1 8,5 h 4 a 3,3 0 0 1 3,-3 h 2 a 3,3 0 0 1 3,3 h 4 a 3,3 0 0 1 3,3 z M 14,5 h 4 A 1,1 0 0 0 17,4 h -2 a 1,1 0 0 0 -1,1 z m 10,6 H 8 v 16 a 1,1 0 0 0 1,1 h 14 a 1,1 0 0 0 1,-1 z M 25,8 A 1,1 0 0 0 24,7 H 8 A 1,1 0 0 0 7,8 v 1 h 18 z m -9,18 a 1,1 0 0 0 1,-1 V 14 a 1,1 0 0 0 -2,0 v 11 a 1,1 0 0 0 1,1 z"
       id="path4"
       inkscape:connector-curvature="0" />
  </g>
  <text
     x="-5"
     y="45"
     font-size="5px"
     font-weight="bold"
     id="text8"
     style="font-weight:bold;font-size:5px;font-family:'Helvetica Neue', Helvetica, Arial-Unicode, Arial, Sans-serif;fill:#000000">Created by Caesar Rizky Kurniawan</text>
  <text
     x="-5"
     y="50"
     font-size="5px"
     font-weight="bold"
     id="text10"
     style="font-weight:bold;font-size:5px;font-family:'Helvetica Neue', Helvetica, Arial-Unicode, Arial, Sans-serif;fill:#000000">from the Noun Project</text>
</svg>
