<?xml version="1.0" encoding="UTF-8" standalone="no"?>
<svg
   xmlns:dc="http://purl.org/dc/elements/1.1/"
   xmlns:cc="http://creativecommons.org/ns#"
   xmlns:rdf="http://www.w3.org/1999/02/22-rdf-syntax-ns#"
   xmlns:svg="http://www.w3.org/2000/svg"
   xmlns="http://www.w3.org/2000/svg"
   xmlns:sodipodi="http://sodipodi.sourceforge.net/DTD/sodipodi-0.dtd"
   xmlns:inkscape="http://www.inkscape.org/namespaces/inkscape"
   version="1.1"
   x="0px"
   y="0px"
   viewBox="0 0 67.198997 67.190002"
   enable-background="new 0 0 100 100"
   xml:space="preserve"
   id="svg8"
   sodipodi:docname="duplicate.svg"
   width="67.198997"
   height="67.190002"
   inkscape:version="0.92.3 (2405546, 2018-03-11)"><metadata
     id="metadata14"><rdf:RDF><cc:Work
         rdf:about=""><dc:format>image/svg+xml</dc:format><dc:type
           rdf:resource="http://purl.org/dc/dcmitype/StillImage" /><dc:title></dc:title></cc:Work></rdf:RDF></metadata><defs
     id="defs12" /><sodipodi:namedview
     pagecolor="#ffffff"
     bordercolor="#666666"
     borderopacity="1"
     objecttolerance="10"
     gridtolerance="10"
     guidetolerance="10"
     inkscape:pageopacity="0"
     inkscape:pageshadow="2"
     inkscape:window-width="865"
     inkscape:window-height="480"
     id="namedview10"
     showgrid="false"
     fit-margin-top="0"
     fit-margin-left="0"
     fit-margin-right="0"
     fit-margin-bottom="0"
     inkscape:zoom="1.888"
     inkscape:cx="33.599"
     inkscape:cy="21.095"
     inkscape:window-x="1985"
     inkscape:window-y="294"
     inkscape:window-maximized="0"
     inkscape:current-layer="svg8" /><path
     d="M 55.198,50.39 H 28.8 c -6.627,0 -12,-5.373 -12,-12 V 12 c 0,-6.627 5.372,-12 12,-12 h 26.399 c 6.628,0 12,5.373 12,12 v 26.389 c 0,6.628 -5.373,12.001 -12.001,12.001 z M 60.03,12.031 c 0,-2.651 -2.149,-4.8 -4.8,-4.8 H 28.821 c -2.651,0 -4.8,2.149 -4.8,4.8 v 26.402 c 0,2.651 2.149,4.8 4.8,4.8 H 55.23 c 2.651,0 4.8,-2.149 4.8,-4.8 z m -7.22,16.813 h -7.246 v 7.193 c 0,1.312 -1.064,2.377 -2.377,2.377 h -2.4 c -1.313,0 -2.377,-1.064 -2.377,-2.377 v -7.193 h -7.246 c -1.313,0 -2.376,-1.064 -2.376,-2.377 v -2.454 c 0,-1.313 1.064,-2.377 2.376,-2.377 H 38.41 V 14.39 c 0,-1.313 1.064,-2.377 2.377,-2.377 h 2.4 c 1.313,0 2.377,1.064 2.377,2.377 v 7.246 h 7.246 c 1.313,0 2.377,1.064 2.377,2.377 v 2.454 c 0,1.313 -1.064,2.377 -2.377,2.377 z M 12.021,60.033 h 21.556 c 2.624,0 4.749,-2.108 4.792,-4.722 h 7.217 C 45.519,61.881 40.184,67.19 33.599,67.19 H 12 c -6.627,0 -12,-5.373 -12,-12 V 33.601 C 0,26.976 5.369,21.606 11.993,21.602 v 7.287 c -2.637,0.016 -4.771,2.156 -4.771,4.797 v 21.548 c -0.001,2.65 2.148,4.799 4.799,4.799 z"
     id="path2"
     inkscape:connector-curvature="0"
     style="clip-rule:evenodd;fill-rule:evenodd" /></svg>