<?xml version="1.0" encoding="UTF-8" standalone="no"?>
<svg
   xmlns:dc="http://purl.org/dc/elements/1.1/"
   xmlns:cc="http://creativecommons.org/ns#"
   xmlns:rdf="http://www.w3.org/1999/02/22-rdf-syntax-ns#"
   xmlns:svg="http://www.w3.org/2000/svg"
   xmlns="http://www.w3.org/2000/svg"
   xmlns:sodipodi="http://sodipodi.sourceforge.net/DTD/sodipodi-0.dtd"
   xmlns:inkscape="http://www.inkscape.org/namespaces/inkscape"
   version="1.1"
   x="0px"
   y="0px"
   viewBox="0 0 28.342005 27.799999"
   xml:space="preserve"
   id="svg12"
   sodipodi:docname="flip.svg"
   width="28.342005"
   height="27.799999"
   inkscape:version="0.92.3 (2405546, 2018-03-11)"><metadata
     id="metadata18"><rdf:RDF><cc:Work
         rdf:about=""><dc:format>image/svg+xml</dc:format><dc:type
           rdf:resource="http://purl.org/dc/dcmitype/StillImage" /><dc:title></dc:title></cc:Work></rdf:RDF></metadata><defs
     id="defs16" /><sodipodi:namedview
     pagecolor="#ffffff"
     bordercolor="#666666"
     borderopacity="1"
     objecttolerance="10"
     gridtolerance="10"
     guidetolerance="10"
     inkscape:pageopacity="0"
     inkscape:pageshadow="2"
     inkscape:window-width="865"
     inkscape:window-height="480"
     id="namedview14"
     showgrid="false"
     fit-margin-top="0"
     fit-margin-left="0"
     fit-margin-right="0"
     fit-margin-bottom="0"
     inkscape:zoom="1.8541911"
     inkscape:cx="7.562993"
     inkscape:cy="-12.688818"
     inkscape:window-x="0"
     inkscape:window-y="48"
     inkscape:window-maximized="0"
     inkscape:current-layer="svg12" /><style
     type="text/css"
     id="style2">
	.st0{fill:#010101;}
</style><g
     id="g6"
     transform="translate(-3.8579955,-4.1)"><path
       class="st0"
       d="m 32.2,7.9 v 20.2 c 0,2.1 -1.7,3.8 -3.8,3.8 h -13 c -2.1,0 -3.8,-1.7 -3.8,-3.8 v -3.3 l 2.8,0.6 V 28 c 0,0.6 0.5,1.1 1.1,1.1 h 12.8 c 0.6,0 1.1,-0.5 1.1,-1.1 V 8.1 C 29.4,7.5 28.9,7 28.3,7 H 15.5 c -0.6,0 -1.1,0.5 -1.1,1.1 v 7.5 l -2.8,-0.2 v -2.5 c -5.6,2.6 -4.3,3.9 -1.2,4.6 0.4,0.1 0.8,0.2 1.2,0.2 0.9,0.1 1.9,0.2 2.8,0.3 0.6,0.1 1.2,0.1 1.8,0.1 2,0.1 3.5,0.1 3.5,0.1 v -3.1 c 0,-0.5 0.6,-0.4 0.8,-0.2 l 5.8,4 2.3,1.6 c 0.2,0.2 0.2,0.5 0,0.8 l -2.3,1.6 -2.8,2 -2.9,2 c -0.1,0.1 -0.3,0.2 -0.4,0.2 -0.1,0 -0.4,0 -0.4,-0.3 V 24.3 C 18.3,24 16.9,23.8 15.6,23.5 15.2,23.4 14.9,23.3 14.5,23.3 13.5,23.1 12.5,22.8 11.7,22.6 11,22.4 10.4,22.2 9.8,22 -4.6,16.9 11.7,10.9 11.7,10.9 v -3 c 0,-2.1 1.7,-3.8 3.8,-3.8 h 13 c 2,0 3.7,1.7 3.7,3.8 z"
       id="path4"
       inkscape:connector-curvature="0"
       style="fill:#010101" /></g></svg>