<svg xmlns="http://www.w3.org/2000/svg" width="110.69" height="129.138" viewBox="0 0 110.69 129.138"><defs><style>.a{fill:#848688;opacity:0.058;}</style></defs><path class="a" d="M51.9,79.888q-.072.216-.9-.036t-2.27-.829l-1.441-.649a43.177,43.177,0,0,1-6.27-3.531q-.5-.36-2.955-2.27T35.325,70.52a122.768,122.768,0,0,1-9.656,13.044Q19.831,90.41,18.1,91.491a5.711,5.711,0,0,1-1.405.288,2.775,2.775,0,0,1-1.333,0q.432-.288,5.909-6.63,1.513-1.729,6.161-8.287a100.752,100.752,0,0,0,5.657-8.5q1.225-2.162,3.675-7.1a56.171,56.171,0,0,0,2.594-5.585q-.576-.072-7.927,2.378-.576.144-1.982.541t-2.486.685a12.35,12.35,0,0,0-1.225.36,1.225,1.225,0,0,0-.144.757,1.6,1.6,0,0,1-.072.685q-.36.721-2.234,1.081a5.811,5.811,0,0,1-3.387,0,3.04,3.04,0,0,1-2.018-1.513,3.666,3.666,0,0,1-.36-1.657,13.925,13.925,0,0,1,1.766-.36,21.52,21.52,0,0,0,2.126-.432q4.18-1.153,7.567-2.306,7.206-2.522,7.351-2.522a15.988,15.988,0,0,0,3.1-1.405A32.6,32.6,0,0,1,42.6,50.414q.649-.216,1.549-.576t1.045-.4a.965.965,0,0,1,.433.036,8.2,8.2,0,0,1-.072,2.378,15.344,15.344,0,0,1-.9,1.946q-.9,1.8-1.91,3.855t-1.225,2.414a108.082,108.082,0,0,1-5.549,9.44l4.612,2.018q.865.432,5.369,2.306t4.864,2.018q.288.072.757,1.838a5.46,5.46,0,0,1,.324,2.2ZM37.126,44.865a2.923,2.923,0,0,1-.288,2.018,6.532,6.532,0,0,1-3.6,2.738,11.569,11.569,0,0,1-4.324.865,5.964,5.964,0,0,1-3.531-1.874,5.42,5.42,0,0,1-1.3-2.955l.072-.216a3.084,3.084,0,0,0,1.405.36,6.267,6.267,0,0,0,1.91,0q.721-.144,4.18-1.153a20.575,20.575,0,0,1,3.964-1.009,1.422,1.422,0,0,1,1.513,1.225Zm50.3,9.3,4.54,16.358L81.95,67.493ZM7.58,111.813,57.593,95.094V20.724L7.58,37.515v74.3ZM97.012,88.968l7.351,2.234L91.319,43.856l-7.206-2.234L68.546,80.249,75.9,82.482l3.243-7.927L94.345,79.24ZM60.763,19.643,102.056,32.9V5.518Zm22.412,95.34,11.386.937L90.67,127.45l-2.883-4.756a53.421,53.421,0,0,1-19.89,7.783,34.538,34.538,0,0,1-6.558.865H55.287q-5.693,0-14.377-2.811t-13.224-6.125a1.5,1.5,0,0,1-.576-1.153,1.394,1.394,0,0,1,.36-.973,1.207,1.207,0,0,1,.937-.4,4.057,4.057,0,0,1,1.3.541q1.009.541,2.2,1.189t1.477.793a63.849,63.849,0,0,0,11.494,4.432,41.991,41.991,0,0,0,11.35,1.766,61.5,61.5,0,0,0,12.035-1.045,59.4,59.4,0,0,0,11.314-3.639q1.081-.5,2.2-1.117t2.45-1.369q1.333-.757,2.054-1.189ZM115.46,37.226v77.757L59.682,97.256q-1.009.432-27.024,9.188T6.139,115.2a1.3,1.3,0,0,1-1.3-.937.554.554,0,0,0-.072-.216V36.362a3.217,3.217,0,0,1,.288-.721A3.242,3.242,0,0,1,6.5,34.848q7.639-2.522,10.737-3.6V3.573L57.449,17.841q.144,0,11.566-3.964T91.787,6.059Q103.137,2.2,103.425,2.2q1.441,0,1.441,1.513V33.839Z" transform="translate(-4.77 -2.203)"/></svg>