<?xml version="1.0" encoding="UTF-8" standalone="no"?>
<svg
   xmlns:dc="http://purl.org/dc/elements/1.1/"
   xmlns:cc="http://creativecommons.org/ns#"
   xmlns:rdf="http://www.w3.org/1999/02/22-rdf-syntax-ns#"
   xmlns:svg="http://www.w3.org/2000/svg"
   xmlns="http://www.w3.org/2000/svg"
   xmlns:sodipodi="http://sodipodi.sourceforge.net/DTD/sodipodi-0.dtd"
   xmlns:inkscape="http://www.inkscape.org/namespaces/inkscape"
   version="1.1"
   x="0px"
   y="0px"
   viewBox="0 0 95 50.400002"
   xml:space="preserve"
   id="svg26"
   sodipodi:docname="see.svg"
   width="95"
   height="50.400002"
   inkscape:version="0.92.3 (2405546, 2018-03-11)"><metadata
     id="metadata32"><rdf:RDF><cc:Work
         rdf:about=""><dc:format>image/svg+xml</dc:format><dc:type
           rdf:resource="http://purl.org/dc/dcmitype/StillImage" /><dc:title></dc:title></cc:Work></rdf:RDF></metadata><defs
     id="defs30" /><sodipodi:namedview
     pagecolor="#ffffff"
     bordercolor="#666666"
     borderopacity="1"
     objecttolerance="10"
     gridtolerance="10"
     guidetolerance="10"
     inkscape:pageopacity="0"
     inkscape:pageshadow="2"
     inkscape:window-width="1440"
     inkscape:window-height="872"
     id="namedview28"
     showgrid="false"
     inkscape:measure-start="0,0"
     inkscape:measure-end="0,0"
     fit-margin-top="0"
     fit-margin-left="0"
     fit-margin-right="0"
     fit-margin-bottom="0"
     inkscape:zoom="2.6700352"
     inkscape:cx="50.229393"
     inkscape:cy="79.334597"
     inkscape:window-x="0"
     inkscape:window-y="48"
     inkscape:window-maximized="1"
     inkscape:current-layer="svg26" /><g
     id="g16"
     transform="translate(-2.5,-24.8)"><path
       d="M 96.3,46.9 C 95.4,46 75.4,24.8 50,24.8 24.6,24.8 4.6,46 3.7,46.9 2.1,48.7 2.1,51.4 3.7,53.1 4.6,54 24.6,75.2 50,75.2 75.4,75.2 95.4,54 96.3,53.1 c 1.6,-1.7 1.6,-4.5 0,-6.2 z M 50,63 c -7.2,0 -13,-5.8 -13,-13 0,-7.2 5.8,-13 13,-13 7.2,0 13,5.8 13,13 0,7.2 -5.8,13 -13,13 z M 31.2,38.5 c -2.1,3.4 -3.3,7.3 -3.3,11.5 0,4.2 1.3,8.2 3.3,11.5 C 23.5,58 17.2,53.1 13.7,50 17.2,46.9 23.5,42 31.2,38.5 Z m 37.6,23 c 2.1,-3.4 3.3,-7.3 3.3,-11.5 0,-4.2 -1.3,-8.2 -3.3,-11.5 7.7,3.5 14,8.4 17.5,11.5 -3.5,3.1 -9.8,8 -17.5,11.5 z"
       id="path12"
       inkscape:connector-curvature="0" /><circle
       cx="50"
       cy="50"
       r="7.0999999"
       id="circle14" /></g></svg>