<?xml version="1.0" encoding="UTF-8" standalone="no"?>
<svg
   xmlns:dc="http://purl.org/dc/elements/1.1/"
   xmlns:cc="http://creativecommons.org/ns#"
   xmlns:rdf="http://www.w3.org/1999/02/22-rdf-syntax-ns#"
   xmlns:svg="http://www.w3.org/2000/svg"
   xmlns="http://www.w3.org/2000/svg"
   xmlns:sodipodi="http://sodipodi.sourceforge.net/DTD/sodipodi-0.dtd"
   xmlns:inkscape="http://www.inkscape.org/namespaces/inkscape"
   height="56.117146"
   width="90.000008"
   viewBox="0 0 299.99945 187.05677"
   version="1.1"
   x="0px"
   y="0px"
   id="svg4"
   sodipodi:docname="shuffle.svg"
   style="fill:#000000"
   inkscape:version="0.92.3 (2405546, 2018-03-11)">
  <metadata
     id="metadata10">
    <rdf:RDF>
      <cc:Work
         rdf:about="">
        <dc:format>image/svg+xml</dc:format>
        <dc:type
           rdf:resource="http://purl.org/dc/dcmitype/StillImage" />
        <dc:title></dc:title>
      </cc:Work>
    </rdf:RDF>
  </metadata>
  <defs
     id="defs8" />
  <sodipodi:namedview
     pagecolor="#ffffff"
     bordercolor="#666666"
     borderopacity="1"
     objecttolerance="10"
     gridtolerance="10"
     guidetolerance="10"
     inkscape:pageopacity="0"
     inkscape:pageshadow="2"
     inkscape:window-width="865"
     inkscape:window-height="480"
     id="namedview6"
     showgrid="false"
     fit-margin-top="0"
     fit-margin-left="0"
     fit-margin-right="0"
     fit-margin-bottom="0"
     inkscape:zoom="2.36"
     inkscape:cx="44.999999"
     inkscape:cy="28.067333"
     inkscape:window-x="0"
     inkscape:window-y="48"
     inkscape:window-maximized="0"
     inkscape:current-layer="svg4" />
  <path
     d="m 30.539182,1.2213 c 4.438059,0.473838 5.879594,-0.266951 11.345414,1.16791 13.000508,3.423646 19.801082,8.609167 30.699353,15.723408 6.607034,4.311257 14.061634,8.922829 18.900124,15.256249 5.37239,7.03415 4.77175,13.41428 11.712467,21.04907 7.85503,8.62919 17.32512,12.95379 23.83204,19.721 2.16231,2.25573 6.26,6.74718 6.44687,9.93725 0.26028,4.36464 -5.98638,3.3836 -8.83608,3.35023 -8.12198,-0.10011 -22.55068,-5.39241 -30.031977,-8.86944 -6.34675,-2.94981 -12.152935,-6.30672 -19.353935,-6.47356 -5.772814,-0.1268 -8.976224,1.23465 -14.014923,3.9442 -3.083282,1.66177 -4.785094,2.68953 -7.140936,5.39908 -2.349168,2.70955 -4.111044,5.97303 -5.305649,9.33661 -2.075543,5.83287 -2.309125,8.59582 -2.235714,14.682303 0.02669,1.86199 0.03337,3.61719 0.874264,5.33902 3.103304,6.34676 16.050423,12.87371 23.151317,13.28748 6.393474,0.37373 14.648926,-3.61718 19.353936,-3.91083 3.54378,-0.21356 9.15642,1.18126 7.50132,5.97303 -0.76748,2.23571 -2.98985,3.8174 -4.83181,5.1388 -5.76614,4.13774 -15.890249,8.10864 -22.690823,10.59128 -4.10437,1.49492 -9.1097,2.189 -12.012791,5.62599 3.990916,1.88868 6.920702,5.58595 10.010659,8.6759 4.838485,4.83849 12.700189,12.3932 16.317375,18.01919 1.9087,2.95648 5.17217,9.4901 0.93433,11.99944 -4.184459,2.47597 -12.179638,-0.88761 -15.916951,-3.06326 -8.949528,-5.21889 -12.126244,-9.47008 -19.127031,-16.35742 0,0 -13.120637,-13.38091 -13.120637,-13.38091 C 17.658801,132.44102 7.114241,110.92478 3.063261,82.754777 c 0,0 -1.101172,-5.33902 -1.101172,-5.33902 0,0 -0.787505,-14.01492 -0.787505,-14.01492 0,0 -1.174584,-13.23409 -1.174584,-13.23409 0,0 7.681512,-16.13051 7.681512,-16.13051 0,0 16.851275,-34.036237 16.851275,-34.036237 0,0 6.006395,1.2213 6.006395,1.2213 z M 230.75236,142.05125 c -8.00186,-3.04324 -16.25731,-5.89961 -23.35821,-10.81151 -1.86198,-1.28803 -4.06433,-2.87639 -4.83181,-5.10543 -1.65509,-4.79177 3.95755,-6.18659 7.50132,-5.97303 4.70501,0.29365 12.96047,4.28456 19.35394,3.91083 7.1009,-0.41377 20.04801,-6.94072 23.15132,-13.28748 0.99439,-2.04217 0.87426,-4.45808 0.87426,-6.67378 0.0134,-12.479953 -4.51814,-22.951103 -16.01705,-28.790653 -4.6583,-2.36252 -7.43458,-3.35024 -12.68017,-3.23678 -7.201,0.16684 -13.00718,3.52375 -19.35394,6.47356 -7.28109,3.3836 -22.17027,8.77601 -30.03198,8.86944 -2.8497,0.0334 -9.09635,1.01441 -8.83607,-3.35023 0.19354,-3.36358 4.65829,-8.13533 7.03416,-10.40441 7.56138,-7.23437 15.43643,-10.67804 23.24475,-19.25384 6.94072,-7.63479 6.34008,-14.01492 11.71247,-21.04907 4.83848,-6.33342 12.29308,-10.944992 18.90012,-15.256249 10.90494,-7.120915 17.75891,-12.213003 30.69935,-15.623301 6.15322,-1.621727 6.28002,-0.727441 11.34542,-1.268017 0,0 6.00639,-1.2213 6.00639,-1.2213 0,0 16.85128,34.036237 16.85128,34.036237 0,0 7.68151,16.13051 7.68151,16.13051 0,0 -1.17459,13.23409 -1.17459,13.23409 0,0 -0.7875,14.01492 -0.7875,14.01492 0,0 -1.10117,5.33902 -1.10117,5.33902 -4.05098,28.170003 -14.59554,49.686243 -33.93614,70.628543 -8.68925,9.41002 -21.42281,23.42494 -32.24766,29.73833 -3.73732,2.17565 -11.7325,5.53923 -15.91695,3.06326 -4.43139,-2.61612 -0.68073,-9.65027 1.30138,-12.66682 3.10998,-4.73838 11.7325,-13.13398 15.95032,-17.35181 3.08996,-3.08995 6.01974,-6.78722 10.01066,-8.6759 -2.78964,-3.30352 -7.41456,-3.95087 -11.34541,-5.43913 z M 134.65003,98.771827 c -6.78055,20.688703 -14.44204,38.908103 -28.41692,55.872833 0,0 -10.210877,11.71915 -10.210877,11.71915 -1.39481,1.52829 -3.04991,3.86411 -5.4191,3.03656 -2.25573,-0.78083 -6.56032,-5.87292 -8.008526,-7.89507 9.236506,-9.32326 22.190293,-24.38596 28.049863,-36.03837 4.99198,-9.91055 7.87505,-20.6887 10.65802,-31.366743 0,0 13.34754,4.67164 13.34754,4.67164 z m 39.37526,-2.85637 c 1.26134,-0.4071 2.98318,-1.24132 4.23785,-0.44714 1.65509,1.03443 2.1356,5.425773 2.68285,7.307783 1.76855,6.15322 3.79738,12.13292 6.32674,18.01919 4.59823,10.7114 12.66014,21.58298 20.46178,30.21884 3.29017,3.64388 6.8206,7.16096 9.6703,11.15855 -1.66844,1.66844 -6.55364,7.11424 -8.64921,7.40121 -1.96209,0.26695 -3.72396,-2.22904 -4.91189,-3.5104 0,0 -10.95834,-12.56672 -10.95834,-12.56672 -13.36757,-16.42415 -20.98901,-34.77035 -27.53598,-54.724943 0,0 8.6759,-2.85637 8.6759,-2.85637 z m 10.12411,64.255093 c -4.02428,-4.45141 -7.82833,-9.16309 -11.35876,-14.01493 -6.86064,-9.45006 -12.19965,-21.12916 -16.34407,-32.0341 -0.69407,-1.82194 -2.88307,-7.71488 -2.9498,-9.32994 -0.0467,-1.21463 0.48051,-3.5371 2.20901,-2.56941 1.13455,0.62734 2.09557,3.96423 2.54939,5.22557 0,0 5.71942,14.6823 5.71942,14.6823 6.03976,12.78695 10.29763,20.60194 19.87449,31.30667 0,0 10.8649,11.40548 10.8649,11.40548 1.31474,1.31473 4.61158,4.35797 5.17218,5.97302 1.14789,3.31019 -4.03096,2.7229 -5.83955,2.70288 0,0 -14.01492,-1.33475 -14.01492,-1.33475 0,0 -18.01919,-0.66738 -18.01919,-0.66738 0,0 -12.01279,-1.28136 -12.01279,-1.28136 0,0 -8.00853,0 -8.00853,0 0,0 -10.01066,-0.72077 -10.01066,-0.72077 -6.2333,-0.0267 -11.99277,-0.0134 -18.01918,-2.00213 1.35477,-3.36359 3.37693,-2.73625 6.67377,-2.66284 0,0 10.01066,1.27469 10.01066,1.27469 0,0 8.6759,0 8.6759,0 0,0 6.67378,0.69407 6.67378,0.69407 0,0 8.00852,0 8.00852,0 0,0 14.6823,1.36145 14.6823,1.36145 0,0 12.68017,0.66738 12.68017,0.66738 0,0 10.67804,0 10.67804,0 -2.48265,-3.46369 -5.10544,-5.58595 -7.89508,-8.6759 z m -37.48658,-20.04802 c -10.31098,9.97729 -21.74315,17.50531 -34.03624,24.72633 0,0 -12.680167,7.17431 -12.680167,7.17431 -1.20128,0.634 -3.5104,1.89535 -4.62492,0.44047 -1.18126,-1.53497 0.88761,-2.9031 1.98878,-3.55713 0,0 11.312047,-6.46688 11.312047,-6.46688 13.22742,-7.74825 22.03012,-13.19405 33.36886,-23.87208 0,0 11.62571,-11.77254 11.62571,-11.77254 1.10118,-0.63401 1.86866,-0.56727 3.05659,-0.6607 -0.6874,4.93192 -6.46021,10.55123 -10.01066,13.98822 z m 56.72707,36.73245 c 0,0 0,9.34328 0,9.34328 0,0 -106.780357,0 -106.780357,0 0,0 0,-9.34328 0,-9.34328 0,0 106.780357,0 106.780357,0 z"
     style="fill:#000000;fill-opacity:1;stroke:none"
     id="path2"
     inkscape:connector-curvature="0" />
</svg>
