<?xml version="1.0" encoding="UTF-8" standalone="no"?>
<svg
   xmlns:dc="http://purl.org/dc/elements/1.1/"
   xmlns:cc="http://creativecommons.org/ns#"
   xmlns:rdf="http://www.w3.org/1999/02/22-rdf-syntax-ns#"
   xmlns:svg="http://www.w3.org/2000/svg"
   xmlns="http://www.w3.org/2000/svg"
   xmlns:sodipodi="http://sodipodi.sourceforge.net/DTD/sodipodi-0.dtd"
   xmlns:inkscape="http://www.inkscape.org/namespaces/inkscape"
   viewBox="0 0 85 80.492493"
   version="1.1"
   x="0px"
   y="0px"
   id="svg10"
   sodipodi:docname="tap.svg"
   width="85"
   height="80.492493"
   inkscape:version="0.92.3 (2405546, 2018-03-11)">
  <metadata
     id="metadata16">
    <rdf:RDF>
      <cc:Work
         rdf:about="">
        <dc:format>image/svg+xml</dc:format>
        <dc:type
           rdf:resource="http://purl.org/dc/dcmitype/StillImage" />
        <dc:title></dc:title>
      </cc:Work>
    </rdf:RDF>
  </metadata>
  <defs
     id="defs14" />
  <sodipodi:namedview
     pagecolor="#ffffff"
     bordercolor="#666666"
     borderopacity="1"
     objecttolerance="10"
     gridtolerance="10"
     guidetolerance="10"
     inkscape:pageopacity="0"
     inkscape:pageshadow="2"
     inkscape:window-width="865"
     inkscape:window-height="480"
     id="namedview12"
     showgrid="false"
     fit-margin-top="0"
     fit-margin-left="0"
     fit-margin-right="0"
     fit-margin-bottom="0"
     inkscape:zoom="1.888"
     inkscape:cx="42.5"
     inkscape:cy="27.74624"
     inkscape:window-x="0"
     inkscape:window-y="48"
     inkscape:window-maximized="0"
     inkscape:current-layer="svg10" />
  <g
     transform="translate(-7.5,-962.11591)"
     id="g4">
    <path
       style="color:#000000;font-style:normal;font-variant:normal;font-weight:normal;font-stretch:normal;font-size:medium;line-height:normal;font-family:sans-serif;text-indent:0;text-align:start;text-decoration:none;text-decoration-line:none;text-decoration-style:solid;text-decoration-color:#000000;letter-spacing:normal;word-spacing:normal;text-transform:none;writing-mode:lr-tb;direction:ltr;baseline-shift:baseline;text-anchor:start;white-space:normal;clip-rule:nonzero;display:inline;overflow:visible;visibility:visible;opacity:1;isolation:auto;mix-blend-mode:normal;color-interpolation:sRGB;color-interpolation-filters:linearRGB;solid-color:#000000;solid-opacity:1;fill:#000000;fill-opacity:1;fill-rule:nonzero;stroke:none;stroke-width:15;stroke-linecap:round;stroke-linejoin:round;stroke-miterlimit:4;stroke-dasharray:none;stroke-dashoffset:0;stroke-opacity:1;marker:none;color-rendering:auto;image-rendering:auto;shape-rendering:auto;text-rendering:auto;enable-background:accumulate"
       d="m 12.96053,962.11591 c -3.00393,0 -5.46053,2.4569 -5.46053,5.4608 v 49.08829 c 0,3.0039 2.4566,5.4605 5.46053,5.4605 h 19.5298 v 15.0221 c 0,3.0039 2.4566,5.4608 5.46053,5.4608 h 49.08828 c 3.00393,0 5.46086,-2.4569 5.46086,-5.4608 v -32.647 c 0,-3.0039 -2.45693,-5.46089 -5.46086,-5.46089 H 64.33546 c 1.88741,4.03869 2.94461,8.53879 2.94461,13.27999 v 1.087 h 5.48814 l -8.56506,14.8344 -8.56472,-14.8344 h 5.06524 v -1.087 c 0,-4.8884 -1.39571,-9.4393 -3.81001,-13.27999 h -5.82499 v -6.4261 c 2.29644,1.7822 4.27231,3.9562 5.82499,6.4261 h 7.4418 c -2.81604,-6.0257 -7.48479,-11.0217 -13.26679,-14.249 v -17.214 c 0,-3.0039 -2.45693,-5.4608 -5.46087,-5.4608 z m 0,2.4661 H 45.6078 c 1.68035,0 2.99471,1.3144 2.99471,2.9947 v 15.9764 c -3.92006,-1.7565 -8.26048,-2.7349 -12.82398,-2.7349 h -3.2882 v 6.5764 h 3.2882 c 4.69662,0 9.0813,1.2886 12.82398,3.5309 v 8.1142 H 37.95086 c -3.00393,0 -5.46053,2.45699 -5.46053,5.46089 v 15.1588 h -19.5298 c -1.68035,0 -2.99438,-1.314 -2.99438,-2.9944 v -49.08829 c 0,-1.6803 1.31403,-2.9947 2.99438,-2.9947 z"
       id="path2"
       inkscape:connector-curvature="0" />
  </g>
</svg>
