<?xml version="1.0" encoding="UTF-8" standalone="no"?>
<svg
   xmlns:dc="http://purl.org/dc/elements/1.1/"
   xmlns:cc="http://creativecommons.org/ns#"
   xmlns:rdf="http://www.w3.org/1999/02/22-rdf-syntax-ns#"
   xmlns:svg="http://www.w3.org/2000/svg"
   xmlns="http://www.w3.org/2000/svg"
   xmlns:sodipodi="http://sodipodi.sourceforge.net/DTD/sodipodi-0.dtd"
   xmlns:inkscape="http://www.inkscape.org/namespaces/inkscape"
   viewBox="0 0 22 28"
   x="0px"
   y="0px"
   version="1.1"
   id="svg12"
   sodipodi:docname="delete.svg"
   width="22"
   height="28"
   inkscape:version="0.92.5 (2060ec1f9f, 2020-04-08)">
  <metadata
     id="metadata18">
    <rdf:RDF>
      <cc:Work
         rdf:about="">
        <dc:format>image/svg+xml</dc:format>
        <dc:type
           rdf:resource="http://purl.org/dc/dcmitype/StillImage" />
        <dc:title>Dashboard, ui, basic, essential, Sort</dc:title>
      </cc:Work>
    </rdf:RDF>
  </metadata>
  <defs
     id="defs16" />
  <sodipodi:namedview
     pagecolor="#000000"
     bordercolor="#666666"
     borderopacity="1"
     objecttolerance="10"
     gridtolerance="10"
     guidetolerance="10"
     inkscape:pageopacity="0"
     inkscape:pageshadow="2"
     inkscape:window-width="1848"
     inkscape:window-height="1016"
     id="namedview14"
     showgrid="false"
     fit-margin-top="0"
     fit-margin-left="0"
     fit-margin-right="0"
     fit-margin-bottom="0"
     inkscape:zoom="8.34386"
     inkscape:cx="14.034946"
     inkscape:cy="4.8471152"
     inkscape:window-x="1512"
     inkscape:window-y="27"
     inkscape:window-maximized="1"
     inkscape:current-layer="g6" />
  <title
     id="title2">Dashboard, ui, basic, essential, Sort</title>
  <g
     data-name="Layer 5"
     id="g6"
     transform="translate(-5,-2)">
    <path
       d="M 20,25 V 14 a 1,1 0 0 1 2,0 v 11 a 1,1 0 0 1 -2,0 z m -9,1 a 1,1 0 0 0 1,-1 V 14 a 1,1 0 0 0 -2,0 v 11 a 1,1 0 0 0 1,1 z M 27,8 v 2 a 1,1 0 0 1 -1,1 v 16 a 3,3 0 0 1 -3,3 H 9 A 3,3 0 0 1 6,27 V 11 A 1,1 0 0 1 5,10 V 8 A 3,3 0 0 1 8,5 h 4 a 3,3 0 0 1 3,-3 h 2 a 3,3 0 0 1 3,3 h 4 a 3,3 0 0 1 3,3 z M 14,5 h 4 A 1,1 0 0 0 17,4 h -2 a 1,1 0 0 0 -1,1 z m 10,6 H 8 v 16 a 1,1 0 0 0 1,1 h 14 a 1,1 0 0 0 1,-1 z M 25,8 A 1,1 0 0 0 24,7 H 8 A 1,1 0 0 0 7,8 v 1 h 18 z m -9,18 a 1,1 0 0 0 1,-1 V 14 a 1,1 0 0 0 -2,0 v 11 a 1,1 0 0 0 1,1 z"
       id="path4"
       inkscape:connector-curvature="0"
       style="fill:#fdfdfd;fill-opacity:1" />
  </g>
</svg>
