<?xml version="1.0" encoding="UTF-8" standalone="no"?>
<svg
   xmlns:dc="http://purl.org/dc/elements/1.1/"
   xmlns:cc="http://creativecommons.org/ns#"
   xmlns:rdf="http://www.w3.org/1999/02/22-rdf-syntax-ns#"
   xmlns:svg="http://www.w3.org/2000/svg"
   xmlns="http://www.w3.org/2000/svg"
   xmlns:sodipodi="http://sodipodi.sourceforge.net/DTD/sodipodi-0.dtd"
   xmlns:inkscape="http://www.inkscape.org/namespaces/inkscape"
   version="1.1"
   x="0px"
   y="0px"
   viewBox="0 0 75.601318 94.9"
   xml:space="preserve"
   id="svg26"
   sodipodi:docname="lock.svg"
   width="75.601318"
   height="94.900002"
   inkscape:version="0.92.5 (2060ec1f9f, 2020-04-08)"><metadata
     id="metadata32"><rdf:RDF><cc:Work
         rdf:about=""><dc:format>image/svg+xml</dc:format><dc:type
           rdf:resource="http://purl.org/dc/dcmitype/StillImage" /><dc:title></dc:title></cc:Work></rdf:RDF></metadata><defs
     id="defs30" /><sodipodi:namedview
     pagecolor="#000000"
     bordercolor="#666666"
     borderopacity="1"
     objecttolerance="10"
     gridtolerance="10"
     guidetolerance="10"
     inkscape:pageopacity="0"
     inkscape:pageshadow="2"
     inkscape:window-width="1848"
     inkscape:window-height="1016"
     id="namedview28"
     showgrid="false"
     fit-margin-top="0"
     fit-margin-left="0"
     fit-margin-right="0"
     fit-margin-bottom="0"
     inkscape:zoom="5.3400704"
     inkscape:cx="3.2640013"
     inkscape:cy="45.072152"
     inkscape:window-x="1512"
     inkscape:window-y="27"
     inkscape:window-maximized="1"
     inkscape:current-layer="g16" /><g
     id="g16"
     transform="translate(-12.2,-2.5)"><path
       d="M 75.4,36.8 H 34.1 V 24.6 c 0,-8.8 7.1,-15.9 15.9,-15.9 8.8,0 15.9,7.1 15.9,15.9 0,1.7 1.4,3.1 3.1,3.1 1.7,0 3.1,-1.4 3.1,-3.1 C 72.1,12.4 62.2,2.5 50,2.5 37.8,2.5 27.9,12.4 27.9,24.6 v 12.2 h -3.3 c -6.9,0 -12.4,5.6 -12.4,12.4 V 85 c 0,6.9 5.6,12.4 12.4,12.4 h 50.8 c 6.9,0 12.4,-5.6 12.4,-12.4 V 49.2 C 87.9,42.3 82.3,36.8 75.4,36.8 Z m 6.2,48.3 c 0,3.4 -2.8,6.2 -6.2,6.2 H 24.6 c -3.4,0 -6.2,-2.8 -6.2,-6.2 V 49.2 c 0,-3.4 2.8,-6.2 6.2,-6.2 h 50.8 c 3.4,0 6.2,2.8 6.2,6.2 z"
       id="path12"
       inkscape:connector-curvature="0"
       style="fill:#ffffff;fill-opacity:1" /><path
       d="m 59.8,57.6 -12.5,12.5 -7,-7 c -1.2,-1.2 -3.2,-1.2 -4.4,0 -1.2,1.2 -1.2,3.2 0,4.4 l 9.2,9.2 c 0.6,0.6 1.4,0.9 2.2,0.9 0.8,0 1.6,-0.3 2.2,-0.9 L 64.2,62 c 1.2,-1.2 1.2,-3.2 0,-4.4 -1.2,-1.2 -3.2,-1.2 -4.4,0 z"
       id="path14"
       inkscape:connector-curvature="0"
       style="fill:#ffffff;fill-opacity:1" /></g></svg>