<svg xmlns="http://www.w3.org/2000/svg" width="146.444" height="130.172" viewBox="0 0 146.444 130.172"><defs><style>.a{fill:#b3b3b3;opacity:0.057;}</style></defs><path class="a" d="M100.2,103.1V96.395c8.962-5.05,16.272-17.641,16.272-30.233,0-20.22,0-36.611-24.407-36.611S67.658,45.941,67.658,66.161c0,12.593,7.31,25.183,16.272,30.233V103.1c-27.6,2.256-48.815,15.816-48.815,32.211h113.9c0-16.395-21.216-29.955-48.815-32.211Zm-56.036,3.142a77.3,77.3,0,0,1,25.4-10.222,45.893,45.893,0,0,1-5.147-7.5,46.586,46.586,0,0,1-5.91-22.36c0-10.938,0-21.269,3.89-29.716,3.776-8.2,10.567-13.284,20.24-15.189-2.15-9.722-7.874-16.113-23.113-16.113-24.407,0-24.407,16.391-24.407,36.611,0,12.593,7.31,25.183,16.272,30.233V78.7c-27.6,2.256-48.815,15.816-48.815,32.211H38.039a52.111,52.111,0,0,1,6.126-4.662Z" transform="translate(-2.571 -5.143)"/></svg>