<?xml version="1.0" encoding="UTF-8" standalone="no"?>
<svg
   xmlns:dc="http://purl.org/dc/elements/1.1/"
   xmlns:cc="http://creativecommons.org/ns#"
   xmlns:rdf="http://www.w3.org/1999/02/22-rdf-syntax-ns#"
   xmlns:svg="http://www.w3.org/2000/svg"
   xmlns="http://www.w3.org/2000/svg"
   xmlns:sodipodi="http://sodipodi.sourceforge.net/DTD/sodipodi-0.dtd"
   xmlns:inkscape="http://www.inkscape.org/namespaces/inkscape"
   version="1.1"
   x="0px"
   y="0px"
   viewBox="0 0 90 90"
   enable-background="new 0 0 100 100"
   xml:space="preserve"
   id="svg10"
   sodipodi:docname="rotate.svg"
   width="90"
   height="90"
   inkscape:version="0.92.5 (2060ec1f9f, 2020-04-08)"><metadata
     id="metadata16"><rdf:RDF><cc:Work
         rdf:about=""><dc:format>image/svg+xml</dc:format><dc:type
           rdf:resource="http://purl.org/dc/dcmitype/StillImage" /><dc:title></dc:title></cc:Work></rdf:RDF></metadata><defs
     id="defs14" /><sodipodi:namedview
     pagecolor="#ffffff"
     bordercolor="#666666"
     borderopacity="1"
     objecttolerance="10"
     gridtolerance="10"
     guidetolerance="10"
     inkscape:pageopacity="0"
     inkscape:pageshadow="2"
     inkscape:window-width="865"
     inkscape:window-height="480"
     id="namedview12"
     showgrid="false"
     fit-margin-top="0"
     fit-margin-left="0"
     fit-margin-right="0"
     fit-margin-bottom="0"
     inkscape:zoom="1.888"
     inkscape:cx="13.485169"
     inkscape:cy="38.855932"
     inkscape:window-x="2027"
     inkscape:window-y="116"
     inkscape:window-maximized="0"
     inkscape:current-layer="svg10"
     inkscape:pagecheckerboard="true" /><path
     d="M 45,0 C 33,0 21.7,4.7 13.2,13.2 4.7,21.7 0,33 0,45 0,46.4 1.1,47.5 2.5,47.5 3.9,47.5 5,46.4 5,45 5,34.3 9.2,24.3 16.7,16.7 24.3,9.2 34.3,5 45,5 55.7,5 65.7,9.2 73.3,16.7 80.8,24.3 85,34.3 85,45 85,55.7 80.8,65.7 73.3,73.3 65.7,80.8 55.7,85 45,85 35.2,85 25.9,81.5 18.5,75 l 4.7,-4.7 c 0.6,-0.6 0.9,-1.6 0.6,-2.4 C 23.6,67 22.9,66.4 22,66.1 L 4.3,61.4 C 3.4,61.2 2.5,61.4 1.9,62 1.3,62.6 1,63.6 1.3,64.4 L 6,82.2 c 0.2,0.9 0.9,1.5 1.8,1.8 0.2,0.1 0.4,0.1 0.6,0.1 0.7,0 1.3,-0.3 1.8,-0.7 L 15,78.6 C 23.3,85.9 33.8,90 45,90 57,90 68.3,85.3 76.8,76.8 85.3,68.3 90,57 90,45 90,33 85.3,21.7 76.8,13.2 68.3,4.7 57,0 45,0 Z M 9.7,76.7 7.2,67.3 l 9.4,2.5 z"
     id="path2"
     inkscape:connector-curvature="0"
     style="fill:#ffffff" /><path
     d="m 62.5,45 c 0,-9.6 -7.9,-17.5 -17.5,-17.5 -9.6,0 -17.5,7.9 -17.5,17.5 0,9.6 7.9,17.5 17.5,17.5 9.6,0 17.5,-7.9 17.5,-17.5 z m -30,0 c 0,-6.9 5.6,-12.5 12.5,-12.5 6.9,0 12.5,5.6 12.5,12.5 0,6.9 -5.6,12.5 -12.5,12.5 -6.9,0 -12.5,-5.6 -12.5,-12.5 z"
     id="path4"
     inkscape:connector-curvature="0"
     style="fill:#ffffff" /></svg>