<?xml version="1.0" encoding="UTF-8" standalone="no"?>
<!-- Created with Inkscape (http://www.inkscape.org/) -->

<svg
   xmlns:dc="http://purl.org/dc/elements/1.1/"
   xmlns:cc="http://creativecommons.org/ns#"
   xmlns:rdf="http://www.w3.org/1999/02/22-rdf-syntax-ns#"
   xmlns:svg="http://www.w3.org/2000/svg"
   xmlns="http://www.w3.org/2000/svg"
   xmlns:sodipodi="http://sodipodi.sourceforge.net/DTD/sodipodi-0.dtd"
   xmlns:inkscape="http://www.inkscape.org/namespaces/inkscape"
   width="50.000004mm"
   height="50.000141mm"
   viewBox="0 0 50.000004 50.000141"
   version="1.1"
   id="svg8"
   inkscape:version="0.92.5 (2060ec1f9f, 2020-04-08)"
   sodipodi:docname="target.svg">
  <defs
     id="defs2" />
  <sodipodi:namedview
     id="base"
     pagecolor="#ffffff"
     bordercolor="#666666"
     borderopacity="1.0"
     inkscape:pageopacity="0.0"
     inkscape:pageshadow="2"
     inkscape:zoom="0.98994949"
     inkscape:cx="39.598738"
     inkscape:cy="136.66829"
     inkscape:document-units="mm"
     inkscape:current-layer="layer1"
     showgrid="false"
     fit-margin-top="0"
     fit-margin-left="0"
     fit-margin-right="0"
     fit-margin-bottom="0"
     inkscape:window-width="1848"
     inkscape:window-height="1016"
     inkscape:window-x="1512"
     inkscape:window-y="27"
     inkscape:window-maximized="1" />
  <metadata
     id="metadata5">
    <rdf:RDF>
      <cc:Work
         rdf:about="">
        <dc:format>image/svg+xml</dc:format>
        <dc:type
           rdf:resource="http://purl.org/dc/dcmitype/StillImage" />
        <dc:title></dc:title>
      </cc:Work>
    </rdf:RDF>
  </metadata>
  <g
     inkscape:label="Calque 1"
     inkscape:groupmode="layer"
     id="layer1"
     transform="translate(-36.422966,-39.005905)">
    <path
       style="fill:#000000;stroke-width:1"
       d="m 60.555615,86.327375 c 0,-1.47322 -0.01888,-2.67857 -0.04197,-2.67857 -0.165584,0 -2.114808,-0.2776 -2.691205,-0.38326 -1.7956,-0.32917 -3.382134,-0.86823 -5.098454,-1.7323 -1.950489,-0.98196 -3.466404,-2.08784 -5.105276,-3.72437 -1.670604,-1.66821 -2.867896,-3.32881 -3.827083,-5.30804 -1.061488,-2.19031 -1.610881,-4.13777 -1.934746,-6.8582 -0.04483,-0.3766 -0.09328,-0.70377 -0.107666,-0.72704 -0.01439,-0.0233 -1.218672,-0.0423 -2.676199,-0.0423 h -2.65005 v -0.86734 -0.86735 h 2.67857 c 2.115813,0 2.678573,-0.0135 2.678573,-0.0641 0,-0.1968 0.171864,-1.49182 0.281548,-2.1215 0.608627,-3.49404 1.906683,-6.4285 4.009633,-9.06441 0.949163,-1.18972 2.472035,-2.6727 3.680792,-3.58438 2.835598,-2.13869 6.137461,-3.41261 10.012721,-3.8631 0.364796,-0.0424 0.691964,-0.0773 0.727041,-0.0776 0.0502,-3.7e-4 0.06378,-0.57044 0.06378,-2.67903 v -2.67858 h 0.867345 0.867346 v 2.66881 2.66881 l 0.930551,0.11468 c 2.106988,0.25967 3.574166,0.62007 5.31945,1.30669 4.499724,1.77025 8.401369,5.38695 10.513984,9.74612 0.828239,1.70899 1.303438,3.1381 1.627444,4.89437 0.106067,0.57494 0.384083,2.52295 0.384083,2.6912 0,0.0231 1.205357,0.042 2.67857,0.042 h 2.678573 v 0.86735 0.86734 l -1.67092,0.004 c -1.70341,0.004 -3.612606,0.0585 -3.658666,0.10461 -0.01404,0.014 -0.08239,0.47177 -0.151883,1.01719 -0.337043,2.64521 -0.923487,4.61432 -2.019781,6.78185 -0.981036,1.93964 -2.059004,3.40227 -3.74293,5.07855 -1.653098,1.6456 -3.099756,2.69994 -5.048199,3.6792 -2.131631,1.07133 -4.095645,1.6522 -6.71459,1.9859 -0.545413,0.0695 -1.003144,0.13784 -1.017181,0.15188 -0.04516,0.0452 -0.101802,2.04254 -0.105202,3.70969 l -0.0033,1.6199 h -0.867346 -0.867345 z m -0.0012,-5.98215 c -7.71e-4,-0.83482 -0.02199,-1.60742 -0.04738,-1.71688 -0.07998,-0.34481 -0.154671,-0.38164 -1.053429,-0.51944 -0.920284,-0.14109 -1.437619,-0.26052 -2.230776,-0.51497 -2.226051,-0.71413 -4.182402,-1.90873 -5.827533,-3.55845 -1.523905,-1.52815 -2.654603,-3.2904 -3.385302,-5.27615 -0.311853,-0.8475 -0.656517,-2.30665 -0.797407,-3.37584 -0.02034,-0.15434 -0.05651,-0.33227 -0.08039,-0.39541 l -0.04342,-0.1148 h -1.76147 c -1.375193,0 -1.761455,0.014 -1.761407,0.0638 1.55e-4,0.17417 0.16985,1.51422 0.260026,2.05357 0.747926,4.47329 3.023611,8.32316 6.576648,11.12599 2.027806,1.59963 4.482339,2.732 7.186397,3.31535 0.730208,0.15753 2.425242,0.41331 2.82636,0.4265 l 0.140305,0.005 -0.0012,-1.51785 z m 3.164483,1.35693 c 3.638905,-0.49605 6.713489,-1.84577 9.311224,-4.08759 0.647203,-0.55853 1.677834,-1.60226 2.203079,-2.23107 1.475801,-1.76682 2.612062,-3.91552 3.281877,-6.20614 0.333584,-1.14078 0.544175,-2.27735 0.743129,-4.0107 l 0.03367,-0.29337 h -1.76734 -1.767346 l -0.04342,0.1148 c -0.02388,0.0631 -0.06006,0.24107 -0.08039,0.39541 -0.06744,0.51177 -0.281933,1.59886 -0.432881,2.19387 -0.436333,1.71997 -1.27621,3.42764 -2.471684,5.02551 -0.560712,0.74945 -1.889097,2.09033 -2.621666,2.64633 -2.043452,1.55091 -4.386535,2.54353 -6.764676,2.86578 -0.721116,0.0977 -0.81437,0.12888 -0.934679,0.31234 -0.0829,0.12641 -0.09353,0.30294 -0.107936,1.79239 l -0.01599,1.65218 0.347614,-0.0344 c 0.191188,-0.019 0.680523,-0.0798 1.087411,-0.13529 z m -3.163268,-6.98193 v -1.78571 h 0.867346 0.867346 v 1.78571 c 0,1.50889 0.01124,1.78572 0.07248,1.78572 0.03986,0 0.412759,-0.0577 0.828661,-0.1281 2.820988,-0.47789 5.10851,-1.58607 6.949655,-3.36671 1.668409,-1.61359 2.815363,-3.62395 3.395042,-5.95078 0.120027,-0.48179 0.386819,-1.94024 0.386819,-2.11459 0,-0.0612 -0.276827,-0.0725 -1.785713,-0.0725 H 70.35159 v -0.86734 -0.86735 h 1.785715 c 1.508886,0 1.785713,-0.0112 1.785713,-0.0725 0,-0.16992 -0.262372,-1.60141 -0.385083,-2.10099 -0.744837,-3.03242 -2.577638,-5.68473 -5.074099,-7.34292 -1.173069,-0.77917 -2.626828,-1.40266 -4.096343,-1.75684 -0.432118,-0.10414 -1.855904,-0.35942 -2.004652,-0.35942 -0.06124,0 -0.07248,0.27682 -0.07248,1.78571 v 1.78571 h -0.859324 -0.859324 l -0.03234,-1.67091 c -0.01778,-0.91901 -0.04714,-1.723 -0.06524,-1.78665 -0.03036,-0.10681 -0.05309,-0.11326 -0.294562,-0.0837 -3.088065,0.37873 -5.741448,1.66574 -7.787445,3.77725 -1.604678,1.65606 -2.654164,3.63732 -3.161652,5.96871 -0.09994,0.4591 -0.307432,1.66898 -0.307452,1.7927 -9e-6,0.0498 0.391141,0.0638 1.785704,0.0638 h 1.785715 v 0.86735 0.86734 h -1.785715 c -1.508888,0 -1.785715,0.0112 -1.785715,0.0725 0,0.0399 0.05659,0.40655 0.125766,0.81487 0.487256,2.87628 1.516148,5.03103 3.282527,6.87438 1.697959,1.77196 3.767484,2.95564 6.144832,3.51458 0.484387,0.11389 1.779392,0.34621 1.964733,0.35247 l 0.114796,0.004 z M 47.137263,63.088945 c 0,-0.0273 0.06971,-0.45779 0.154916,-0.95663 0.310155,-1.81585 0.688457,-3.01973 1.374209,-4.37319 1.479597,-2.92024 3.682429,-5.10857 6.596474,-6.55303 1.470599,-0.72896 2.676288,-1.08057 4.930279,-1.43779 l 0.377306,-0.0598 -0.02656,-1.66929 c -0.01828,-1.14895 -0.04555,-1.70477 -0.08746,-1.78309 -0.06684,-0.1249 -0.05155,-0.12492 -1.074259,0.001 -3.240754,0.39968 -6.287873,1.61281 -8.80102,3.50388 -2.445839,1.84042 -4.371643,4.31428 -5.588125,7.1784 -0.47622,1.12123 -0.965823,2.79733 -1.148217,3.9308 -0.101638,0.63163 -0.27883,1.99969 -0.278907,2.15338 l -5.8e-5,0.1148 h 1.785715 c 1.123599,0 1.785715,-0.0184 1.785715,-0.0496 z m 32.116873,-0.29474 c -0.139393,-1.40758 -0.439476,-2.97533 -0.793321,-4.14463 -1.503155,-4.96725 -5.158378,-9.01894 -10.003357,-11.08835 -1.698479,-0.72547 -3.412051,-1.13242 -5.848258,-1.38888 l -0.318878,-0.0336 v 1.79073 c 0,1.12684 0.0184,1.79072 0.04965,1.79072 0.187306,0 1.989998,0.34161 2.56311,0.48571 4.179883,1.05096 7.80156,4.15047 9.599202,8.2152 0.540659,1.22251 0.884689,2.53182 1.182568,4.50062 l 0.03281,0.21684 h 1.785291 1.78529 z"
       id="path826"
       inkscape:connector-curvature="0"
       sodipodi:nodetypes="cscsccccscccssscsccscccccccscssccccccccsccccccccccscccccscccccccccscsccccccccccccccccccccssccssscccsscscssccccccsccscccsscccccccccsccsccsccccscccscccsscsccccc" />
  </g>
</svg>
